<?xml version="1.0" encoding="utf-8"?>
<!-- Generator: Adobe Illustrator 26.0.2, SVG Export Plug-In . SVG Version: 6.00 Build 0)  -->
<svg version="1.1" id="Layer_1" xmlns="http://www.w3.org/2000/svg" xmlns:xlink="http://www.w3.org/1999/xlink" x="0px" y="0px"
	 viewBox="0 0 3300 2200" style="enable-background:new 0 0 3300 2200;" xml:space="preserve">
<style type="text/css">
	.st0{display:none;}
	.st1{display:inline;fill:#FFFFFF;}
	.st2{display:inline;fill:none;stroke:#000000;stroke-width:0.5;}
	.st3{display:inline;}
	.st4{font-family:'Helvetica-Bold';}
	.st5{font-size:13px;}
	.st6{font-family:'Helvetica';}
	.st7{display:inline;fill:none;stroke:#00AEEF;stroke-width:0.5;}
	.st8{fill:#27AAE1;}
	.st9{display:inline;fill:none;stroke:#27AAE1;stroke-width:0.5;}
</style>
<g id="Notes" class="st0">
	<rect id="artboard" class="st1" width="3300" height="2200"/>
	<line class="st2" x1="263" y1="292" x2="3036" y2="292"/>
	<text transform="matrix(1 0 0 1 263 322)" class="st3 st4 st5">Weight/Scale Variations</text>
	<text transform="matrix(1 0 0 1 534.0633 322)" class="st3 st6 st5">Ultralight</text>
	<text transform="matrix(1 0 0 1 843.7775 322)" class="st3 st6 st5">Thin</text>
	<text transform="matrix(1 0 0 1 1139.035 322)" class="st3 st6 st5">Light</text>
	<text transform="matrix(1 0 0 1 1427.0773 322)" class="st3 st6 st5">Regular</text>
	<text transform="matrix(1 0 0 1 1723.4419 322)" class="st3 st6 st5">Medium</text>
	<text transform="matrix(1 0 0 1 2016.1719 322)" class="st3 st6 st5">Semibold</text>
	<text transform="matrix(1 0 0 1 2326.9705 322)" class="st3 st6 st5">Bold</text>
	<text transform="matrix(1 0 0 1 2618.2659 322)" class="st3 st6 st5">Heavy</text>
	<text transform="matrix(1 0 0 1 2917.5054 322)" class="st3 st6 st5">Black</text>
	<line class="st2" x1="263" y1="1903" x2="3036" y2="1903"/>
	<g transform="matrix(1 0 0 1 263 1933)" class="st3">
		<path d="M9.2,0.8c1.1,0,2.1-0.2,3-0.6c1-0.4,1.8-1,2.5-1.7c0.7-0.7,1.3-1.6,1.7-2.5c0.4-1,0.6-2,0.6-3s-0.2-2.1-0.6-3
			c-0.4-1-1-1.8-1.7-2.5c-0.7-0.7-1.6-1.3-2.5-1.7c-1-0.4-2-0.6-3-0.6c-1.1,0-2.1,0.2-3,0.6s-1.8,1-2.5,1.7C3-11.9,2.4-11,2-10.1
			c-0.4,1-0.6,2-0.6,3S1.6-5,2-4c0.4,1,1,1.8,1.7,2.5s1.6,1.3,2.5,1.7C7.2,0.6,8.2,0.8,9.2,0.8z M9.2-0.7c-0.9,0-1.7-0.2-2.5-0.5
			C6-1.5,5.3-1.9,4.7-2.5c-0.6-0.6-1-1.3-1.4-2C3-5.3,2.9-6.2,2.9-7.1c0-0.9,0.2-1.7,0.5-2.5c0.3-0.8,0.8-1.5,1.4-2
			c0.6-0.6,1.3-1,2-1.4c0.8-0.3,1.6-0.5,2.5-0.5c0.9,0,1.7,0.2,2.5,0.5c0.8,0.3,1.5,0.8,2,1.4c0.6,0.6,1,1.3,1.4,2
			c0.3,0.8,0.5,1.6,0.5,2.5c0,0.9-0.2,1.7-0.5,2.5c-0.3,0.8-0.8,1.5-1.4,2c-0.6,0.6-1.3,1-2,1.4C11-0.8,10.1-0.7,9.2-0.7z M5.7-7.1
			c0,0.2,0.1,0.4,0.2,0.5C6-6.4,6.2-6.3,6.4-6.3h2.1v2.1c0,0.2,0.1,0.4,0.2,0.5C8.8-3.5,9-3.5,9.2-3.5c0.2,0,0.4-0.1,0.5-0.2
			C9.9-3.8,10-4,10-4.2v-2.1h2.1c0.2,0,0.4-0.1,0.5-0.2c0.1-0.1,0.2-0.3,0.2-0.5c0-0.2-0.1-0.4-0.2-0.5c-0.1-0.1-0.3-0.2-0.5-0.2H10
			v-2.1c0-0.2-0.1-0.4-0.2-0.5c-0.1-0.1-0.3-0.2-0.5-0.2c-0.2,0-0.4,0.1-0.5,0.2c-0.1,0.1-0.2,0.3-0.2,0.5v2.1H6.4
			C6.2-7.8,6-7.7,5.9-7.6C5.7-7.5,5.7-7.3,5.7-7.1z"/>
	</g>
	<g transform="matrix(1 0 0 1 281.867 1933)" class="st3">
		<path d="M11.7,2.9c1.4,0,2.6-0.3,3.8-0.8c1.2-0.5,2.3-1.2,3.2-2.2c0.9-0.9,1.6-2,2.2-3.2c0.5-1.2,0.8-2.5,0.8-3.8
			c0-1.4-0.3-2.6-0.8-3.8c-0.5-1.2-1.2-2.3-2.2-3.2c-0.9-0.9-2-1.6-3.2-2.2c-1.2-0.5-2.5-0.8-3.8-0.8s-2.6,0.3-3.8,0.8
			c-1.2,0.5-2.3,1.2-3.2,2.2c-0.9,0.9-1.6,2-2.2,3.2C2-9.7,1.7-8.4,1.7-7.1c0,1.4,0.3,2.6,0.8,3.8S3.8-0.9,4.7,0
			c0.9,0.9,2,1.6,3.2,2.2S10.3,2.9,11.7,2.9z M11.7,1.2c-1.2,0-2.2-0.2-3.2-0.6c-1-0.4-1.9-1-2.6-1.8C5.1-1.9,4.5-2.8,4.1-3.8
			S3.4-5.9,3.4-7.1c0-1.2,0.2-2.2,0.6-3.2s1-1.9,1.8-2.6c0.8-0.8,1.6-1.4,2.6-1.8c1-0.4,2.1-0.6,3.2-0.6s2.2,0.2,3.2,0.6
			c1,0.4,1.9,1,2.6,1.8c0.8,0.8,1.4,1.6,1.8,2.6c0.4,1,0.6,2.1,0.6,3.2c0,1.2-0.2,2.2-0.6,3.2c-0.4,1-1,1.9-1.8,2.6
			c-0.8,0.8-1.6,1.4-2.6,1.8S12.9,1.2,11.7,1.2z M7.2-7.1c0,0.2,0.1,0.4,0.2,0.6C7.6-6.3,7.8-6.2,8-6.2h2.9v2.9
			c0,0.2,0.1,0.4,0.2,0.6c0.1,0.2,0.3,0.2,0.6,0.2c0.2,0,0.4-0.1,0.6-0.2c0.2-0.2,0.2-0.4,0.2-0.6v-2.9h2.9c0.2,0,0.4-0.1,0.6-0.2
			s0.2-0.3,0.2-0.6c0-0.2-0.1-0.4-0.2-0.6c-0.2-0.2-0.4-0.2-0.6-0.2h-2.9v-2.9c0-0.3-0.1-0.5-0.2-0.6s-0.4-0.2-0.6-0.2
			c-0.2,0-0.4,0.1-0.6,0.2c-0.1,0.2-0.2,0.4-0.2,0.6v2.9H8c-0.3,0-0.5,0.1-0.6,0.2C7.3-7.5,7.2-7.3,7.2-7.1z"/>
	</g>
	<g transform="matrix(1 0 0 1 305.646 1933)" class="st3">
		<path d="M15,5.7c1.4,0,2.7-0.2,4-0.6c1.3-0.4,2.4-1,3.5-1.8c1.1-0.8,2-1.7,2.8-2.8C26-0.6,26.6-1.8,27-3.1c0.4-1.3,0.6-2.6,0.6-4
			c0-1.4-0.2-2.7-0.6-4c-0.4-1.3-1-2.4-1.8-3.5c-0.8-1.1-1.7-2-2.8-2.8c-1.1-0.8-2.2-1.4-3.5-1.8c-1.3-0.4-2.6-0.6-4-0.6
			c-1.4,0-2.7,0.2-4,0.6c-1.3,0.4-2.4,1-3.5,1.8c-1.1,0.8-2,1.7-2.8,2.8c-0.8,1.1-1.4,2.2-1.8,3.5c-0.4,1.3-0.6,2.6-0.6,4
			c0,1.4,0.2,2.7,0.6,4c0.4,1.3,1,2.4,1.8,3.5c0.8,1.1,1.7,2,2.8,2.8C8.6,4,9.7,4.6,11,5C12.2,5.4,13.6,5.7,15,5.7z M15,3.8
			c-1.2,0-2.4-0.2-3.4-0.6c-1.1-0.4-2.1-0.9-3-1.5C7.6,1.1,6.8,0.3,6.2-0.6C5.5-1.5,5-2.5,4.6-3.6C4.3-4.7,4.1-5.8,4.1-7.1
			c0-1.2,0.2-2.4,0.5-3.5c0.4-1.1,0.9-2.1,1.5-3c0.7-0.9,1.4-1.7,2.4-2.4c0.9-0.7,1.9-1.2,3-1.5c1.1-0.4,2.2-0.5,3.4-0.5
			c1.2,0,2.4,0.2,3.5,0.5c1.1,0.4,2.1,0.9,3,1.5c0.9,0.7,1.7,1.5,2.4,2.4c0.7,0.9,1.2,1.9,1.5,3c0.4,1.1,0.6,2.2,0.6,3.5
			c0,1.2-0.2,2.4-0.5,3.4c-0.4,1.1-0.9,2.1-1.5,3c-0.7,0.9-1.5,1.7-2.4,2.4c-0.9,0.7-1.9,1.2-3,1.5C17.3,3.7,16.2,3.8,15,3.8z
			 M9.2-7.1c0,0.3,0.1,0.5,0.3,0.6c0.2,0.2,0.4,0.2,0.7,0.2h3.9v4c0,0.3,0.1,0.5,0.2,0.7c0.2,0.2,0.4,0.3,0.6,0.3
			c0.3,0,0.5-0.1,0.7-0.3c0.2-0.2,0.3-0.4,0.3-0.7v-4h4c0.3,0,0.5-0.1,0.7-0.2c0.2-0.2,0.3-0.4,0.3-0.6c0-0.3-0.1-0.5-0.3-0.7
			C20.3-7.9,20.1-8,19.8-8h-4v-3.9c0-0.3-0.1-0.5-0.3-0.7c-0.2-0.2-0.4-0.3-0.7-0.3c-0.3,0-0.5,0.1-0.6,0.3
			c-0.2,0.2-0.2,0.4-0.2,0.7V-8h-3.9C9.8-8,9.6-7.9,9.5-7.7C9.3-7.5,9.2-7.3,9.2-7.1z"/>
	</g>
	<text transform="matrix(1 0 0 1 263 1953)" class="st3 st4 st5">Design Variations</text>
	<text transform="matrix(1 0 0 1 263 1971)" class="st3 st6 st5">Symbols are supported in up to nine weights and three scales.</text>
	<text transform="matrix(1 0 0 1 263 1989)" class="st3 st6 st5">For optimal layout with text and other symbols, vertically align</text>
	<text transform="matrix(1 0 0 1 263 2007)" class="st3 st6 st5">symbols with the adjacent text.</text>
	<line class="st7" x1="776" y1="1919" x2="776" y2="1933"/>
	<g transform="matrix(1 0 0 1 776 1933)" class="st3">
		<path d="M3.3,0.2c0.3,0,0.5-0.1,0.6-0.2c0.1-0.1,0.3-0.3,0.4-0.6L5.5-4h5.8l1.3,3.4c0.1,0.3,0.2,0.5,0.4,0.6
			c0.1,0.1,0.3,0.2,0.6,0.2c0.3,0,0.5-0.1,0.6-0.2c0.2-0.1,0.2-0.3,0.2-0.6c0-0.1,0-0.3-0.1-0.5L9.7-13.4c-0.1-0.3-0.3-0.5-0.5-0.7
			c-0.2-0.1-0.5-0.2-0.8-0.2c-0.6,0-1,0.3-1.2,0.9L2.6-1.2C2.5-1,2.5-0.8,2.5-0.6c0,0.2,0.1,0.4,0.2,0.6S3.1,0.2,3.3,0.2z M6-5.5
			l2.4-6.6h0l2.4,6.6H6z"/>
	</g>
	<line class="st7" x1="793.2" y1="1919" x2="793.2" y2="1933"/>
	<text transform="matrix(1 0 0 1 776 1953)" class="st3 st4 st5">Margins</text>
	<text transform="matrix(1 0 0 1 776 1971)" class="st3 st6 st5">Leading and trailing margins on the left and right side of each symbol</text>
	<text transform="matrix(1 0 0 1 776 1989)" class="st3 st6 st5">can be adjusted by modifying the x-location of the margin guidelines.</text>
	<text transform="matrix(1 0 0 1 776 2007)" class="st3 st6 st5">Modifications are automatically applied proportionally to all</text>
	<text transform="matrix(1 0 0 1 776 2025)" class="st3 st6 st5">scales and weights.</text>
	<g transform="matrix(1 0 0 1 1289 1933)" class="st3">
		<path d="M2.8,1.9l1.7,1.7C5,4,5.4,4.2,5.9,4.2c0.5,0,0.9-0.3,1.4-0.8L18-8.4l-1-1L6.4,2.3C6.2,2.5,6.1,2.6,5.9,2.6
			c-0.2,0-0.4-0.1-0.6-0.3L4.1,1.1C3.9,0.9,3.8,0.7,3.8,0.5c0-0.2,0.1-0.4,0.3-0.5l11.5-10.8l-1-1L3-0.9C2.6-0.4,2.3,0,2.3,0.5
			C2.2,1,2.4,1.4,2.8,1.9z M9.3-16.3c-0.2,0.2-0.3,0.4-0.4,0.7c0,0.3,0,0.5,0.1,0.7c0.1,0.2,0.3,0.3,0.5,0.4c0.2,0.1,0.5,0.1,0.8,0
			c0.7-0.2,1.5-0.2,2.2-0.2c0.7,0,1.5,0.3,2.2,0.7l-0.6,1.5c-0.2,0.4-0.2,0.8-0.1,1.1c0.1,0.3,0.2,0.6,0.5,0.9l2.3,2.3
			c0.2,0.2,0.5,0.4,0.7,0.4c0.2,0,0.5,0,0.8,0L19.4-8l0.7,0.7l0,0.6c0,0.2,0,0.5,0.1,0.7c0.1,0.2,0.2,0.4,0.5,0.7l0.8,0.7
			c0.2,0.2,0.5,0.4,0.8,0.4c0.3,0,0.5-0.1,0.8-0.3l2.9-2.9c0.2-0.2,0.3-0.5,0.3-0.8c0-0.3-0.1-0.5-0.4-0.8L25-9.9
			c-0.2-0.2-0.5-0.4-0.7-0.5c-0.2-0.1-0.4-0.1-0.7-0.1l-0.6,0l-0.6-0.6l0.2-1.1c0.1-0.3,0.1-0.5,0-0.8s-0.3-0.5-0.6-0.8L19.9-16
			c-0.8-0.8-1.7-1.4-2.7-1.9c-0.9-0.4-1.9-0.6-2.8-0.6c-1,0-1.9,0.2-2.8,0.5C10.8-17.6,10-17.1,9.3-16.3z M10.8-16
			c0.6-0.4,1.3-0.8,1.9-0.9c0.7-0.2,1.4-0.2,2.1-0.2c0.7,0.1,1.4,0.3,2.1,0.6c0.7,0.3,1.3,0.7,1.8,1.3l2.4,2.4
			c0.1,0.1,0.2,0.2,0.2,0.3c0,0.1,0,0.3,0,0.4L21-10.5l1.5,1.5l1-0.1c0.1,0,0.2,0,0.3,0c0.1,0,0.1,0.1,0.2,0.2l0.6,0.6l-2.4,2.4
			l-0.6-0.6c-0.1-0.1-0.2-0.2-0.2-0.2c0-0.1,0-0.2,0-0.3l0.1-1L20-9.5l-1.5,0.3c-0.2,0-0.3,0-0.4,0c-0.1,0-0.2-0.1-0.3-0.2l-2-2
			c-0.1-0.1-0.2-0.2-0.2-0.3c0-0.1,0-0.3,0.1-0.4l0.9-2.1c-0.8-0.7-1.7-1.2-2.6-1.5c-1-0.3-2-0.3-3,0c-0.1,0-0.1,0-0.2,0
			C10.7-15.9,10.7-15.9,10.8-16z"/>
	</g>
	<text transform="matrix(1 0 0 1 1289 1953)" class="st3 st4 st5">Exporting</text>
	<text transform="matrix(1 0 0 1 1289 1971)" class="st3 st6 st5">Symbols should be outlined when exporting to ensure the</text>
	<text transform="matrix(1 0 0 1 1289 1989)" class="st3 st6 st5">design is preserved when submitting to Xcode.</text>
	<text id="template-version" transform="matrix(1 0 0 1 2952.4141 1933)" class="st3 st6 st5">Template v.3.0</text>
	<text transform="matrix(1 0 0 1 2865.4575 1951)" class="st3 st6 st5">Requires Xcode 13 or greater</text>
	<text id="descriptive-name" transform="matrix(1 0 0 1 2872.7065 1969)" class="st3 st6 st5">Generated from face.smiling</text>
	<text transform="matrix(1 0 0 1 2912.4111 1987)" class="st3 st6 st5">Typeset at 100 points</text>
	<text transform="matrix(1 0 0 1 263 726)" class="st3 st6 st5">Small</text>
	<text transform="matrix(1 0 0 1 263 1156)" class="st3 st6 st5">Medium</text>
	<text transform="matrix(1 0 0 1 263 1586)" class="st3 st6 st5">Large</text>
</g>
<g id="Guides" class="st0">
	<g id="H-reference" transform="matrix(1 0 0 1 339 696)" class="st3">
		<path class="st8" d="M1,0h2.6l25.7-67.1H30v-3.3h-1.9L1,0z M11.7-24.5H47l-0.8-2.2H12.4L11.7-24.5z M55.1,0h2.6L30.6-70.5h-1.2
			v3.3L55.1,0z"/>
	</g>
	<line id="Baseline-S" class="st9" x1="263" y1="696" x2="3036" y2="696"/>
	<line id="Capline-S" class="st9" x1="263" y1="625.5" x2="3036" y2="625.5"/>
	<g id="H-reference_00000182523523097862776390000012833211706095919010_" transform="matrix(1 0 0 1 339 1126)" class="st3">
		<path class="st8" d="M1,0h2.6l25.7-67.1H30v-3.3h-1.9L1,0z M11.7-24.5H47l-0.8-2.2H12.4L11.7-24.5z M55.1,0h2.6L30.6-70.5h-1.2
			v3.3L55.1,0z"/>
	</g>
	<line id="Baseline-M" class="st9" x1="263" y1="1126" x2="3036" y2="1126"/>
	<line id="Capline-M" class="st9" x1="263" y1="1055.5" x2="3036" y2="1055.5"/>
	<g id="H-reference_00000152944082042130326360000011548727141024184193_" transform="matrix(1 0 0 1 339 1556)" class="st3">
		<path class="st8" d="M1,0h2.6l25.7-67.1H30v-3.3h-1.9L1,0z M11.7-24.5H47l-0.8-2.2H12.4L11.7-24.5z M55.1,0h2.6L30.6-70.5h-1.2
			v3.3L55.1,0z"/>
	</g>
	<line id="Baseline-L" class="st9" x1="263" y1="1556" x2="3036" y2="1556"/>
	<line id="Capline-L" class="st9" x1="263" y1="1485.5" x2="3036" y2="1485.5"/>
	<line id="left-margin-Regular-M" class="st7" x1="1391.3" y1="1030.8" x2="1391.3" y2="1150.1"/>
	<line id="right-margin-Regular-M" class="st7" x1="1508.4" y1="1030.8" x2="1508.4" y2="1150.1"/>
</g>
<g id="Black-L" transform="matrix(1 0 0 1 2854.05 1556)">
	<path d="M79.3-103.3c7.5,0,14.6,1.2,21.4,3.5c6.8,2.3,13,5.6,18.7,9.7c5.7,4.2,10.6,9.1,14.8,14.8c4.2,5.7,7.4,11.9,9.7,18.7
		c2.3,6.8,3.5,13.9,3.5,21.4c0,7.5-1.2,14.6-3.5,21.4c-2.3,6.8-5.6,13-9.7,18.7c-4.2,5.7-9.1,10.6-14.8,14.8s-11.9,7.4-18.7,9.7
		c-6.8,2.3-13.9,3.4-21.4,3.4c-7.5,0-14.6-1.1-21.4-3.4c-6.8-2.3-13-5.5-18.7-9.7S28.6,10.6,24.4,4.9S17-7,14.7-13.8
		s-3.4-13.9-3.4-21.4c0-7.5,1.1-14.6,3.4-21.4c2.3-6.8,5.5-13,9.7-18.7c4.2-5.7,9.1-10.6,14.8-14.8s11.9-7.4,18.7-9.7
		C64.7-102.1,71.9-103.3,79.3-103.3z M79.3-82.8c-5.3,0-10.3,0.8-15.1,2.4c-4.8,1.6-9.1,3.8-13.1,6.8c-4,2.9-7.4,6.4-10.3,10.3
		c-2.9,4-5.2,8.3-6.8,13.1c-1.6,4.8-2.4,9.8-2.4,15c0,5.3,0.8,10.3,2.4,15.1c1.6,4.8,3.8,9.1,6.8,13.1c2.9,4,6.3,7.4,10.3,10.3
		c4,2.9,8.3,5.2,13.1,6.8c4.8,1.6,9.8,2.4,15,2.4c5.3,0,10.3-0.8,15.1-2.4c4.8-1.6,9.1-3.8,13.1-6.8c4-2.9,7.4-6.3,10.3-10.3
		c2.9-4,5.2-8.3,6.8-13.1c1.6-4.8,2.4-9.8,2.4-15.1c0-5.3-0.8-10.3-2.4-15c-1.6-4.8-3.8-9.1-6.8-13.1c-2.9-4-6.3-7.4-10.3-10.3
		c-4-2.9-8.3-5.2-13.1-6.8C89.6-82,84.6-82.8,79.3-82.8z M79.3-64.4c3.4,0,6.4,0.5,9.2,1.4c2.8,0.9,5.1,2.1,7.1,3.6
		c2,1.4,3.5,2.9,4.6,4.4c1.1,1.5,1.6,2.8,1.6,3.8c0,0.8-0.4,1.4-1.1,1.8c-0.7,0.4-1.5,0.4-2.3,0c-2.4-1-5-2.1-7.9-3.2
		c-2.9-1.1-6.6-1.7-11.2-1.7c-4.6,0-8.3,0.5-11.2,1.6c-2.9,1.1-5.5,2.2-7.9,3.3c-0.8,0.4-1.6,0.4-2.3,0c-0.7-0.4-1-1-1-1.8
		c0-1.1,0.5-2.4,1.6-3.8c1.1-1.5,2.6-2.9,4.6-4.4c2-1.4,4.3-2.6,7.1-3.6C72.8-63.9,75.9-64.4,79.3-64.4z M61-29.3
		c2,0,3.7,0.8,5.1,2.3c1.4,1.6,2.2,3.5,2.2,6c0,2.5-0.7,4.5-2.2,6.1c-1.4,1.6-3.1,2.3-5.1,2.3c-2,0-3.6-0.8-5.1-2.3
		c-1.4-1.6-2.1-3.6-2.1-6.1c0-2.4,0.7-4.4,2.1-6C57.4-28.5,59.1-29.3,61-29.3z M97.5-29.3c2,0,3.7,0.8,5.1,2.3
		c1.5,1.6,2.2,3.5,2.2,6c0,2.5-0.7,4.5-2.2,6.1c-1.5,1.6-3.2,2.3-5.1,2.3c-2,0-3.6-0.8-5.1-2.3c-1.4-1.6-2.1-3.6-2.1-6.1
		c0-2.4,0.7-4.4,2.1-6C93.9-28.5,95.6-29.3,97.5-29.3z"/>
</g>
<g id="Heavy-L" transform="matrix(1 0 0 1 2558.4 1556)">
	<path d="M78.3-102.2c7.4,0,14.4,1.1,21.1,3.4c6.7,2.3,12.8,5.5,18.4,9.6c5.6,4.1,10.4,9,14.6,14.6c4.1,5.6,7.3,11.7,9.6,18.4
		c2.3,6.7,3.4,13.7,3.4,21c0,7.4-1.1,14.4-3.4,21.1c-2.3,6.7-5.5,12.8-9.6,18.4c-4.1,5.6-9,10.4-14.6,14.6
		c-5.6,4.1-11.7,7.3-18.4,9.6c-6.7,2.3-13.7,3.4-21.1,3.4c-7.3,0-14.3-1.1-21-3.4c-6.7-2.3-12.8-5.5-18.4-9.6
		c-5.6-4.1-10.4-9-14.6-14.6c-4.1-5.6-7.3-11.7-9.6-18.4c-2.3-6.7-3.4-13.7-3.4-21.1c0-7.4,1.1-14.4,3.4-21
		c2.3-6.7,5.5-12.8,9.6-18.4c4.1-5.6,9-10.4,14.6-14.6c5.6-4.1,11.7-7.3,18.4-9.6C63.9-101.1,70.9-102.2,78.3-102.2z M78.3-84.5
		c-5.4,0-10.6,0.8-15.6,2.5c-4.9,1.6-9.4,4-13.5,7c-4.1,3-7.6,6.6-10.6,10.7c-3,4.1-5.3,8.6-7,13.5c-1.7,4.9-2.5,10.1-2.5,15.5
		c0,5.5,0.8,10.7,2.5,15.6c1.7,4.9,4,9.4,7,13.5c3,4.1,6.5,7.6,10.6,10.6c4.1,3,8.6,5.3,13.5,7c4.9,1.7,10.1,2.5,15.5,2.5
		c5.5,0,10.7-0.8,15.6-2.5c4.9-1.7,9.4-4,13.5-7S115-2,118-6.1c3-4.1,5.3-8.6,7-13.5c1.7-4.9,2.5-10.1,2.5-15.6
		c0-5.4-0.8-10.6-2.5-15.5c-1.7-4.9-4-9.4-7-13.5c-3-4.1-6.6-7.7-10.6-10.7c-4.1-3-8.6-5.3-13.5-7C88.9-83.7,83.7-84.5,78.3-84.5z
		 M78.2-64.9c3.3,0,6.3,0.5,9.1,1.4c2.7,0.9,5.1,2.1,7,3.5c2,1.4,3.5,2.9,4.5,4.3c1.1,1.5,1.6,2.7,1.6,3.8c0,0.8-0.3,1.4-1,1.7
		c-0.7,0.3-1.4,0.3-2.2,0c-2.3-1.1-5-2.3-7.9-3.4c-2.9-1.1-6.6-1.7-11.2-1.7c-4.6,0-8.3,0.6-11.3,1.7c-2.9,1.1-5.5,2.2-7.8,3.4
		c-0.8,0.4-1.5,0.4-2.2,0c-0.7-0.3-1-0.9-1-1.7c0-1.1,0.5-2.3,1.6-3.8c1.1-1.5,2.6-2.9,4.5-4.3c2-1.4,4.3-2.6,7-3.5
		C71.8-64.4,74.9-64.9,78.2-64.9z M59.9-29.3c1.9,0,3.6,0.8,5.1,2.3c1.4,1.6,2.2,3.5,2.2,6c0,2.4-0.7,4.5-2.2,6
		c-1.4,1.6-3.1,2.4-5.1,2.4c-2,0-3.6-0.8-5.1-2.4c-1.4-1.6-2.1-3.6-2.1-6c0-2.4,0.7-4.4,2.1-6C56.2-28.6,57.9-29.3,59.9-29.3z
		 M96.6-29.3c1.9,0,3.6,0.8,5.1,2.3c1.5,1.6,2.2,3.5,2.2,6c0,2.4-0.7,4.5-2.2,6c-1.5,1.6-3.2,2.4-5.1,2.4c-2,0-3.6-0.8-5.1-2.4
		c-1.4-1.6-2.1-3.6-2.1-6c0-2.4,0.7-4.4,2.1-6C92.9-28.6,94.6-29.3,96.6-29.3z"/>
</g>
<g id="Bold-L" transform="matrix(1 0 0 1 2262.87 1556)">
	<path d="M77.1-101.1c7.2,0,14.1,1.1,20.7,3.4c6.6,2.2,12.6,5.4,18.1,9.4s10.3,8.8,14.3,14.3c4,5.5,7.2,11.5,9.4,18.1
		c2.2,6.6,3.4,13.5,3.4,20.7c0,7.2-1.1,14.1-3.4,20.7c-2.2,6.6-5.4,12.6-9.4,18.1c-4.1,5.5-8.8,10.3-14.3,14.3
		c-5.5,4.1-11.5,7.2-18.1,9.4c-6.6,2.2-13.5,3.3-20.7,3.3c-7.2,0-14.1-1.1-20.7-3.3c-6.6-2.2-12.6-5.4-18.1-9.4S28.1,9,24,3.5
		C20-1.9,16.9-8,14.6-14.5c-2.2-6.6-3.3-13.5-3.3-20.7c0-7.2,1.1-14.1,3.3-20.7C16.9-62.4,20-68.5,24-74c4.1-5.5,8.8-10.3,14.3-14.3
		s11.5-7.2,18.1-9.4C63-100,69.9-101.1,77.1-101.1z M77.1-86.3c-5.6,0-11,0.9-16.1,2.6c-5.1,1.7-9.8,4.1-14,7.3
		c-4.2,3.1-7.9,6.8-11.1,11.1s-5.5,8.9-7.3,14c-1.7,5.1-2.6,10.5-2.6,16.1c0,5.7,0.9,11.1,2.6,16.2c1.7,5.1,4.1,9.8,7.3,14
		s6.8,7.9,11,11c4.2,3.1,8.9,5.5,14,7.2s10.5,2.6,16.1,2.6c5.7,0,11.1-0.9,16.2-2.6c5.1-1.7,9.8-4.1,14.1-7.2c4.3-3.1,8-6.8,11.1-11
		c3.1-4.2,5.5-8.9,7.3-14s2.6-10.5,2.6-16.2s-0.9-11-2.6-16.1c-1.7-5.1-4.1-9.8-7.3-14c-3.1-4.3-6.8-8-11.1-11.1
		c-4.2-3.1-8.9-5.5-14-7.3C88.2-85.4,82.8-86.3,77.1-86.3z M77.1-65.4c3.3,0,6.3,0.5,9,1.4c2.7,0.9,5,2.1,7,3.5
		c2,1.4,3.5,2.8,4.5,4.3c1.1,1.4,1.6,2.7,1.6,3.7c0,0.7-0.3,1.3-0.9,1.6c-0.6,0.3-1.3,0.3-2,0c-2.3-1.2-4.9-2.4-7.8-3.5
		c-2.9-1.2-6.7-1.7-11.3-1.7c-4.6,0-8.3,0.6-11.3,1.7c-3,1.1-5.6,2.3-7.8,3.6c-0.7,0.3-1.4,0.3-2,0c-0.6-0.3-0.9-0.8-0.9-1.6
		c0-1,0.5-2.3,1.6-3.7c1.1-1.4,2.6-2.9,4.5-4.3c1.9-1.4,4.3-2.6,7-3.5C70.8-64.9,73.8-65.4,77.1-65.4z M58.5-29.4
		c2,0,3.7,0.8,5.1,2.4c1.4,1.6,2.2,3.6,2.2,6c0,2.4-0.7,4.5-2.2,6c-1.4,1.6-3.1,2.4-5.1,2.4c-1.9,0-3.6-0.8-5-2.4
		c-1.4-1.6-2.1-3.6-2.1-6c0-2.4,0.7-4.4,2.1-6C55-28.6,56.6-29.4,58.5-29.4z M95.6-29.4c1.9,0,3.6,0.8,5.1,2.4
		c1.5,1.6,2.2,3.6,2.2,6c0,2.4-0.7,4.5-2.2,6c-1.4,1.6-3.1,2.4-5.1,2.4c-1.9,0-3.6-0.8-5-2.4c-1.4-1.6-2.1-3.6-2.1-6
		c0-2.4,0.7-4.4,2.1-6C92-28.6,93.6-29.4,95.6-29.4z"/>
</g>
<g id="Semibold-L" transform="matrix(1 0 0 1 1966.97 1556)">
	<path d="M76.3-100.3c7.1,0,13.9,1.1,20.4,3.3c6.5,2.2,12.4,5.3,17.9,9.3c5.4,4,10.1,8.7,14.1,14.1c4,5.4,7.1,11.4,9.3,17.9
		c2.2,6.5,3.3,13.3,3.3,20.4s-1.1,13.9-3.3,20.4c-2.2,6.5-5.3,12.4-9.3,17.8c-4,5.4-8.7,10.1-14.1,14.1c-5.4,4-11.4,7.1-17.9,9.3
		c-6.5,2.2-13.3,3.3-20.4,3.3c-7.1,0-13.9-1.1-20.4-3.3c-6.5-2.2-12.4-5.3-17.8-9.3c-5.4-4-10.1-8.7-14.1-14.1
		c-4-5.4-7.1-11.4-9.3-17.8s-3.3-13.3-3.3-20.4s1.1-13.9,3.3-20.4c2.2-6.5,5.3-12.4,9.3-17.9c4-5.4,8.7-10.1,14.1-14.1
		c5.4-4,11.4-7.1,17.8-9.3C62.3-99.2,69.1-100.3,76.3-100.3z M76.3-87.5c-5.8,0-11.3,0.9-16.5,2.6c-5.2,1.8-10,4.2-14.4,7.4
		c-4.3,3.2-8.1,7-11.3,11.3c-3.2,4.4-5.7,9.2-7.4,14.4C24.9-46.6,24-41,24-35.3s0.9,11.3,2.6,16.6c1.7,5.2,4.2,10,7.4,14.4
		C37.2,0,41,3.8,45.3,7c4.3,3.2,9.1,5.7,14.4,7.4C65,16.2,70.5,17,76.2,17c5.8,0,11.4-0.9,16.6-2.6c5.2-1.8,10-4.2,14.4-7.4
		c4.4-3.2,8.1-7,11.3-11.3c3.2-4.3,5.7-9.1,7.4-14.4c1.8-5.2,2.6-10.8,2.6-16.6c0-5.8-0.8-11.3-2.6-16.5c-1.7-5.2-4.2-10-7.4-14.4
		c-3.2-4.4-7-8.1-11.4-11.3c-4.4-3.2-9.2-5.7-14.4-7.4C87.6-86.7,82.1-87.5,76.3-87.5z M76.2-65.8c3.3,0,6.3,0.5,9,1.4
		c2.7,0.9,5,2.1,6.9,3.5c1.9,1.4,3.4,2.8,4.5,4.3c1.1,1.4,1.6,2.7,1.6,3.7c0,0.7-0.3,1.3-0.9,1.5c-0.6,0.3-1.2,0.3-1.9-0.1
		c-2.2-1.2-4.9-2.4-7.8-3.6c-3-1.2-6.8-1.7-11.4-1.7c-4.5,0-8.3,0.6-11.3,1.7c-3,1.2-5.6,2.4-7.8,3.6c-0.7,0.3-1.3,0.3-1.9,0.1
		c-0.6-0.3-0.9-0.8-0.9-1.5c0-1,0.5-2.2,1.6-3.7c1-1.4,2.5-2.9,4.5-4.3c1.9-1.4,4.2-2.6,6.9-3.5C70-65.4,73-65.8,76.2-65.8z
		 M57.7-29.4c1.9,0,3.6,0.8,5.1,2.3c1.4,1.6,2.2,3.5,2.2,6c0,2.4-0.7,4.5-2.2,6c-1.4,1.6-3.1,2.4-5.1,2.4c-1.9,0-3.6-0.8-5-2.4
		c-1.4-1.6-2.1-3.6-2.1-6c0-2.4,0.7-4.4,2.1-6C54.1-28.7,55.7-29.4,57.7-29.4z M94.9-29.4c1.9,0,3.6,0.8,5,2.3
		c1.5,1.6,2.2,3.5,2.2,6c0,2.4-0.7,4.5-2.2,6c-1.4,1.6-3.1,2.4-5.1,2.4c-2,0-3.6-0.8-5.1-2.4c-1.4-1.6-2.1-3.6-2.1-6
		c0-2.4,0.7-4.4,2.1-6C91.3-28.7,93-29.4,94.9-29.4z"/>
</g>
<g id="Medium-L" transform="matrix(1 0 0 1 1670.87 1556)">
	<path d="M75.7-99.7c7,0,13.8,1.1,20.2,3.3c6.4,2.2,12.3,5.3,17.7,9.2c5.4,4,10.1,8.6,14,14c4,5.4,7,11.3,9.2,17.7
		c2.2,6.4,3.3,13.2,3.3,20.2c0,7.1-1.1,13.8-3.3,20.2c-2.2,6.4-5.3,12.3-9.3,17.7c-4,5.4-8.6,10-14,14c-5.4,4-11.3,7-17.7,9.2
		c-6.4,2.2-13.2,3.3-20.2,3.3c-7.1,0-13.8-1.1-20.2-3.3c-6.4-2.2-12.3-5.3-17.7-9.2c-5.4-4-10-8.6-14-14c-4-5.4-7-11.3-9.2-17.7
		c-2.2-6.4-3.3-13.2-3.3-20.2c0-7,1.1-13.8,3.3-20.2c2.2-6.4,5.2-12.3,9.2-17.7c4-5.4,8.6-10,14-14c5.4-4,11.3-7,17.7-9.2
		C61.9-98.6,68.6-99.7,75.7-99.7z M75.7-88.5c-5.9,0-11.5,0.9-16.8,2.7c-5.3,1.8-10.2,4.3-14.6,7.6C39.8-75,36-71.2,32.7-66.7
		c-3.3,4.4-5.8,9.3-7.6,14.6c-1.8,5.3-2.7,10.9-2.7,16.8c0,5.9,0.9,11.5,2.7,16.9c1.8,5.3,4.3,10.2,7.5,14.6
		c3.3,4.4,7.1,8.3,11.5,11.5s9.3,5.8,14.6,7.5c5.3,1.8,11,2.7,16.8,2.7c5.9,0,11.5-0.9,16.8-2.7c5.3-1.8,10.2-4.3,14.6-7.5
		s8.3-7.1,11.5-11.5c3.3-4.4,5.8-9.3,7.6-14.6c1.8-5.3,2.7-10.9,2.7-16.9c0-5.9-0.8-11.5-2.6-16.8c-1.8-5.3-4.3-10.2-7.6-14.6
		c-3.3-4.4-7.1-8.3-11.5-11.5c-4.4-3.3-9.3-5.8-14.6-7.6C87.2-87.6,81.6-88.5,75.7-88.5z M75.6-66.1c3.2,0,6.2,0.5,8.8,1.4
		s5,2.1,6.9,3.5c1.9,1.4,3.4,2.8,4.5,4.2s1.6,2.7,1.6,3.7c0,0.7-0.3,1.2-0.9,1.5c-0.6,0.3-1.2,0.2-1.8,0c-2.2-1.3-4.8-2.5-7.8-3.7
		c-3-1.2-6.8-1.8-11.3-1.8c-4.6,0-8.3,0.6-11.3,1.8c-3,1.2-5.6,2.4-7.8,3.7c-0.7,0.3-1.3,0.3-1.8,0.1c-0.6-0.3-0.8-0.8-0.8-1.5
		c0-1,0.5-2.2,1.6-3.7c1-1.4,2.5-2.8,4.4-4.2c1.9-1.4,4.2-2.6,6.9-3.5C69.4-65.6,72.4-66.1,75.6-66.1z M56.9-29.5
		c2,0,3.7,0.8,5.1,2.4c1.4,1.6,2.2,3.6,2.2,6c0,2.4-0.7,4.5-2.2,6c-1.4,1.6-3.1,2.4-5.1,2.4c-1.9,0-3.5-0.8-5-2.4
		c-1.4-1.6-2.1-3.6-2.1-6c0-2.4,0.7-4.4,2.1-6C53.4-28.7,55-29.5,56.9-29.5z M94.3-29.5c1.9,0,3.6,0.8,5.1,2.4
		c1.4,1.6,2.2,3.6,2.2,6c0,2.4-0.7,4.5-2.1,6c-1.4,1.6-3.1,2.4-5.1,2.4c-1.9,0-3.6-0.8-5-2.4s-2.1-3.6-2.1-6c0-2.4,0.7-4.4,2.1-6
		C90.7-28.7,92.4-29.5,94.3-29.5z"/>
</g>
<g id="Regular-L" transform="matrix(1 0 0 1 1374.97 1556)">
	<path d="M74.9-98.9c7,0,13.6,1.1,19.9,3.2c6.3,2.2,12.2,5.2,17.5,9.1c5.3,3.9,9.9,8.5,13.8,13.8c3.9,5.3,7,11.1,9.1,17.5
		c2.2,6.3,3.2,13,3.2,19.9c0,7-1.1,13.6-3.2,19.9C133.1-9,130-3.2,126.1,2.1c-3.9,5.3-8.5,9.9-13.8,13.8c-5.3,3.9-11.1,7-17.5,9.1
		c-6.3,2.2-13,3.2-20,3.2c-7,0-13.6-1.1-19.9-3.2c-6.3-2.2-12.1-5.2-17.4-9.1C32.1,12,27.5,7.4,23.6,2.1c-3.9-5.3-7-11.1-9.1-17.5
		c-2.1-6.3-3.2-13-3.2-19.9c0-6.9,1.1-13.6,3.2-19.9c2.2-6.3,5.2-12.2,9.1-17.5c3.9-5.3,8.5-9.9,13.8-13.8s11.1-6.9,17.5-9.1
		C61.2-97.8,67.9-98.9,74.9-98.9z M74.9-89.8c-6,0-11.8,0.9-17.2,2.8c-5.5,1.8-10.4,4.4-15,7.7C38.2-76,34.2-72,30.9-67.5
		c-3.3,4.5-5.9,9.5-7.7,15c-1.8,5.5-2.7,11.2-2.7,17.2c0,6.1,0.9,11.8,2.7,17.3c1.8,5.5,4.4,10.4,7.7,15c3.3,4.5,7.2,8.5,11.8,11.8
		c4.5,3.3,9.5,5.9,15,7.7c5.5,1.8,11.2,2.7,17.2,2.7c6.1,0,11.8-0.9,17.3-2.7c5.5-1.8,10.4-4.4,15-7.7c4.5-3.3,8.5-7.3,11.8-11.8
		c3.3-4.5,5.9-9.5,7.7-15c1.8-5.5,2.8-11.2,2.8-17.3c0-6-0.9-11.8-2.7-17.2c-1.8-5.5-4.4-10.4-7.7-15c-3.3-4.5-7.3-8.5-11.8-11.8
		c-4.5-3.3-9.5-5.9-15-7.7C86.7-88.9,80.9-89.8,74.9-89.8z M74.8-66.5c3.2,0,6.2,0.5,8.8,1.4s4.9,2.1,6.8,3.5
		c1.9,1.4,3.4,2.8,4.4,4.2c1,1.4,1.6,2.6,1.6,3.6c0,0.7-0.3,1.1-0.8,1.4c-0.5,0.2-1.1,0.2-1.6-0.1c-2.2-1.4-4.8-2.6-7.8-3.8
		c-3-1.2-6.8-1.8-11.4-1.8c-4.5,0-8.3,0.6-11.3,1.8c-3,1.2-5.6,2.4-7.8,3.8c-0.6,0.3-1.1,0.3-1.7,0.1c-0.5-0.2-0.8-0.7-0.8-1.4
		c0-1,0.5-2.2,1.5-3.6c1-1.4,2.5-2.8,4.4-4.2c1.9-1.4,4.2-2.6,6.9-3.5C68.7-66,71.6-66.5,74.8-66.5z M56.1-29.5
		c1.9,0,3.6,0.8,5.1,2.4c1.4,1.6,2.2,3.6,2.2,6c0,2.4-0.7,4.4-2.2,6c-1.4,1.6-3.1,2.4-5.1,2.4c-1.9,0-3.5-0.8-5-2.4
		c-1.4-1.6-2.1-3.6-2.1-6c0-2.4,0.7-4.4,2.1-6C52.5-28.8,54.2-29.5,56.1-29.5z M93.6-29.5c1.9,0,3.6,0.8,5,2.4
		c1.4,1.6,2.2,3.6,2.2,6c0,2.4-0.7,4.4-2.1,6c-1.4,1.6-3.1,2.4-5,2.4c-1.9,0-3.6-0.8-5-2.4c-1.4-1.6-2.1-3.6-2.1-6
		c0-2.4,0.7-4.4,2.1-6C90.1-28.8,91.7-29.5,93.6-29.5z"/>
</g>
<g id="Light-L" transform="matrix(1 0 0 1 1079.18 1556)">
	<path d="M73.9-97.9c6.9,0,13.4,1.1,19.7,3.2c6.3,2.1,12,5.1,17.2,9c5.2,3.8,9.8,8.4,13.6,13.6c3.9,5.2,6.9,11,9,17.2
		c2.1,6.2,3.2,12.8,3.2,19.7s-1.1,13.4-3.2,19.7s-5.1,12-9,17.2c-3.9,5.2-8.4,9.8-13.6,13.6c-5.2,3.9-11,6.9-17.2,9
		c-6.3,2.1-12.8,3.2-19.7,3.2c-6.9,0-13.4-1.1-19.7-3.2c-6.2-2.1-12-5.1-17.2-9S27.3,6.8,23.4,1.6c-3.9-5.2-6.8-11-9-17.2
		c-2.1-6.2-3.2-12.8-3.2-19.7s1.1-13.4,3.2-19.7c2.1-6.3,5.1-12,9-17.2c3.8-5.2,8.4-9.8,13.6-13.6c5.2-3.8,11-6.8,17.2-9
		C60.5-96.9,67.1-97.9,73.9-97.9z M73.9-91.1c-6.2,0-12,0.9-17.6,2.8c-5.6,1.9-10.7,4.5-15.3,7.9c-4.6,3.4-8.7,7.4-12.1,12.1
		c-3.4,4.6-6,9.7-7.9,15.3c-1.9,5.6-2.8,11.5-2.8,17.6c0,6.2,0.9,12.1,2.8,17.6c1.9,5.6,4.5,10.7,7.9,15.3C32.3,2.3,36.4,6.3,41,9.7
		c4.6,3.4,9.7,6,15.3,7.9s11.4,2.8,17.6,2.8c6.2,0,12.1-0.9,17.7-2.8c5.6-1.9,10.7-4.5,15.3-7.9c4.6-3.4,8.7-7.4,12.1-12.1
		s6.1-9.8,7.9-15.3c1.9-5.6,2.8-11.4,2.8-17.6c0-6.2-0.9-12-2.8-17.6c-1.9-5.6-4.5-10.7-7.9-15.3s-7.4-8.7-12.1-12.1
		c-4.6-3.4-9.7-6-15.3-7.9C86-90.1,80.1-91.1,73.9-91.1z M73.9-66.1c3.1,0,6,0.5,8.5,1.4c2.6,0.9,4.8,2.1,6.7,3.4
		c1.9,1.4,3.3,2.7,4.3,4.1c1,1.4,1.5,2.6,1.5,3.5c0,0.6-0.2,0.9-0.7,1.1c-0.4,0.2-0.9,0.1-1.3-0.1c-2-1.5-4.6-2.9-7.7-4.1
		c-3.1-1.2-6.9-1.8-11.4-1.8c-4.5,0-8.3,0.6-11.4,1.8c-3.1,1.2-5.7,2.6-7.7,4.1c-0.4,0.3-0.9,0.3-1.3,0.1c-0.4-0.2-0.7-0.5-0.7-1.1
		c0-1,0.5-2.2,1.5-3.5c1-1.4,2.5-2.8,4.3-4.1c1.9-1.4,4.1-2.5,6.7-3.4C68-65.6,70.8-66.1,73.9-66.1z M55-29.3c1.8,0,3.4,0.8,4.7,2.3
		c1.4,1.5,2.1,3.4,2.1,5.7c0,2.3-0.7,4.2-2,5.7c-1.4,1.5-2.9,2.3-4.8,2.3c-1.8,0-3.3-0.8-4.6-2.3c-1.3-1.5-2-3.4-2-5.7
		c0-2.2,0.7-4.1,2-5.7C51.7-28.6,53.3-29.3,55-29.3z M92.8-29.3c1.8,0,3.3,0.8,4.7,2.3c1.4,1.5,2,3.4,2,5.7c0,2.3-0.7,4.2-2,5.7
		c-1.3,1.5-2.9,2.3-4.7,2.3c-1.8,0-3.4-0.8-4.7-2.3c-1.3-1.5-2-3.4-2-5.7c0-2.2,0.7-4.1,2-5.7C89.5-28.6,91-29.3,92.8-29.3z"/>
</g>
<g id="Thin-L" transform="matrix(1 0 0 1 783.689 1556)">
	<path d="M72.7-96.7c6.8,0,13.2,1,19.3,3.1c6.1,2.1,11.7,5,16.9,8.8c5.1,3.8,9.6,8.2,13.4,13.3s6.7,10.8,8.8,16.9
		c2.1,6.1,3.1,12.6,3.1,19.3c0,6.8-1,13.2-3.1,19.3c-2.1,6.1-5,11.7-8.8,16.9c-3.8,5.1-8.2,9.6-13.4,13.4C103.8,18,98.2,21,92,23
		c-6.1,2.1-12.6,3.1-19.3,3.1c-6.8,0-13.2-1-19.3-3.1c-6.1-2.1-11.7-5-16.9-8.8C31.4,10.5,26.9,6,23.2,0.9
		C19.4-4.2,16.5-9.8,14.4-16c-2.1-6.1-3.1-12.6-3.1-19.3c0-6.7,1-13.2,3.1-19.3c2.1-6.1,5-11.8,8.8-16.9c3.8-5.1,8.2-9.6,13.4-13.3
		c5.1-3.8,10.8-6.7,16.9-8.8C59.5-95.7,66-96.7,72.7-96.7z M72.7-92.7c-6.3,0-12.3,1-18.1,2.9c-5.7,1.9-11,4.7-15.8,8.2
		C34-78.1,29.9-74,26.3-69.2c-3.5,4.8-6.3,10.1-8.2,15.8c-1.9,5.7-2.9,11.8-2.9,18.1c0,6.3,1,12.4,2.9,18.1c1.9,5.7,4.6,11,8.2,15.8
		c3.5,4.8,7.7,8.9,12.5,12.5c4.8,3.5,10,6.2,15.8,8.2c5.7,1.9,11.8,2.9,18.1,2.9c6.3,0,12.4-1,18.1-2.9c5.7-1.9,11-4.7,15.8-8.2
		c4.8-3.5,9-7.7,12.5-12.5c3.5-4.8,6.2-10.1,8.2-15.8c1.9-5.7,2.9-11.8,2.9-18.1c0-6.3-1-12.3-2.9-18.1c-1.9-5.7-4.7-11-8.2-15.8
		c-3.5-4.8-7.7-8.9-12.5-12.5c-4.8-3.5-10.1-6.2-15.8-8.2C85.1-91.8,79.1-92.7,72.7-92.7z M72.8-65.4c3,0,5.7,0.4,8.2,1.3
		c2.5,0.9,4.6,2,6.5,3.3c1.8,1.3,3.2,2.7,4.2,4c1,1.3,1.5,2.5,1.5,3.4c0,0.4-0.2,0.7-0.5,0.8c-0.3,0.1-0.6,0-0.8-0.2
		c-1.8-1.7-4.3-3.2-7.6-4.5c-3.2-1.3-7-1.9-11.5-1.9c-4.5,0-8.3,0.6-11.5,1.9c-3.2,1.3-5.7,2.8-7.6,4.5c-0.3,0.2-0.5,0.3-0.9,0.2
		c-0.3-0.1-0.5-0.3-0.5-0.8c0-0.9,0.5-2,1.5-3.4c1-1.3,2.4-2.7,4.2-4c1.8-1.3,4-2.4,6.5-3.3C67-65,69.8-65.4,72.8-65.4z M53.7-29.1
		c1.6,0,3,0.7,4.3,2.2c1.3,1.4,1.9,3.2,1.9,5.3c0,2.1-0.6,3.8-1.9,5.3c-1.3,1.4-2.7,2.2-4.3,2.2c-1.6,0-3.1-0.7-4.3-2.2
		c-1.2-1.4-1.8-3.2-1.8-5.3c0-2.1,0.6-3.8,1.8-5.3C50.7-28.4,52.1-29.1,53.7-29.1z M91.7-29.1c1.6,0,3,0.7,4.2,2.2
		c1.2,1.4,1.9,3.2,1.9,5.3c0,2.1-0.6,3.8-1.8,5.3c-1.2,1.4-2.6,2.2-4.3,2.2c-1.6,0-3.1-0.7-4.3-2.2c-1.3-1.4-1.9-3.2-1.9-5.3
		c0-2.1,0.6-3.8,1.9-5.3C88.7-28.4,90.2-29.1,91.7-29.1z"/>
</g>
<g id="Ultralight-L" transform="matrix(1 0 0 1 487.603 1556)">
	<path d="M72.1-96.1c6.7,0,13.1,1,19.2,3.1c6.1,2.1,11.6,4.9,16.7,8.7c5.1,3.7,9.5,8.1,13.2,13.2c3.7,5.1,6.6,10.6,8.7,16.7
		c2.1,6.1,3.1,12.4,3.1,19.1s-1,13.1-3.1,19.2c-2.1,6.1-5,11.6-8.7,16.7C117.4,5.6,113,10,108,13.8c-5.1,3.7-10.7,6.6-16.7,8.7
		c-6.1,2.1-12.5,3.1-19.2,3.1c-6.7,0-13-1-19.1-3.1c-6.1-2.1-11.6-4.9-16.7-8.7C31.2,10,26.7,5.6,23,0.6c-3.7-5.1-6.6-10.6-8.7-16.7
		c-2.1-6.1-3.1-12.5-3.1-19.2s1-13.1,3.1-19.1c2.1-6.1,4.9-11.6,8.7-16.7c3.7-5.1,8.1-9.5,13.2-13.2C41.3-88.1,46.9-91,53-93
		C59-95.1,65.4-96.1,72.1-96.1z M72.1-93.6c-6.4,0-12.5,1-18.4,3c-5.8,2-11.2,4.7-16,8.3c-4.9,3.6-9.1,7.8-12.6,12.6
		s-6.3,10.2-8.3,16c-2,5.8-3,11.9-3,18.4c0,6.4,1,12.6,3,18.4s4.7,11.1,8.3,16c3.6,4.9,7.8,9.1,12.7,12.7c4.9,3.6,10.2,6.4,16,8.3
		c5.8,2,11.9,3,18.3,3c6.4,0,12.6-1,18.4-3c5.8-2,11.2-4.7,16-8.3c4.9-3.6,9.1-7.8,12.6-12.7c3.6-4.9,6.4-10.2,8.3-16
		c2-5.8,3-11.9,3-18.4c0-6.4-1-12.5-3-18.4c-2-5.8-4.7-11.2-8.3-16c-3.6-4.9-7.8-9.1-12.6-12.6c-4.9-3.6-10.2-6.3-16-8.3
		C84.7-92.6,78.5-93.6,72.1-93.6z M72.1-65.1c2.9,0,5.6,0.4,8.1,1.3c2.4,0.9,4.6,2,6.3,3.3c1.8,1.3,3.2,2.6,4.2,4
		c1,1.3,1.5,2.4,1.5,3.3c0,0.4-0.1,0.6-0.4,0.6c-0.2,0-0.4,0-0.6-0.2c-1.7-1.8-4.2-3.4-7.5-4.7c-3.3-1.3-7.1-2-11.6-2
		c-4.4,0-8.2,0.7-11.5,2c-3.3,1.3-5.8,2.9-7.5,4.7c-0.2,0.2-0.4,0.3-0.6,0.2c-0.2,0-0.4-0.2-0.4-0.6c0-0.8,0.5-1.9,1.5-3.3
		c1-1.3,2.4-2.7,4.2-4c1.8-1.3,3.9-2.4,6.4-3.3C66.5-64.7,69.2-65.1,72.1-65.1z M53-29c1.5,0,2.9,0.7,4.1,2.1
		c1.2,1.4,1.8,3.1,1.8,5.1c0,2-0.6,3.6-1.8,5.1c-1.2,1.4-2.6,2.1-4.1,2.1c-1.6,0-2.9-0.7-4.1-2.1c-1.2-1.4-1.7-3.1-1.7-5.1
		c0-2,0.6-3.7,1.8-5.1C50.1-28.2,51.5-29,53-29z M91.2-29c1.5,0,2.9,0.7,4.1,2.1s1.8,3.1,1.8,5.1c0,2-0.6,3.6-1.7,5.1
		c-1.1,1.4-2.5,2.1-4.1,2.1c-1.6,0-2.9-0.7-4.1-2.1c-1.2-1.4-1.8-3.1-1.8-5.1c0-2,0.6-3.7,1.8-5.1C88.3-28.2,89.7-29,91.2-29z"/>
</g>
<g id="Black-M" transform="matrix(1 0 0 1 2871.32 1126)">
	<path d="M62.1-88.5c7.4,0,14.3,1.4,20.7,4.2c6.4,2.8,12.1,6.6,17,11.5c4.9,4.9,8.7,10.6,11.5,17c2.8,6.4,4.2,13.3,4.2,20.7
		c0,7.4-1.4,14.2-4.2,20.7c-2.8,6.4-6.6,12.1-11.5,17c-4.9,4.9-10.5,8.7-17,11.5c-6.4,2.8-13.3,4.2-20.7,4.2
		c-7.3,0-14.2-1.4-20.7-4.2c-6.4-2.8-12.1-6.6-17-11.5c-4.9-4.9-8.7-10.6-11.5-17C10.1-21,8.7-27.8,8.7-35.2
		c0-7.4,1.4-14.2,4.2-20.7c2.8-6.4,6.6-12.1,11.5-17c4.9-4.9,10.6-8.7,17-11.5C47.9-87.1,54.7-88.5,62.1-88.5z M62.1-71.1
		c-4.9,0-9.6,0.9-13.9,2.8c-4.3,1.9-8.2,4.4-11.5,7.7c-3.3,3.3-5.9,7.1-7.7,11.5c-1.9,4.3-2.8,9-2.8,14s0.9,9.6,2.8,14
		c1.9,4.3,4.4,8.2,7.7,11.5c3.3,3.3,7.1,5.9,11.5,7.7c4.3,1.9,9,2.8,13.9,2.8c5,0,9.6-0.9,14-2.8c4.3-1.9,8.2-4.4,11.5-7.7
		c3.3-3.3,5.9-7.1,7.7-11.5c1.9-4.3,2.8-9,2.8-14s-0.9-9.6-2.8-14c-1.9-4.3-4.5-8.2-7.7-11.5c-3.3-3.3-7.1-5.9-11.5-7.7
		S67-71.1,62.1-71.1z M62.1-57.2c3.5,0,6.5,0.6,9.1,1.9c2.6,1.2,4.6,2.7,6.1,4.3c1.4,1.6,2.2,3,2.2,4.1c0,0.7-0.3,1.1-0.8,1.4
		c-0.5,0.3-1.1,0.3-1.8,0c-1.9-0.8-3.9-1.7-6.2-2.5c-2.2-0.9-5.1-1.3-8.6-1.3c-3.5,0-6.4,0.4-8.7,1.2c-2.2,0.8-4.3,1.7-6.1,2.6
		c-0.7,0.3-1.2,0.3-1.8,0c-0.5-0.3-0.8-0.7-0.8-1.4c0-1.1,0.7-2.5,2.1-4.1c1.4-1.6,3.5-3,6.1-4.3C55.5-56.6,58.6-57.2,62.1-57.2z
		 M47.9-30.5c1.5,0,2.8,0.6,3.9,1.8c1.1,1.2,1.7,2.7,1.7,4.5c0,1.9-0.6,3.4-1.7,4.6c-1.1,1.2-2.4,1.8-3.9,1.8
		c-1.5,0-2.7-0.6-3.8-1.8c-1.1-1.2-1.6-2.7-1.6-4.6c0-1.8,0.5-3.3,1.6-4.5C45.2-29.9,46.5-30.5,47.9-30.5z M76.1-30.5
		c1.4,0,2.7,0.6,3.8,1.8c1.1,1.2,1.7,2.7,1.7,4.5c0,1.9-0.6,3.4-1.7,4.6c-1.1,1.2-2.4,1.8-3.8,1.8c-1.5,0-2.8-0.6-3.9-1.8
		c-1.1-1.2-1.6-2.7-1.6-4.6c0-1.8,0.5-3.3,1.6-4.5C73.3-29.9,74.6-30.5,76.1-30.5z"/>
</g>
<g id="Heavy-M" transform="matrix(1 0 0 1 2575.44 1126)">
	<path d="M61.2-87.7c7.2,0,14,1.4,20.4,4.1c6.3,2.7,11.9,6.5,16.7,11.3c4.8,4.8,8.6,10.4,11.3,16.7c2.8,6.3,4.1,13.1,4.1,20.3
		c0,7.2-1.4,14-4.1,20.3S103.1-3,98.3,1.9c-4.8,4.8-10.4,8.6-16.7,11.3c-6.3,2.7-13.1,4.1-20.4,4.1c-7.2,0-14-1.4-20.3-4.1
		C34.6,10.5,29,6.7,24.2,1.9C19.4-3,15.6-8.5,12.8-14.9C10.1-21.2,8.7-28,8.7-35.2c0-7.2,1.4-14,4.1-20.3
		c2.7-6.3,6.5-11.9,11.3-16.7c4.8-4.8,10.4-8.6,16.7-11.3C47.3-86.3,54-87.7,61.2-87.7z M61.2-72.5c-5.1,0-10,1-14.5,2.9
		s-8.5,4.6-11.9,8c-3.4,3.4-6.1,7.4-8,11.9c-1.9,4.5-2.9,9.3-2.9,14.5c0,5.2,1,10,2.9,14.5c1.9,4.5,4.6,8.5,8,11.9
		c3.4,3.4,7.4,6.1,11.9,8c4.5,1.9,9.3,2.9,14.5,2.9c5.1,0,10-1,14.5-2.9c4.5-1.9,8.5-4.6,11.9-8c3.4-3.4,6.1-7.4,8-11.9
		c1.9-4.5,2.9-9.4,2.9-14.5c0-5.1-1-10-2.9-14.5c-1.9-4.5-4.6-8.5-8-11.9c-3.4-3.4-7.4-6.1-11.9-8S66.4-72.5,61.2-72.5z M61.2-57.8
		c3.5,0,6.5,0.6,9.1,1.9c2.6,1.2,4.6,2.7,6.1,4.3c1.4,1.6,2.2,3,2.2,4.1c0,0.7-0.3,1.1-0.8,1.3c-0.5,0.2-1.1,0.3-1.7,0
		c-1.9-0.9-3.9-1.7-6.2-2.6c-2.2-0.9-5.1-1.3-8.7-1.3c-3.5,0-6.4,0.4-8.7,1.3c-2.2,0.8-4.3,1.7-6.1,2.6c-0.6,0.3-1.2,0.3-1.7,0
		c-0.5-0.3-0.8-0.7-0.8-1.4c0-1.1,0.7-2.5,2.1-4.1c1.4-1.6,3.5-3,6.1-4.3C54.7-57.2,57.7-57.8,61.2-57.8z M47-30.6
		c1.5,0,2.8,0.6,3.9,1.8c1.1,1.2,1.7,2.7,1.7,4.5c0,1.9-0.6,3.4-1.7,4.6c-1.1,1.2-2.4,1.8-3.9,1.8c-1.5,0-2.7-0.6-3.8-1.8
		c-1.1-1.2-1.6-2.8-1.6-4.6c0-1.8,0.5-3.3,1.6-4.5C44.2-30,45.5-30.6,47-30.6z M75.3-30.6c1.5,0,2.8,0.6,3.9,1.8
		c1.1,1.2,1.7,2.7,1.7,4.5c0,1.9-0.6,3.4-1.7,4.6c-1.1,1.2-2.4,1.8-3.9,1.8c-1.5,0-2.8-0.6-3.9-1.8c-1.1-1.2-1.6-2.8-1.6-4.6
		c0-1.8,0.5-3.3,1.6-4.5C72.6-30,73.8-30.6,75.3-30.6z"/>
</g>
<g id="Bold-M" transform="matrix(1 0 0 1 2279.66 1126)">
	<path d="M60.3-86.8c7.1,0,13.8,1.3,20,4c6.2,2.7,11.7,6.4,16.4,11.2c4.7,4.8,8.5,10.2,11.2,16.5c2.7,6.2,4.1,12.9,4.1,20
		c0,7.1-1.4,13.7-4.1,19.9c-2.7,6.2-6.4,11.7-11.2,16.5C92,5.9,86.5,9.6,80.2,12.3s-12.9,4-19.9,4s-13.7-1.3-19.9-4
		C34.1,9.6,28.6,5.9,23.9,1.2c-4.7-4.8-8.4-10.2-11.1-16.5c-2.7-6.2-4-12.9-4-19.9c0-7.1,1.3-13.8,4-20c2.7-6.2,6.4-11.7,11.2-16.5
		s10.2-8.5,16.5-11.2C46.6-85.5,53.2-86.8,60.3-86.8z M60.3-74c-5.3,0-10.4,1-15,3c-4.7,2-8.8,4.8-12.4,8.3
		c-3.5,3.5-6.3,7.6-8.3,12.3c-2,4.7-3,9.7-3,15.1c0,5.4,1,10.4,3,15.1c2,4.7,4.8,8.8,8.3,12.3c3.5,3.5,7.7,6.3,12.3,8.3
		c4.7,2,9.7,3,15.1,3c5.4,0,10.4-1,15.1-3c4.7-2,8.8-4.8,12.3-8.3c3.5-3.5,6.3-7.7,8.3-12.3c2-4.7,3-9.7,3-15.1c0-5.4-1-10.4-3-15.1
		c-2-4.7-4.8-8.8-8.3-12.3c-3.5-3.5-7.7-6.3-12.4-8.3C70.7-73,65.7-74,60.3-74z M60.3-58.4c3.5,0,6.5,0.6,9.1,1.8
		c2.6,1.2,4.6,2.6,6,4.2c1.4,1.6,2.1,2.9,2.1,4.1c0,0.6-0.3,1-0.8,1.3c-0.5,0.2-1,0.3-1.6,0c-1.8-0.9-3.9-1.8-6.1-2.7
		c-2.3-0.9-5.2-1.3-8.7-1.3c-3.5,0-6.5,0.4-8.7,1.3c-2.3,0.9-4.3,1.8-6.1,2.7c-0.6,0.3-1.1,0.3-1.6,0c-0.5-0.3-0.7-0.7-0.7-1.3
		c0-1.1,0.7-2.5,2.1-4.1c1.4-1.6,3.4-3,6-4.2C53.9-57.8,56.9-58.4,60.3-58.4z M46-30.7c1.5,0,2.9,0.6,4,1.8c1.1,1.2,1.7,2.8,1.7,4.7
		c0,1.9-0.6,3.5-1.7,4.7c-1.1,1.2-2.5,1.8-4,1.8c-1.5,0-2.8-0.6-3.9-1.8c-1.1-1.2-1.7-2.8-1.7-4.7c0-1.9,0.6-3.4,1.7-4.7
		C43.2-30.1,44.5-30.7,46-30.7z M74.6-30.7c1.5,0,2.8,0.6,4,1.8c1.2,1.2,1.7,2.8,1.7,4.7c0,1.9-0.6,3.5-1.7,4.7
		c-1.2,1.2-2.5,1.8-4,1.8c-1.5,0-2.8-0.6-3.9-1.8c-1.1-1.2-1.7-2.8-1.7-4.7c0-1.9,0.6-3.4,1.7-4.7C71.8-30.1,73.1-30.7,74.6-30.7z"
		/>
</g>
<g id="Semibold-M" transform="matrix(1 0 0 1 1983.6 1126)">
	<path d="M59.7-86.2c7,0,13.5,1.3,19.7,4c6.2,2.7,11.6,6.3,16.3,11c4.7,4.7,8.4,10.1,11,16.2c2.7,6.1,4,12.7,4,19.7
		c0,7-1.3,13.5-4,19.7c-2.7,6.1-6.3,11.5-11,16.2c-4.7,4.7-10.1,8.4-16.3,11s-12.7,4-19.7,4c-7,0-13.5-1.3-19.7-4s-11.5-6.3-16.2-11
		c-4.7-4.7-8.4-10.1-11-16.2c-2.7-6.1-4-12.7-4-19.7c0-7,1.3-13.6,4-19.7c2.7-6.1,6.3-11.5,11-16.2c4.7-4.7,10.1-8.4,16.3-11
		C46.1-84.9,52.7-86.2,59.7-86.2z M59.7-75c-5.5,0-10.7,1-15.5,3.1c-4.8,2.1-9,4.9-12.7,8.5c-3.6,3.6-6.5,7.8-8.5,12.6
		C21-46,20-40.8,20-35.3c0,5.5,1,10.7,3.1,15.5c2,4.8,4.9,9,8.5,12.7c3.6,3.6,7.8,6.5,12.6,8.5c4.8,2,10,3.1,15.5,3.1
		c5.5,0,10.7-1,15.5-3.1c4.8-2,9-4.9,12.6-8.5c3.6-3.6,6.5-7.9,8.5-12.7c2.1-4.8,3.1-10,3.1-15.5c0-5.5-1-10.7-3.1-15.5
		c-2.1-4.8-4.9-9-8.5-12.6c-3.6-3.6-7.9-6.5-12.7-8.5C70.3-74,65.2-75,59.7-75z M59.7-58.9c3.4,0,6.4,0.6,9,1.8
		c2.6,1.2,4.6,2.6,6,4.2c1.4,1.6,2.1,2.9,2.1,4c0,0.6-0.2,1-0.7,1.3c-0.5,0.2-1,0.2-1.6,0c-1.8-0.9-3.8-1.8-6.1-2.7
		c-2.3-0.9-5.2-1.3-8.7-1.3c-3.5,0-6.5,0.4-8.7,1.3c-2.3,0.9-4.3,1.8-6.2,2.7c-0.6,0.3-1.1,0.3-1.6,0c-0.5-0.2-0.7-0.7-0.7-1.3
		c0-1.1,0.7-2.4,2.1-4c1.4-1.6,3.4-3,6-4.2C53.2-58.3,56.2-58.9,59.7-58.9z M45.3-30.8c1.5,0,2.9,0.6,4,1.9c1.2,1.2,1.7,2.8,1.7,4.7
		c0,1.9-0.6,3.5-1.7,4.8c-1.2,1.3-2.5,1.9-4,1.9c-1.5,0-2.8-0.6-3.9-1.9s-1.7-2.8-1.7-4.8c0-1.9,0.6-3.5,1.7-4.7
		C42.5-30.2,43.8-30.8,45.3-30.8z M74-30.8c1.5,0,2.9,0.6,4,1.9c1.2,1.2,1.7,2.8,1.7,4.7c0,1.9-0.6,3.5-1.7,4.8s-2.5,1.9-4,1.9
		c-1.5,0-2.8-0.6-4-1.9c-1.1-1.3-1.7-2.8-1.7-4.8c0-1.9,0.6-3.5,1.7-4.7C71.1-30.2,72.4-30.8,74-30.8z"/>
</g>
<g id="Medium-M" transform="matrix(1 0 0 1 1687.37 1126)">
	<path d="M59.2-85.7c6.9,0,13.4,1.3,19.5,4c6.1,2.6,11.5,6.3,16.1,10.9c4.6,4.6,8.3,10,10.9,16.1c2.6,6.1,4,12.6,4,19.5
		c0,6.9-1.3,13.4-4,19.5C103-9.7,99.4-4.3,94.8,0.3c-4.6,4.6-10,8.3-16.1,10.9c-6.1,2.6-12.6,4-19.5,4c-6.9,0-13.4-1.3-19.5-4
		C33.6,8.6,28.2,5,23.6,0.3c-4.6-4.6-8.3-10-10.9-16.1c-2.6-6.1-4-12.6-4-19.5s1.3-13.4,4-19.5c2.6-6.1,6.3-11.5,10.9-16.1
		c4.6-4.6,10-8.3,16.1-10.9C45.8-84.4,52.3-85.7,59.2-85.7z M59.2-75.8c-5.6,0-10.9,1-15.8,3.1s-9.2,5-12.9,8.7
		c-3.7,3.7-6.6,8-8.7,12.9s-3.1,10.1-3.1,15.8s1,10.9,3.1,15.8s5,9.2,8.7,12.9c3.7,3.7,8,6.6,12.9,8.7c4.9,2.1,10.1,3.1,15.7,3.1
		c5.6,0,10.9-1,15.8-3.1c4.9-2.1,9.2-5,12.9-8.7c3.7-3.7,6.6-8,8.7-12.9c2.1-4.9,3.1-10.1,3.1-15.8s-1-10.9-3.1-15.8
		s-5-9.2-8.7-12.9c-3.7-3.7-8-6.6-12.9-8.7S64.8-75.8,59.2-75.8z M59.1-59.3c3.4,0,6.4,0.6,9,1.8c2.6,1.2,4.6,2.6,6,4.2
		c1.4,1.6,2.1,2.9,2.1,4c0,0.6-0.2,1-0.7,1.2c-0.5,0.2-1,0.2-1.6,0c-1.8-0.9-3.8-1.9-6.1-2.7c-2.3-0.9-5.2-1.3-8.8-1.3
		c-3.5,0-6.5,0.4-8.7,1.3c-2.3,0.9-4.3,1.8-6.1,2.7c-0.6,0.3-1.1,0.3-1.5,0c-0.5-0.2-0.7-0.7-0.7-1.2c0-1.1,0.7-2.4,2.1-4
		c1.4-1.6,3.4-3,6-4.2C52.8-58.7,55.7-59.3,59.1-59.3z M44.7-30.9c1.5,0,2.9,0.6,4.1,1.9c1.2,1.2,1.8,2.8,1.8,4.8
		c0,1.9-0.6,3.5-1.8,4.8s-2.5,1.9-4.1,1.9c-1.5,0-2.9-0.6-4-1.9c-1.1-1.3-1.7-2.8-1.7-4.8c0-2,0.6-3.5,1.7-4.8
		C41.9-30.2,43.2-30.9,44.7-30.9z M73.5-30.9c1.5,0,2.9,0.6,4.1,1.9c1.2,1.2,1.8,2.8,1.8,4.8c0,1.9-0.6,3.5-1.8,4.8
		c-1.2,1.3-2.5,1.9-4.1,1.9c-1.5,0-2.9-0.6-4-1.9c-1.1-1.3-1.7-2.8-1.7-4.8c0-2,0.6-3.5,1.7-4.8C70.7-30.2,72-30.9,73.5-30.9z"/>
</g>
<g id="Regular-M" transform="matrix(1 0 0 1 1391.3 1126)">
	<path d="M58.5-85.1c6.8,0,13.2,1.3,19.2,3.9c6,2.6,11.3,6.2,15.9,10.8c4.6,4.6,8.2,9.9,10.8,15.9c2.6,6,3.9,12.4,3.9,19.2
		S107-22,104.4-16c-2.6,6-6.2,11.3-10.8,15.9C89.1,4.4,83.8,8,77.7,10.6c-6,2.6-12.4,3.9-19.2,3.9s-13.2-1.3-19.2-3.9
		C33.3,8,28,4.4,23.4-0.1C18.8-4.7,15.3-10,12.6-16C10-22,8.7-28.5,8.7-35.3s1.3-13.2,3.9-19.2c2.6-6,6.2-11.3,10.8-15.9
		c4.6-4.6,9.9-8.2,15.9-10.8C45.3-83.8,51.7-85.1,58.5-85.1z M58.5-76.8c-5.8,0-11.1,1.1-16.2,3.2s-9.4,5.1-13.2,8.9
		c-3.8,3.8-6.8,8.2-8.9,13.2c-2.1,5-3.2,10.4-3.2,16.2s1.1,11.1,3.2,16.2c2.1,5,5.1,9.4,8.9,13.2c3.8,3.8,8.2,6.8,13.2,8.9
		c5,2.1,10.4,3.2,16.2,3.2s11.1-1.1,16.2-3.2c5-2.1,9.4-5.1,13.2-8.9c3.8-3.8,6.8-8.2,8.9-13.2c2.1-5,3.2-10.4,3.2-16.2
		S99-46.4,96.9-51.4c-2.1-5-5.1-9.4-8.9-13.2c-3.8-3.8-8.2-6.8-13.2-8.9C69.7-75.7,64.3-76.8,58.5-76.8z M58.5-59.7
		c3.4,0,6.4,0.6,8.9,1.8c2.6,1.2,4.6,2.6,6,4.2s2.1,2.9,2.1,4c0,0.6-0.2,1-0.7,1.2c-0.5,0.2-1,0.2-1.5,0c-1.8-1-3.8-1.9-6.1-2.8
		c-2.3-0.9-5.2-1.3-8.8-1.3s-6.5,0.4-8.8,1.3c-2.3,0.9-4.3,1.8-6.1,2.8c-0.5,0.2-1,0.2-1.5,0c-0.5-0.2-0.7-0.6-0.7-1.2
		c0-1.1,0.7-2.4,2.1-4c1.4-1.6,3.4-3,6-4.2C52.1-59.1,55.1-59.7,58.5-59.7z M44-30.9c1.6,0,2.9,0.6,4.1,1.9c1.2,1.3,1.8,2.9,1.8,4.8
		s-0.6,3.6-1.8,4.8c-1.2,1.3-2.5,1.9-4.1,1.9c-1.5,0-2.9-0.6-4-1.9c-1.1-1.3-1.7-2.9-1.7-4.8s0.6-3.6,1.7-4.8
		C41.1-30.3,42.5-30.9,44-30.9z M72.9-30.9c1.6,0,2.9,0.6,4.1,1.9c1.2,1.3,1.8,2.9,1.8,4.8s-0.6,3.6-1.8,4.8
		c-1.2,1.3-2.5,1.9-4.1,1.9c-1.5,0-2.9-0.6-4-1.9c-1.1-1.3-1.7-2.9-1.7-4.8s0.6-3.6,1.7-4.8C70.1-30.3,71.4-30.9,72.9-30.9z"/>
</g>
<g id="Light-M" transform="matrix(1 0 0 1 1095.41 1126)">
	<path d="M57.7-84.2c6.7,0,13,1.3,18.9,3.8c5.9,2.6,11.1,6.1,15.6,10.6c4.5,4.5,8,9.7,10.6,15.6c2.6,5.9,3.8,12.2,3.8,18.9
		s-1.3,13-3.8,18.9c-2.6,5.9-6.1,11.1-10.6,15.6c-4.5,4.5-9.7,8-15.6,10.6c-5.9,2.6-12.2,3.8-18.9,3.8s-13-1.3-18.9-3.8
		C32.8,7.3,27.6,3.8,23.1-0.7s-8-9.7-10.6-15.6C10-22.2,8.7-28.5,8.7-35.3s1.3-13,3.8-18.9c2.6-5.9,6.1-11.1,10.6-15.6
		c4.5-4.5,9.7-8,15.6-10.6C44.7-83,51-84.2,57.7-84.2z M57.7-77.9c-5.9,0-11.4,1.1-16.6,3.3c-5.2,2.2-9.7,5.2-13.6,9.2
		c-3.9,3.9-7,8.4-9.2,13.6c-2.2,5.2-3.3,10.7-3.3,16.6c0,5.9,1.1,11.4,3.3,16.6c2.2,5.2,5.2,9.7,9.2,13.6c3.9,3.9,8.4,7,13.6,9.2
		c5.1,2.2,10.7,3.3,16.6,3.3c5.9,0,11.5-1.1,16.6-3.3c5.1-2.2,9.7-5.3,13.6-9.2c3.9-3.9,7-8.5,9.2-13.6c2.2-5.2,3.3-10.7,3.3-16.6
		s-1.1-11.4-3.3-16.6c-2.2-5.2-5.3-9.7-9.2-13.6c-3.9-3.9-8.4-7-13.6-9.2C69.2-76.8,63.6-77.9,57.7-77.9z M57.7-59.3
		c3.3,0,6.2,0.6,8.7,1.8c2.5,1.2,4.4,2.6,5.8,4.1c1.4,1.5,2.1,2.8,2.1,3.8c0,0.5-0.2,0.8-0.6,1c-0.4,0.2-0.8,0.1-1.2,0
		c-1.6-1.1-3.6-2.1-6-3.1c-2.4-0.9-5.3-1.4-8.8-1.4c-3.5,0-6.5,0.5-8.8,1.4c-2.4,0.9-4.4,1.9-6,3.1c-0.4,0.2-0.8,0.2-1.1,0
		c-0.4-0.2-0.6-0.5-0.6-1c0-1,0.7-2.3,2.1-3.8c1.4-1.5,3.3-2.9,5.8-4.1C51.5-58.7,54.4-59.3,57.7-59.3z M43.1-30.7
		c1.5,0,2.7,0.6,3.8,1.8c1.1,1.2,1.6,2.7,1.6,4.5S48-21,46.9-19.8c-1.1,1.2-2.4,1.8-3.8,1.8c-1.4,0-2.7-0.6-3.7-1.8
		c-1.1-1.2-1.6-2.7-1.6-4.5s0.5-3.3,1.6-4.5C40.4-30.1,41.7-30.7,43.1-30.7z M72.2-30.7c1.5,0,2.7,0.6,3.8,1.8
		c1.1,1.2,1.6,2.7,1.6,4.5S77.1-21,76-19.8C75-18.6,73.7-18,72.2-18c-1.4,0-2.7-0.6-3.7-1.8c-1.1-1.2-1.6-2.7-1.6-4.5
		s0.5-3.3,1.6-4.5C69.6-30.1,70.8-30.7,72.2-30.7z"/>
</g>
<g id="Thin-M" transform="matrix(1 0 0 1 799.793 1126)">
	<path d="M56.6-83.1c6.6,0,12.8,1.2,18.6,3.7c5.8,2.5,10.9,5.9,15.3,10.3s7.8,9.5,10.4,15.3c2.5,5.8,3.8,12,3.8,18.5
		c0,6.6-1.3,12.8-3.8,18.5c-2.5,5.8-6,10.9-10.4,15.3S80.9,6.4,75.2,8.9c-5.8,2.5-12,3.7-18.6,3.7c-6.6,0-12.8-1.2-18.5-3.7
		C32.3,6.4,27.2,3,22.8-1.4c-4.4-4.4-7.8-9.5-10.3-15.3c-2.5-5.8-3.8-12-3.8-18.5S10-48,12.5-53.8c2.5-5.8,5.9-10.9,10.3-15.3
		s9.5-7.9,15.3-10.3C43.9-81.9,50-83.1,56.6-83.1z M56.6-79.4c-6.1,0-11.8,1.1-17.1,3.4c-5.3,2.3-10,5.5-14.1,9.5s-7.2,8.7-9.5,14.1
		c-2.3,5.3-3.4,11.1-3.4,17.1s1.1,11.8,3.4,17.1c2.3,5.3,5.4,10,9.5,14.1s8.7,7.2,14.1,9.5c5.3,2.3,11,3.4,17.1,3.4
		c6.1,0,11.8-1.1,17.2-3.4C79.1,3.2,83.8,0,87.8-4c4.1-4.1,7.2-8.7,9.5-14.1c2.3-5.3,3.4-11.1,3.4-17.1s-1.1-11.8-3.4-17.1
		c-2.3-5.3-5.4-10-9.5-14.1s-8.7-7.2-14.1-9.5C68.4-78.2,62.7-79.4,56.6-79.4z M56.6-58.8c3.1,0,5.9,0.6,8.3,1.8
		c2.4,1.2,4.3,2.5,5.6,4c1.4,1.5,2,2.7,2,3.7c0,0.4-0.1,0.6-0.4,0.6c-0.3,0.1-0.5,0-0.7-0.1c-1.5-1.3-3.4-2.4-5.9-3.4
		c-2.5-1-5.5-1.5-8.9-1.5c-3.5,0-6.4,0.5-8.9,1.5c-2.5,1-4.4,2.1-5.9,3.4c-0.2,0.1-0.5,0.2-0.7,0.1c-0.3-0.1-0.4-0.3-0.4-0.6
		c0-0.9,0.7-2.2,2-3.7c1.4-1.5,3.2-2.8,5.6-4C50.7-58.2,53.5-58.8,56.6-58.8z M41.9-30.5c1.3,0,2.4,0.6,3.4,1.7
		c1,1.1,1.5,2.5,1.5,4.2c0,1.7-0.5,3.1-1.5,4.2c-1,1.1-2.1,1.7-3.5,1.7c-1.3,0-2.4-0.6-3.4-1.7c-1-1.1-1.4-2.5-1.4-4.2
		c0-1.7,0.5-3.1,1.5-4.2C39.5-29.9,40.6-30.5,41.9-30.5z M71.3-30.5c1.3,0,2.4,0.6,3.4,1.7c1,1.1,1.5,2.5,1.5,4.2
		c0,1.7-0.5,3.1-1.4,4.2c-1,1.1-2.1,1.7-3.4,1.7c-1.3,0-2.4-0.6-3.4-1.7c-1-1.1-1.5-2.5-1.5-4.2c0-1.7,0.5-3.1,1.5-4.2
		C68.9-29.9,70-30.5,71.3-30.5z"/>
</g>
<g id="Ultralight-M" transform="matrix(1 0 0 1 503.641 1126)">
	<path d="M56.1-82.6c6.5,0,12.6,1.2,18.3,3.7c5.7,2.5,10.7,5.9,15.1,10.2c4.3,4.3,7.8,9.4,10.2,15.1c2.5,5.7,3.7,11.8,3.7,18.3
		s-1.2,12.6-3.7,18.3c-2.5,5.7-5.9,10.7-10.2,15.1c-4.3,4.3-9.4,7.7-15.1,10.2c-5.7,2.5-11.8,3.7-18.3,3.7s-12.6-1.2-18.3-3.7
		C32,5.9,27,2.5,22.7-1.8c-4.3-4.3-7.7-9.4-10.2-15.1C10-22.6,8.7-28.7,8.7-35.3s1.2-12.6,3.7-18.3c2.5-5.7,5.9-10.7,10.2-15.1
		C27-73,32-76.4,37.7-78.9C43.4-81.3,49.5-82.6,56.1-82.6z M56.1-80.2c-6.2,0-12,1.2-17.4,3.5c-5.4,2.3-10.2,5.6-14.3,9.7
		c-4.1,4.1-7.4,8.9-9.7,14.3c-2.3,5.4-3.5,11.2-3.5,17.4s1.2,12,3.5,17.4s5.6,10.2,9.7,14.4s8.9,7.4,14.3,9.7
		c5.4,2.3,11.2,3.5,17.4,3.5c6.2,0,12-1.2,17.5-3.5c5.4-2.3,10.2-5.6,14.3-9.7c4.1-4.1,7.3-8.9,9.7-14.4c2.3-5.4,3.5-11.2,3.5-17.4
		s-1.2-12-3.5-17.4c-2.3-5.4-5.6-10.2-9.7-14.3c-4.1-4.1-8.9-7.3-14.3-9.7C68.1-79,62.3-80.2,56.1-80.2z M56-58.5
		c3.1,0,5.8,0.6,8.1,1.8c2.3,1.2,4.2,2.5,5.5,4c1.4,1.5,2,2.7,2,3.5c0,0.3-0.1,0.5-0.3,0.5c-0.2,0-0.4,0-0.5-0.1
		c-1.4-1.4-3.3-2.6-5.8-3.6c-2.5-1-5.5-1.5-9-1.5c-3.4,0-6.4,0.5-8.9,1.5c-2.5,1-4.5,2.2-5.9,3.6c-0.2,0.1-0.3,0.2-0.5,0.1
		c-0.2,0-0.3-0.2-0.3-0.5c0-0.9,0.7-2.1,2-3.5c1.3-1.5,3.2-2.8,5.5-4C50.3-57.9,53-58.5,56-58.5z M41.3-30.4c1.2,0,2.3,0.6,3.3,1.7
		c0.9,1.1,1.4,2.4,1.4,4c0,1.6-0.5,2.9-1.4,4c-0.9,1.1-2,1.6-3.3,1.6c-1.2,0-2.3-0.5-3.2-1.6c-0.9-1.1-1.4-2.4-1.4-4
		c0-1.6,0.5-2.9,1.4-4C39-29.8,40.1-30.4,41.3-30.4z M70.8-30.4c1.2,0,2.3,0.6,3.2,1.7c0.9,1.1,1.4,2.4,1.4,4c0,1.6-0.4,2.9-1.3,4
		c-0.9,1.1-2,1.6-3.2,1.6c-1.2,0-2.3-0.5-3.2-1.6c-0.9-1.1-1.4-2.4-1.4-4c0-1.6,0.5-2.9,1.4-4C68.5-29.8,69.6-30.4,70.8-30.4z"/>
</g>
<g id="Black-S" transform="matrix(1 0 0 1 2884.57 696)">
	<path d="M48.8-77.2c5.8,0,11.2,1.1,16.3,3.3c5.1,2.2,9.5,5.2,13.4,9.1c3.9,3.9,6.9,8.3,9.1,13.4s3.3,10.5,3.3,16.3
		c0,5.8-1.1,11.2-3.3,16.3c-2.2,5.1-5.2,9.5-9.1,13.4c-3.9,3.9-8.3,6.9-13.4,9.1c-5.1,2.2-10.5,3.3-16.3,3.3S37.6,5.7,32.5,3.5
		C27.5,1.3,23-1.7,19.2-5.5c-3.9-3.9-6.9-8.3-9.1-13.4C7.9-24,6.8-29.4,6.8-35.2s1.1-11.2,3.3-16.3c2.2-5.1,5.2-9.5,9.1-13.4
		c3.9-3.9,8.3-6.9,13.4-9.1C37.6-76.1,43-77.2,48.8-77.2z M48.8-63c-3.8,0-7.4,0.7-10.8,2.2c-3.4,1.4-6.3,3.4-8.9,6
		c-2.5,2.5-4.5,5.5-6,8.9c-1.4,3.4-2.2,7-2.2,10.8s0.7,7.4,2.2,10.8c1.4,3.4,3.4,6.3,6,8.9c2.5,2.5,5.5,4.5,8.9,6
		c3.4,1.4,7,2.2,10.8,2.2c3.8,0,7.4-0.7,10.8-2.2c3.4-1.4,6.3-3.4,8.9-6c2.5-2.5,4.5-5.5,6-8.9c1.4-3.4,2.2-7,2.2-10.8
		s-0.7-7.4-2.2-10.8c-1.4-3.4-3.4-6.3-6-8.9c-2.5-2.5-5.5-4.5-8.9-6C56.3-62.3,52.7-63,48.8-63z M48.8-52.2c2.7,0,5.1,0.5,7.2,1.5
		c2,1,3.6,2.1,4.8,3.3c1.1,1.3,1.7,2.3,1.7,3.2c0,0.5-0.2,0.9-0.6,1.1s-0.9,0.2-1.4,0c-1.5-0.6-3.1-1.3-4.8-2c-1.7-0.7-4-1-6.8-1
		c-2.8,0-5,0.3-6.8,1c-1.8,0.7-3.4,1.3-4.8,2c-0.5,0.3-1,0.3-1.4,0c-0.4-0.2-0.6-0.6-0.6-1.1c0-0.9,0.6-1.9,1.7-3.2
		c1.1-1.3,2.7-2.4,4.8-3.3C43.7-51.8,46.1-52.2,48.8-52.2z M37.8-31.5c1.1,0,2.1,0.5,3,1.4c0.9,0.9,1.3,2.1,1.3,3.5
		c0,1.4-0.4,2.6-1.3,3.5c-0.9,0.9-1.9,1.4-3,1.4s-2.1-0.5-3-1.4c-0.8-0.9-1.2-2.1-1.2-3.5c0-1.4,0.4-2.6,1.2-3.5
		C35.7-31,36.7-31.5,37.8-31.5z M59.8-31.5c1.1,0,2.1,0.5,3,1.4c0.9,0.9,1.3,2.1,1.3,3.5c0,1.4-0.4,2.6-1.3,3.5
		c-0.9,0.9-1.9,1.4-3,1.4c-1.2,0-2.2-0.5-3-1.4c-0.8-0.9-1.2-2.1-1.2-3.5c0-1.4,0.4-2.6,1.2-3.5C57.6-31,58.6-31.5,59.8-31.5z"/>
</g>
<g id="Heavy-S" transform="matrix(1 0 0 1 2588.47 696)">
	<path d="M48.2-76.6c5.7,0,11.1,1.1,16.1,3.2c5,2.1,9.4,5.1,13.2,8.9c3.8,3.8,6.8,8.2,8.9,13.2c2.1,5,3.2,10.3,3.2,16
		s-1.1,11-3.2,16c-2.1,5-5.1,9.4-8.9,13.2c-3.8,3.8-8.2,6.8-13.2,8.9c-5,2.1-10.3,3.2-16,3.2c-5.7,0-11-1.1-16-3.2
		C27.2,0.8,22.8-2.2,19-6c-3.8-3.8-6.8-8.2-8.9-13.2c-2.1-5-3.2-10.3-3.2-16s1.1-11,3.2-16c2.1-5,5.1-9.4,8.9-13.2
		c3.8-3.8,8.2-6.8,13.2-8.9C37.2-75.5,42.5-76.6,48.2-76.6z M48.2-64.1c-4,0-7.7,0.7-11.2,2.2c-3.5,1.5-6.5,3.6-9.2,6.2
		c-2.6,2.6-4.7,5.7-6.2,9.2c-1.5,3.5-2.2,7.2-2.2,11.2c0,4,0.7,7.7,2.2,11.2c1.5,3.5,3.5,6.6,6.2,9.2c2.6,2.6,5.7,4.7,9.2,6.2
		c3.5,1.5,7.2,2.2,11.2,2.2c4,0,7.7-0.7,11.2-2.2c3.5-1.5,6.5-3.6,9.2-6.2c2.6-2.6,4.7-5.7,6.2-9.2c1.5-3.5,2.3-7.2,2.3-11.2
		c0-4-0.7-7.7-2.2-11.2s-3.6-6.5-6.2-9.2c-2.6-2.6-5.7-4.7-9.2-6.2C55.9-63.3,52.2-64.1,48.2-64.1z M48.2-52.8
		c2.7,0,5.1,0.5,7.2,1.5c2,1,3.6,2.1,4.8,3.3c1.1,1.3,1.7,2.3,1.7,3.2c0,0.5-0.2,0.9-0.6,1.1c-0.4,0.2-0.9,0.2-1.4,0
		c-1.5-0.7-3.1-1.3-4.8-2c-1.7-0.7-4-1-6.8-1c-2.8,0-5.1,0.3-6.8,1c-1.8,0.7-3.4,1.3-4.8,2c-0.5,0.2-0.9,0.2-1.4,0
		c-0.4-0.2-0.6-0.6-0.6-1.1c0-0.9,0.6-1.9,1.7-3.2c1.1-1.3,2.7-2.4,4.8-3.3C43.1-52.3,45.5-52.8,48.2-52.8z M37.1-31.6
		c1.2,0,2.2,0.5,3.1,1.4c0.9,1,1.3,2.2,1.3,3.6c0,1.5-0.4,2.7-1.3,3.6c-0.9,0.9-1.9,1.4-3.1,1.4c-1.2,0-2.2-0.5-3-1.4
		c-0.8-0.9-1.3-2.1-1.3-3.6c0-1.4,0.4-2.6,1.3-3.6C34.9-31.2,35.9-31.6,37.1-31.6z M59.3-31.6c1.2,0,2.2,0.5,3.1,1.4
		c0.9,1,1.3,2.2,1.3,3.6c0,1.5-0.4,2.7-1.3,3.6c-0.9,0.9-1.9,1.4-3.1,1.4c-1.2,0-2.2-0.5-3.1-1.4c-0.8-0.9-1.3-2.1-1.3-3.6
		c0-1.4,0.4-2.6,1.3-3.6C57-31.2,58.1-31.6,59.3-31.6z"/>
</g>
<g id="Bold-S" transform="matrix(1 0 0 1 2292.43 696)">
	<path d="M47.6-75.9c5.6,0,10.8,1.1,15.7,3.2c4.9,2.1,9.2,5.1,13,8.8c3.7,3.8,6.7,8.1,8.8,13c2.1,4.9,3.2,10.1,3.2,15.7
		c0,5.6-1.1,10.8-3.2,15.7c-2.1,4.9-5.1,9.2-8.8,13c-3.7,3.7-8.1,6.7-13,8.8c-4.9,2.1-10.2,3.2-15.8,3.2c-5.6,0-10.8-1.1-15.7-3.2
		c-4.9-2.1-9.2-5-13-8.8c-3.7-3.7-6.7-8.1-8.8-13c-2.1-4.9-3.2-10.2-3.2-15.7c0-5.6,1.1-10.8,3.2-15.7c2.1-4.9,5.1-9.2,8.8-13
		c3.7-3.8,8.1-6.7,13-8.8C36.7-74.9,42-75.9,47.6-75.9z M47.6-65.1c-4.1,0-8,0.8-11.6,2.3c-3.6,1.5-6.8,3.7-9.5,6.4
		c-2.7,2.7-4.9,5.9-6.4,9.5c-1.5,3.6-2.3,7.5-2.3,11.6s0.8,8,2.3,11.6c1.5,3.6,3.7,6.8,6.4,9.5c2.7,2.7,5.9,4.9,9.5,6.4
		c3.6,1.5,7.5,2.3,11.6,2.3c4.2,0,8.1-0.8,11.7-2.3c3.6-1.5,6.8-3.7,9.5-6.4c2.7-2.7,4.9-5.9,6.4-9.5c1.5-3.6,2.3-7.5,2.3-11.6
		s-0.8-8-2.3-11.6c-1.5-3.6-3.7-6.8-6.4-9.5c-2.7-2.7-5.9-4.9-9.5-6.4C55.6-64.4,51.7-65.1,47.6-65.1z M47.6-53.4
		c2.7,0,5.1,0.5,7.2,1.5c2,1,3.6,2.1,4.8,3.3c1.1,1.3,1.7,2.3,1.7,3.2c0,0.5-0.2,0.8-0.6,1c-0.4,0.2-0.9,0.2-1.4,0
		c-1.5-0.7-3.1-1.3-4.8-2c-1.7-0.7-4-1-6.8-1c-2.8,0-5.1,0.3-6.8,1c-1.8,0.7-3.4,1.3-4.8,2c-0.5,0.2-0.9,0.2-1.4,0
		c-0.4-0.2-0.6-0.6-0.6-1.1c0-0.9,0.6-1.9,1.7-3.2s2.7-2.4,4.8-3.3C42.4-52.9,44.8-53.4,47.6-53.4z M36.4-31.7
		c1.2,0,2.3,0.5,3.2,1.4c0.9,1,1.4,2.2,1.4,3.7c0,1.5-0.5,2.8-1.4,3.7c-0.9,1-2,1.4-3.2,1.4c-1.2,0-2.2-0.5-3.1-1.4
		c-0.9-1-1.3-2.2-1.3-3.7c0-1.5,0.4-2.7,1.3-3.7C34.1-31.2,35.2-31.7,36.4-31.7z M58.7-31.7c1.2,0,2.3,0.5,3.2,1.4
		c0.9,1,1.4,2.2,1.4,3.7c0,1.5-0.5,2.8-1.4,3.7c-0.9,1-2,1.4-3.2,1.4c-1.2,0-2.2-0.5-3.1-1.4c-0.9-1-1.3-2.2-1.3-3.7
		c0-1.5,0.4-2.7,1.3-3.7C56.4-31.2,57.5-31.7,58.7-31.7z"/>
</g>
<g id="Semibold-S" transform="matrix(1 0 0 1 1996.19 696)">
	<path d="M47.1-75.5c5.5,0,10.7,1,15.6,3.1s9.1,5,12.8,8.7c3.7,3.7,6.6,8,8.7,12.9c2.1,4.9,3.1,10,3.1,15.5c0,5.5-1,10.7-3.1,15.5
		c-2.1,4.9-5,9.1-8.7,12.8c-3.7,3.7-8,6.6-12.8,8.7C57.7,3.9,52.6,5,47,5c-5.5,0-10.7-1-15.5-3.1c-4.9-2.1-9.1-5-12.8-8.7
		c-3.7-3.7-6.6-8-8.7-12.8c-2.1-4.9-3.1-10-3.1-15.5c0-5.5,1-10.7,3.1-15.5c2.1-4.9,5-9.1,8.7-12.9c3.7-3.7,8-6.6,12.8-8.7
		S41.6-75.5,47.1-75.5z M47.1-65.9c-4.2,0-8.2,0.8-11.9,2.4c-3.7,1.6-7,3.8-9.8,6.6c-2.8,2.8-5,6.1-6.6,9.8c-1.6,3.7-2.4,7.7-2.4,12
		c0,4.2,0.8,8.2,2.4,11.9c1.6,3.7,3.8,7,6.5,9.8s6,5,9.7,6.6c3.7,1.6,7.7,2.4,11.9,2.4c4.3,0,8.3-0.8,12-2.4c3.7-1.6,7-3.8,9.8-6.6
		s5-6.1,6.6-9.8c1.6-3.7,2.4-7.7,2.4-11.9c0-4.3-0.8-8.3-2.4-12s-3.8-7-6.6-9.8c-2.8-2.8-6.1-5-9.8-6.6
		C55.3-65.1,51.3-65.9,47.1-65.9z M47-53.9c2.7,0,5.1,0.5,7.2,1.5c2,1,3.6,2.1,4.8,3.3c1.1,1.3,1.7,2.3,1.7,3.2c0,0.5-0.2,0.8-0.6,1
		c-0.4,0.2-0.9,0.2-1.3,0c-1.5-0.7-3.1-1.3-4.8-2s-4-1-6.8-1c-2.8,0-5,0.3-6.8,1c-1.8,0.7-3.4,1.3-4.8,2c-0.5,0.2-0.9,0.2-1.3,0
		c-0.4-0.2-0.6-0.6-0.6-1.1c0-0.9,0.6-1.9,1.7-3.2c1.1-1.3,2.7-2.4,4.8-3.3C41.9-53.4,44.3-53.9,47-53.9z M35.8-31.8
		c1.2,0,2.3,0.5,3.2,1.5c0.9,1,1.4,2.2,1.4,3.7c0,1.6-0.5,2.8-1.4,3.8c-0.9,1-2,1.5-3.2,1.5c-1.2,0-2.3-0.5-3.2-1.5
		c-0.9-1-1.3-2.3-1.3-3.8c0-1.5,0.4-2.7,1.3-3.7C33.5-31.3,34.6-31.8,35.8-31.8z M58.2-31.8c1.3,0,2.4,0.5,3.3,1.5
		c0.9,1,1.4,2.2,1.4,3.7c0,1.6-0.5,2.8-1.4,3.8c-0.9,1-2,1.5-3.3,1.5c-1.2,0-2.3-0.5-3.1-1.5c-0.9-1-1.3-2.3-1.3-3.8
		c0-1.5,0.4-2.7,1.3-3.7C55.9-31.3,57-31.8,58.2-31.8z"/>
</g>
<g id="Medium-S" transform="matrix(1 0 0 1 1699.83 696)">
	<path d="M46.7-75.1c5.5,0,10.6,1,15.4,3.1c4.8,2.1,9,5,12.7,8.6c3.7,3.7,6.6,7.9,8.6,12.7c2.1,4.8,3.1,9.9,3.1,15.4
		c0,5.4-1,10.6-3.1,15.4c-2.1,4.8-5,9.1-8.7,12.7c-3.7,3.7-7.9,6.6-12.7,8.6c-4.8,2.1-9.9,3.1-15.4,3.1s-10.6-1-15.4-3.1
		c-4.8-2.1-9-4.9-12.7-8.6C14.9-10.8,12-15,10-19.8c-2.1-4.8-3.1-9.9-3.1-15.4c0-5.5,1-10.6,3.1-15.4c2.1-4.8,5-9,8.6-12.7
		c3.7-3.7,7.9-6.6,12.7-8.6C36.1-74.1,41.3-75.1,46.7-75.1z M46.7-66.5c-4.3,0-8.4,0.8-12.2,2.4c-3.8,1.6-7.1,3.8-9.9,6.7
		c-2.8,2.9-5.1,6.2-6.7,10c-1.6,3.8-2.4,7.8-2.4,12.2c0,4.3,0.8,8.4,2.4,12.2s3.8,7.1,6.7,10c2.8,2.9,6.2,5.1,9.9,6.7
		C38.3-4.8,42.4-4,46.7-4c4.3,0,8.4-0.8,12.2-2.4c3.8-1.6,7.1-3.8,10-6.7c2.9-2.9,5.1-6.2,6.7-10c1.6-3.8,2.4-7.8,2.4-12.2
		s-0.8-8.4-2.4-12.2c-1.6-3.8-3.8-7.1-6.7-10c-2.8-2.9-6.1-5.1-9.9-6.7C55.1-65.6,51.1-66.5,46.7-66.5z M46.6-54.2
		c2.7,0,5.1,0.5,7.2,1.5c2,1,3.6,2.1,4.8,3.3c1.1,1.3,1.7,2.3,1.7,3.2c0,0.5-0.2,0.9-0.6,1.1c-0.4,0.2-0.9,0.2-1.3,0
		c-1.4-0.7-3-1.3-4.8-2c-1.8-0.7-4.1-1-6.9-1c-2.8,0-5.1,0.3-6.8,1c-1.8,0.7-3.4,1.3-4.8,2c-0.5,0.2-0.9,0.2-1.3,0
		c-0.4-0.2-0.6-0.6-0.6-1.1c0-0.9,0.6-1.9,1.7-3.2c1.1-1.3,2.7-2.4,4.8-3.3C41.6-53.7,43.9-54.2,46.6-54.2z M35.4-31.8
		c1.2,0,2.3,0.5,3.3,1.5s1.4,2.3,1.4,3.8c0,1.6-0.5,2.9-1.4,3.9c-0.9,1-2,1.5-3.3,1.5c-1.2,0-2.3-0.5-3.2-1.5
		c-0.9-1-1.4-2.3-1.4-3.9c0-1.5,0.5-2.8,1.4-3.8C33.1-31.3,34.2-31.8,35.4-31.8z M57.9-31.8c1.3,0,2.4,0.5,3.3,1.5s1.4,2.3,1.4,3.8
		c0,1.6-0.5,2.9-1.4,3.9c-0.9,1-2,1.5-3.3,1.5c-1.2,0-2.3-0.5-3.2-1.5c-0.9-1-1.4-2.3-1.4-3.9c0-1.5,0.5-2.8,1.4-3.8
		S56.7-31.8,57.9-31.8z"/>
</g>
<g id="Regular-S" transform="matrix(1 0 0 1 1403.58 696)">
	<path d="M46.2-74.7c5.4,0,10.5,1,15.2,3.1S70.4-66.7,74-63c3.6,3.6,6.5,7.8,8.5,12.6s3.1,9.8,3.1,15.2s-1,10.4-3.1,15.2
		c-2.1,4.8-4.9,9-8.6,12.6C70.4-3.8,66.2-1,61.4,1.1c-4.8,2.1-9.8,3.1-15.2,3.1c-5.4,0-10.4-1-15.2-3.1C26.3-1,22.1-3.8,18.5-7.5
		c-3.6-3.6-6.5-7.8-8.5-12.6c-2.1-4.8-3.1-9.8-3.1-15.2s1-10.4,3.1-15.2s4.9-9,8.5-12.6c3.6-3.6,7.8-6.5,12.6-8.5
		S40.9-74.7,46.2-74.7z M46.2-67.2c-4.4,0-8.6,0.8-12.4,2.5c-3.9,1.6-7.2,3.9-10.2,6.9c-2.9,2.9-5.2,6.3-6.8,10.2
		c-1.6,3.9-2.5,8-2.5,12.5s0.8,8.6,2.4,12.5c1.6,3.9,3.9,7.3,6.8,10.2c2.9,2.9,6.3,5.2,10.2,6.9c3.9,1.6,8,2.5,12.4,2.5
		c4.5,0,8.6-0.8,12.5-2.5s7.3-3.9,10.2-6.9c2.9-2.9,5.2-6.3,6.9-10.2c1.7-3.9,2.5-8,2.5-12.5s-0.8-8.6-2.5-12.5
		c-1.6-3.9-3.9-7.3-6.8-10.2c-2.9-2.9-6.3-5.2-10.2-6.9C54.9-66.4,50.7-67.2,46.2-67.2z M46.2-54.6c2.7,0,5.1,0.5,7.2,1.5
		c2,1,3.6,2.1,4.8,3.3c1.1,1.3,1.7,2.3,1.7,3.2c0,0.5-0.2,0.8-0.6,1c-0.4,0.2-0.9,0.2-1.3,0c-1.4-0.7-3-1.4-4.8-2.1
		c-1.8-0.7-4.1-1-6.9-1s-5.1,0.3-6.8,1s-3.4,1.4-4.8,2.1c-0.5,0.2-0.9,0.2-1.3,0c-0.4-0.2-0.6-0.6-0.6-1c0-0.9,0.6-1.9,1.7-3.2
		c1.1-1.3,2.7-2.4,4.8-3.3C41.1-54.2,43.5-54.6,46.2-54.6z M34.9-31.9c1.3,0,2.4,0.5,3.3,1.5c1,1,1.4,2.3,1.4,3.9
		c0,1.6-0.5,2.9-1.4,4c-1,1-2.1,1.5-3.3,1.5c-1.3,0-2.4-0.5-3.3-1.5c-0.9-1-1.4-2.3-1.4-4c0-1.6,0.5-2.8,1.4-3.9
		C32.5-31.4,33.6-31.9,34.9-31.9z M57.5-31.9c1.3,0,2.4,0.5,3.4,1.5c0.9,1,1.4,2.3,1.4,3.9c0,1.6-0.5,2.9-1.4,4
		c-0.9,1-2.1,1.5-3.4,1.5c-1.2,0-2.3-0.5-3.2-1.5c-0.9-1-1.4-2.3-1.4-4c0-1.6,0.5-2.8,1.4-3.9C55.2-31.4,56.2-31.9,57.5-31.9z"/>
</g>
<g id="Light-S" transform="matrix(1 0 0 1 1107.6 696)">
	<path d="M45.5-73.9c5.3,0,10.3,1,15,3c4.7,2,8.8,4.8,12.4,8.4c3.6,3.6,6.4,7.7,8.4,12.4c2,4.7,3,9.6,3,14.9c0,5.3-1,10.3-3,14.9
		c-2,4.7-4.8,8.8-8.4,12.4c-3.6,3.6-7.7,6.4-12.4,8.4c-4.7,2-9.7,3-15,3c-5.3,0-10.2-1-14.9-3c-4.7-2-8.8-4.8-12.3-8.4
		c-3.5-3.6-6.3-7.7-8.3-12.4c-2-4.7-3-9.6-3-14.9c0-5.3,1-10.3,3-14.9c2-4.7,4.8-8.8,8.4-12.4c3.6-3.6,7.7-6.4,12.4-8.4
		C35.3-72.9,40.2-73.9,45.5-73.9z M45.5-68.2c-4.6,0-8.8,0.8-12.8,2.5c-4,1.7-7.5,4.1-10.5,7.1c-3,3-5.4,6.5-7.1,10.5
		c-1.7,4-2.5,8.3-2.5,12.8c0,4.6,0.8,8.8,2.5,12.8c1.7,4,4,7.5,7.1,10.5c3,3,6.5,5.4,10.5,7.1c4,1.7,8.2,2.5,12.8,2.5
		c4.6,0,8.9-0.8,12.9-2.5c4-1.7,7.5-4.1,10.5-7.1c3-3,5.4-6.5,7.1-10.5c1.7-4,2.6-8.3,2.6-12.8c0-4.6-0.9-8.8-2.6-12.8
		c-1.7-4-4.1-7.5-7.1-10.5c-3-3-6.5-5.4-10.5-7.1C54.4-67.4,50.1-68.2,45.5-68.2z M45.5-54.2c2.6,0,4.9,0.5,6.9,1.4
		c2,1,3.5,2,4.6,3.2c1.1,1.2,1.7,2.2,1.7,3.1c0,0.4-0.2,0.7-0.5,0.8c-0.3,0.2-0.7,0.2-1,0c-1.3-0.8-2.9-1.6-4.7-2.3
		c-1.8-0.7-4.1-1.1-6.9-1.1s-5.1,0.4-6.9,1.1c-1.8,0.7-3.4,1.5-4.7,2.3c-0.4,0.2-0.7,0.2-1,0c-0.3-0.2-0.5-0.4-0.5-0.8
		c0-0.8,0.6-1.9,1.7-3.1c1.1-1.2,2.7-2.3,4.6-3.2C40.6-53.8,42.9-54.2,45.5-54.2z M34.1-31.8c1.2,0,2.2,0.5,3.1,1.5
		c0.9,1,1.3,2.2,1.3,3.6c0,1.5-0.4,2.7-1.3,3.7c-0.9,1-1.9,1.4-3.1,1.4S31.9-22.1,31-23c-0.9-1-1.3-2.2-1.3-3.7
		c0-1.4,0.4-2.6,1.3-3.6C31.9-31.3,32.9-31.8,34.1-31.8z M56.8-31.8c1.2,0,2.2,0.5,3.1,1.5c0.9,1,1.3,2.2,1.3,3.6
		c0,1.5-0.4,2.7-1.3,3.7c-0.9,1-1.9,1.4-3.1,1.4c-1.2,0-2.2-0.5-3.1-1.4c-0.9-1-1.3-2.2-1.3-3.7c0-1.4,0.4-2.6,1.3-3.6
		C54.7-31.3,55.7-31.8,56.8-31.8z"/>
</g>
<g id="Thin-S" transform="matrix(1 0 0 1 811.863 696)">
	<path d="M44.5-72.9c5.2,0,10.1,1,14.6,2.9c4.5,2,8.6,4.7,12,8.2c3.5,3.5,6.2,7.5,8.2,12s2.9,9.4,2.9,14.6s-1,10-2.9,14.6
		s-4.7,8.6-8.2,12c-3.5,3.5-7.5,6.2-12,8.2s-9.4,2.9-14.6,2.9c-5.2,0-10-1-14.6-2.9c-4.6-2-8.6-4.7-12-8.2c-3.5-3.5-6.2-7.5-8.1-12
		c-2-4.5-3-9.4-3-14.6s1-10,3-14.6c2-4.5,4.7-8.6,8.1-12s7.5-6.2,12-8.2C34.5-72,39.4-72.9,44.5-72.9z M44.5-69.6
		c-4.7,0-9.2,0.9-13.3,2.7c-4.2,1.8-7.8,4.2-10.9,7.4c-3.1,3.1-5.6,6.8-7.4,11c-1.8,4.2-2.7,8.6-2.7,13.3s0.9,9.2,2.7,13.3
		c1.8,4.2,4.2,7.8,7.4,11s6.8,5.6,10.9,7.4c4.2,1.8,8.6,2.7,13.3,2.7c4.8,0,9.2-0.9,13.4-2.7C62-5.4,65.7-7.8,68.8-11
		c3.1-3.1,5.6-6.8,7.4-11c1.8-4.2,2.7-8.6,2.7-13.3s-0.9-9.2-2.7-13.3c-1.8-4.2-4.2-7.8-7.4-11c-3.1-3.1-6.8-5.6-10.9-7.4
		C53.7-68.7,49.3-69.6,44.5-69.6z M44.5-53.8c2.5,0,4.7,0.5,6.6,1.4c1.9,0.9,3.4,2,4.4,3.1c1.1,1.2,1.6,2.1,1.6,2.9
		c0,0.3-0.1,0.5-0.4,0.6c-0.2,0.1-0.5,0-0.7-0.1c-1.2-0.9-2.7-1.8-4.6-2.6c-1.9-0.8-4.2-1.1-7-1.1c-2.7,0-5,0.4-6.9,1.1
		c-1.9,0.8-3.5,1.6-4.6,2.6c-0.2,0.2-0.5,0.2-0.7,0.1c-0.2-0.1-0.3-0.3-0.3-0.6c0-0.7,0.5-1.7,1.6-2.9c1.1-1.2,2.5-2.2,4.4-3.1
		C39.9-53.3,42.1-53.8,44.5-53.8z M33.1-31.6c1,0,2,0.5,2.8,1.4c0.8,0.9,1.2,2,1.2,3.4c0,1.3-0.4,2.4-1.2,3.3
		c-0.8,0.9-1.7,1.4-2.8,1.4c-1,0-2-0.5-2.7-1.4c-0.8-0.9-1.2-2-1.2-3.3c0-1.3,0.4-2.5,1.2-3.4C31.1-31.1,32-31.6,33.1-31.6z
		 M56.1-31.6c1,0,2,0.5,2.7,1.4c0.8,0.9,1.2,2,1.2,3.4c0,1.3-0.4,2.4-1.1,3.3c-0.8,0.9-1.7,1.4-2.8,1.4c-1,0-2-0.5-2.8-1.4
		c-0.8-0.9-1.2-2-1.2-3.3c0-1.3,0.4-2.5,1.2-3.4C54.1-31.1,55-31.6,56.1-31.6z"/>
</g>
<g id="Ultralight-S" transform="matrix(1 0 0 1 515.649 696)">
	<path d="M44-72.5c5.1,0,10,1,14.4,2.9c4.5,1.9,8.4,4.6,11.9,8c3.4,3.4,6.1,7.4,8.1,11.9c1.9,4.5,2.9,9.3,2.9,14.4
		c0,5.1-1,10-2.9,14.4c-1.9,4.5-4.6,8.4-8.1,11.9c-3.4,3.4-7.4,6.1-11.9,8C54,1,49.2,2,44,2c-5.1,0-9.9-1-14.4-2.9
		c-4.5-1.9-8.4-4.6-11.9-8c-3.4-3.4-6.1-7.4-8-11.9c-1.9-4.5-2.9-9.3-2.9-14.4c0-5.1,1-10,2.9-14.4c1.9-4.5,4.6-8.4,8-11.9
		c3.4-3.4,7.4-6.1,11.9-8S38.9-72.5,44-72.5z M44-70.2c-4.8,0-9.3,0.9-13.6,2.7c-4.2,1.8-8,4.3-11.2,7.5c-3.2,3.2-5.7,6.9-7.5,11.2
		C9.9-44.6,9-40.1,9-35.3s0.9,9.3,2.7,13.6c1.8,4.2,4.3,8,7.5,11.2c3.2,3.2,6.9,5.7,11.2,7.5c4.2,1.8,8.8,2.7,13.6,2.7
		c4.8,0,9.4-0.9,13.6-2.7c4.2-1.8,8-4.3,11.2-7.5c3.2-3.2,5.7-6.9,7.5-11.2c1.8-4.2,2.7-8.8,2.7-13.6s-0.9-9.3-2.7-13.6
		c-1.8-4.2-4.3-8-7.5-11.2c-3.2-3.2-6.9-5.7-11.2-7.5C53.4-69.3,48.9-70.2,44-70.2z M44-53.5c2.4,0,4.5,0.5,6.4,1.4
		c1.9,0.9,3.3,2,4.3,3.1c1,1.1,1.6,2.1,1.6,2.8c0,0.3-0.1,0.4-0.3,0.5c-0.2,0-0.3,0-0.5-0.1c-1.1-1.1-2.6-2-4.6-2.8
		c-2-0.8-4.3-1.2-7-1.2c-2.7,0-5,0.4-7,1.2c-2,0.8-3.5,1.7-4.6,2.8c-0.2,0.1-0.3,0.2-0.5,0.1c-0.2,0-0.3-0.2-0.3-0.5
		c0-0.7,0.5-1.6,1.6-2.8c1.1-1.1,2.5-2.2,4.3-3.1C39.5-53.1,41.6-53.5,44-53.5z M32.5-31.5c0.9,0,1.8,0.4,2.5,1.3
		c0.7,0.9,1.1,2,1.1,3.2s-0.4,2.3-1.1,3.1c-0.7,0.9-1.6,1.3-2.5,1.3c-1,0-1.9-0.4-2.6-1.3c-0.7-0.9-1.1-1.9-1.1-3.1s0.4-2.3,1.1-3.2
		C30.6-31,31.5-31.5,32.5-31.5z M55.6-31.5c0.9,0,1.8,0.4,2.5,1.3c0.7,0.9,1.1,2,1.1,3.2s-0.4,2.3-1.1,3.1s-1.6,1.3-2.5,1.3
		c-1,0-1.9-0.4-2.6-1.3c-0.7-0.9-1.1-1.9-1.1-3.1s0.4-2.3,1.1-3.2C53.8-31,54.6-31.5,55.6-31.5z"/>
</g>
</svg>
