<?xml version="1.0" encoding="utf-8"?>
<!-- Generator: Adobe Illustrator 26.0.2, SVG Export Plug-In . SVG Version: 6.00 Build 0)  -->
<svg version="1.1" id="Layer_1" xmlns="http://www.w3.org/2000/svg" xmlns:xlink="http://www.w3.org/1999/xlink" x="0px" y="0px"
	 viewBox="0 0 3300 2200" style="enable-background:new 0 0 3300 2200;" xml:space="preserve">
<style type="text/css">
	.st0{fill:#FFFFFF;}
	.st1{fill:none;stroke:#000000;stroke-width:0.5;}
	.st2{font-family:'Helvetica-Bold';}
	.st3{font-size:13px;}
	.st4{font-family:'Helvetica';}
	.st5{fill:none;stroke:#00AEEF;stroke-width:0.5;}
	.st6{fill:#27AAE1;}
	.st7{fill:none;stroke:#27AAE1;stroke-width:0.5;}
</style>
<g id="Notes">
	<rect id="artboard" class="st0" width="3300" height="2200"/>
	<line class="st1" x1="263" y1="292" x2="3036" y2="292"/>
	<text transform="matrix(1 0 0 1 263 322)" class="st2 st3">Weight/Scale Variations</text>
	<text transform="matrix(1 0 0 1 534.0633 322)" class="st4 st3">Ultralight</text>
	<text transform="matrix(1 0 0 1 843.7775 322)" class="st4 st3">Thin</text>
	<text transform="matrix(1 0 0 1 1139.035 322)" class="st4 st3">Light</text>
	<text transform="matrix(1 0 0 1 1427.0773 322)" class="st4 st3">Regular</text>
	<text transform="matrix(1 0 0 1 1723.4419 322)" class="st4 st3">Medium</text>
	<text transform="matrix(1 0 0 1 2016.1719 322)" class="st4 st3">Semibold</text>
	<text transform="matrix(1 0 0 1 2326.9705 322)" class="st4 st3">Bold</text>
	<text transform="matrix(1 0 0 1 2618.2659 322)" class="st4 st3">Heavy</text>
	<text transform="matrix(1 0 0 1 2917.5054 322)" class="st4 st3">Black</text>
	<line class="st1" x1="263" y1="1903" x2="3036" y2="1903"/>
	<g transform="matrix(1 0 0 1 263 1933)">
		<path d="M9.2,0.8c1.1,0,2.1-0.2,3-0.6c1-0.4,1.8-1,2.5-1.7S16-3.1,16.4-4C16.8-5,17-6,17-7s-0.2-2.1-0.6-3c-0.4-1-1-1.8-1.7-2.5
			s-1.6-1.3-2.5-1.7c-1-0.4-2-0.6-3-0.6c-1.1,0-2.1,0.2-3,0.6s-1.8,1-2.5,1.7C3-11.9,2.4-11,2-10.1c-0.4,1-0.6,2-0.6,3S1.6-5,2-4
			s1,1.8,1.7,2.5s1.6,1.3,2.5,1.7C7.2,0.6,8.2,0.8,9.2,0.8z M9.2-0.7c-0.9,0-1.7-0.2-2.5-0.5C6-1.5,5.3-1.9,4.7-2.5s-1-1.3-1.4-2
			C3-5.3,2.9-6.2,2.9-7.1s0.2-1.7,0.5-2.5s0.8-1.5,1.4-2c0.6-0.6,1.3-1,2-1.4c0.8-0.3,1.6-0.5,2.5-0.5s1.7,0.2,2.5,0.5
			s1.5,0.8,2,1.4c0.6,0.6,1,1.3,1.4,2c0.3,0.8,0.5,1.6,0.5,2.5s-0.2,1.7-0.5,2.5s-0.8,1.5-1.4,2c-0.6,0.6-1.3,1-2,1.4
			C11-0.8,10.1-0.7,9.2-0.7z M5.7-7.1c0,0.2,0.1,0.4,0.2,0.5C6-6.4,6.2-6.3,6.4-6.3h2.1v2.1c0,0.2,0.1,0.4,0.2,0.5
			C8.8-3.5,9-3.5,9.2-3.5s0.4-0.1,0.5-0.2C9.9-3.8,10-4,10-4.2v-2.1h2.1c0.2,0,0.4-0.1,0.5-0.2s0.2-0.3,0.2-0.5s-0.1-0.4-0.2-0.5
			c-0.1-0.1-0.3-0.2-0.5-0.2H10v-2.1c0-0.2-0.1-0.4-0.2-0.5c-0.1-0.1-0.3-0.2-0.5-0.2s-0.4,0.1-0.5,0.2C8.7-10.2,8.6-10,8.6-9.8v2.1
			H6.4C6.2-7.8,6-7.7,5.9-7.6C5.7-7.5,5.7-7.3,5.7-7.1z"/>
	</g>
	<g transform="matrix(1 0 0 1 281.867 1933)">
		<path d="M11.7,2.9c1.4,0,2.6-0.3,3.8-0.8s2.3-1.2,3.2-2.2c0.9-0.9,1.6-2,2.2-3.2c0.5-1.2,0.8-2.5,0.8-3.8c0-1.4-0.3-2.6-0.8-3.8
			s-1.2-2.3-2.2-3.2c-0.9-0.9-2-1.6-3.2-2.2c-1.2-0.5-2.5-0.8-3.8-0.8s-2.6,0.3-3.8,0.8s-2.3,1.2-3.2,2.2c-0.9,0.9-1.6,2-2.2,3.2
			C2-9.7,1.7-8.4,1.7-7.1c0,1.4,0.3,2.6,0.8,3.8S3.8-0.9,4.7,0s2,1.6,3.2,2.2S10.3,2.9,11.7,2.9z M11.7,1.2c-1.2,0-2.2-0.2-3.2-0.6
			s-1.9-1-2.6-1.8C5.1-1.9,4.5-2.8,4.1-3.8S3.4-5.9,3.4-7.1S3.6-9.3,4-10.3s1-1.9,1.8-2.6c0.8-0.8,1.6-1.4,2.6-1.8
			c1-0.4,2.1-0.6,3.2-0.6s2.2,0.2,3.2,0.6c1,0.4,1.9,1,2.6,1.8c0.8,0.8,1.4,1.6,1.8,2.6s0.6,2.1,0.6,3.2c0,1.2-0.2,2.2-0.6,3.2
			s-1,1.9-1.8,2.6c-0.8,0.8-1.6,1.4-2.6,1.8S12.9,1.2,11.7,1.2z M7.2-7.1c0,0.2,0.1,0.4,0.2,0.6C7.6-6.3,7.8-6.2,8-6.2h2.9v2.9
			c0,0.2,0.1,0.4,0.2,0.6c0.1,0.2,0.3,0.2,0.6,0.2c0.2,0,0.4-0.1,0.6-0.2c0.2-0.2,0.2-0.4,0.2-0.6v-2.9h2.9c0.2,0,0.4-0.1,0.6-0.2
			s0.2-0.3,0.2-0.6c0-0.2-0.1-0.4-0.2-0.6c-0.2-0.2-0.4-0.2-0.6-0.2h-2.9v-2.9c0-0.3-0.1-0.5-0.2-0.6s-0.4-0.2-0.6-0.2
			c-0.2,0-0.4,0.1-0.6,0.2c-0.1,0.2-0.2,0.4-0.2,0.6v2.9H8c-0.3,0-0.5,0.1-0.6,0.2C7.3-7.5,7.2-7.3,7.2-7.1z"/>
	</g>
	<g transform="matrix(1 0 0 1 305.646 1933)">
		<path d="M15,5.7c1.4,0,2.7-0.2,4-0.6s2.4-1,3.5-1.8s2-1.7,2.8-2.8C26-0.6,26.6-1.8,27-3.1s0.6-2.6,0.6-4s-0.2-2.7-0.6-4
			s-1-2.4-1.8-3.5s-1.7-2-2.8-2.8c-1.1-0.8-2.2-1.4-3.5-1.8s-2.6-0.6-4-0.6s-2.7,0.2-4,0.6s-2.4,1-3.5,1.8s-2,1.7-2.8,2.8
			s-1.4,2.2-1.8,3.5s-0.6,2.6-0.6,4s0.2,2.7,0.6,4s1,2.4,1.8,3.5s1.7,2,2.8,2.8C8.6,4,9.7,4.6,11,5C12.2,5.4,13.6,5.7,15,5.7z
			 M15,3.8c-1.2,0-2.4-0.2-3.4-0.6c-1.1-0.4-2.1-0.9-3-1.5c-1-0.6-1.8-1.4-2.4-2.3C5.5-1.5,5-2.5,4.6-3.6C4.3-4.7,4.1-5.8,4.1-7.1
			c0-1.2,0.2-2.4,0.5-3.5c0.4-1.1,0.9-2.1,1.5-3c0.7-0.9,1.4-1.7,2.4-2.4c0.9-0.7,1.9-1.2,3-1.5c1.1-0.4,2.2-0.5,3.4-0.5
			s2.4,0.2,3.5,0.5c1.1,0.4,2.1,0.9,3,1.5c0.9,0.7,1.7,1.5,2.4,2.4c0.7,0.9,1.2,1.9,1.5,3c0.4,1.1,0.6,2.2,0.6,3.5
			c0,1.2-0.2,2.4-0.5,3.4c-0.4,1.1-0.9,2.1-1.5,3c-0.7,0.9-1.5,1.7-2.4,2.4s-1.9,1.2-3,1.5C17.3,3.7,16.2,3.8,15,3.8z M9.2-7.1
			c0,0.3,0.1,0.5,0.3,0.6c0.2,0.2,0.4,0.2,0.7,0.2h3.9v4c0,0.3,0.1,0.5,0.2,0.7c0.2,0.2,0.4,0.3,0.6,0.3c0.3,0,0.5-0.1,0.7-0.3
			s0.3-0.4,0.3-0.7v-4h4c0.3,0,0.5-0.1,0.7-0.2c0.2-0.2,0.3-0.4,0.3-0.6c0-0.3-0.1-0.5-0.3-0.7C20.3-7.9,20.1-8,19.8-8h-4v-3.9
			c0-0.3-0.1-0.5-0.3-0.7s-0.4-0.3-0.7-0.3s-0.5,0.1-0.6,0.3C14-12.4,14-12.2,14-11.9V-8h-3.9C9.8-8,9.6-7.9,9.5-7.7
			C9.3-7.5,9.2-7.3,9.2-7.1z"/>
	</g>
	<text transform="matrix(1 0 0 1 263 1953)" class="st2 st3">Design Variations</text>
	<text transform="matrix(1 0 0 1 263 1971)" class="st4 st3">Symbols are supported in up to nine weights and three scales.</text>
	<text transform="matrix(1 0 0 1 263 1989)" class="st4 st3">For optimal layout with text and other symbols, vertically align</text>
	<text transform="matrix(1 0 0 1 263 2007)" class="st4 st3">symbols with the adjacent text.</text>
	<line class="st5" x1="776" y1="1919" x2="776" y2="1933"/>
	<g transform="matrix(1 0 0 1 776 1933)">
		<path d="M3.3,0.2c0.3,0,0.5-0.1,0.6-0.2C4-0.1,4.2-0.3,4.3-0.6L5.5-4h5.8l1.3,3.4C12.7-0.3,12.8-0.1,13,0c0.1,0.1,0.3,0.2,0.6,0.2
			s0.5-0.1,0.6-0.2c0.2-0.1,0.2-0.3,0.2-0.6c0-0.1,0-0.3-0.1-0.5L9.7-13.4c-0.1-0.3-0.3-0.5-0.5-0.7c-0.2-0.1-0.5-0.2-0.8-0.2
			c-0.6,0-1,0.3-1.2,0.9L2.6-1.2C2.5-1,2.5-0.8,2.5-0.6S2.6-0.2,2.7,0S3.1,0.2,3.3,0.2z M6-5.5l2.4-6.6l0,0l2.4,6.6
			C10.8-5.5,6-5.5,6-5.5z"/>
	</g>
	<line class="st5" x1="793.2" y1="1919" x2="793.2" y2="1933"/>
	<text transform="matrix(1 0 0 1 776 1953)" class="st2 st3">Margins</text>
	<text transform="matrix(1 0 0 1 776 1971)" class="st4 st3">Leading and trailing margins on the left and right side of each symbol</text>
	<text transform="matrix(1 0 0 1 776 1989)" class="st4 st3">can be adjusted by modifying the x-location of the margin guidelines.</text>
	<text transform="matrix(1 0 0 1 776 2007)" class="st4 st3">Modifications are automatically applied proportionally to all</text>
	<text transform="matrix(1 0 0 1 776 2025)" class="st4 st3">scales and weights.</text>
	<g transform="matrix(1 0 0 1 1289 1933)">
		<path d="M2.8,1.9l1.7,1.7C5,4,5.4,4.2,5.9,4.2s0.9-0.3,1.4-0.8L18-8.4l-1-1L6.4,2.3C6.2,2.5,6.1,2.6,5.9,2.6S5.5,2.5,5.3,2.3
			L4.1,1.1C3.9,0.9,3.8,0.7,3.8,0.5S3.9,0.1,4.1,0l11.5-10.8l-1-1L3-0.9C2.6-0.4,2.3,0,2.3,0.5C2.2,1,2.4,1.4,2.8,1.9z M9.3-16.3
			c-0.2,0.2-0.3,0.4-0.4,0.7c0,0.3,0,0.5,0.1,0.7s0.3,0.3,0.5,0.4c0.2,0.1,0.5,0.1,0.8,0c0.7-0.2,1.5-0.2,2.2-0.2s1.5,0.3,2.2,0.7
			l-0.6,1.5c-0.2,0.4-0.2,0.8-0.1,1.1c0.1,0.3,0.2,0.6,0.5,0.9l2.3,2.3C17-8,17.3-7.8,17.5-7.8s0.5,0,0.8,0L19.4-8l0.7,0.7v0.6
			c0,0.2,0,0.5,0.1,0.7s0.2,0.4,0.5,0.7l0.8,0.7c0.2,0.2,0.5,0.4,0.8,0.4s0.5-0.1,0.8-0.3L26-7.4c0.2-0.2,0.3-0.5,0.3-0.8
			c0-0.3-0.1-0.5-0.4-0.8L25-9.9c-0.2-0.2-0.5-0.4-0.7-0.5s-0.4-0.1-0.7-0.1H23l-0.6-0.6l0.2-1.1c0.1-0.3,0.1-0.5,0-0.8
			s-0.3-0.5-0.6-0.8L19.9-16c-0.8-0.8-1.7-1.4-2.7-1.9c-0.9-0.4-1.9-0.6-2.8-0.6c-1,0-1.9,0.2-2.8,0.5C10.8-17.6,10-17.1,9.3-16.3z
			 M10.8-16c0.6-0.4,1.3-0.8,1.9-0.9c0.7-0.2,1.4-0.2,2.1-0.2c0.7,0.1,1.4,0.3,2.1,0.6c0.7,0.3,1.3,0.7,1.8,1.3l2.4,2.4
			c0.1,0.1,0.2,0.2,0.2,0.3s0,0.3,0,0.4L21-10.5L22.5-9l1-0.1c0.1,0,0.2,0,0.3,0c0.1,0,0.1,0.1,0.2,0.2l0.6,0.6l-2.4,2.4l-0.6-0.6
			c-0.1-0.1-0.2-0.2-0.2-0.2c0-0.1,0-0.2,0-0.3l0.1-1L20-9.5l-1.5,0.3c-0.2,0-0.3,0-0.4,0s-0.2-0.1-0.3-0.2l-2-2
			c-0.1-0.1-0.2-0.2-0.2-0.3s0-0.3,0.1-0.4l0.9-2.1c-0.8-0.7-1.7-1.2-2.6-1.5c-1-0.3-2-0.3-3,0c-0.1,0-0.1,0-0.2,0
			C10.7-15.9,10.7-15.9,10.8-16z"/>
	</g>
	<text transform="matrix(1 0 0 1 1289 1953)" class="st2 st3">Exporting</text>
	<text transform="matrix(1 0 0 1 1289 1971)" class="st4 st3">Symbols should be outlined when exporting to ensure the</text>
	<text transform="matrix(1 0 0 1 1289 1989)" class="st4 st3">design is preserved when submitting to Xcode.</text>
	<text id="template-version" transform="matrix(1 0 0 1 2952.4141 1933)" class="st4 st3">Template v.3.0</text>
	<text transform="matrix(1 0 0 1 2865.4575 1951)" class="st4 st3">Requires Xcode 13 or greater</text>
	<text id="descriptive-name" transform="matrix(1 0 0 1 2810.5693 1969)" class="st4 st3">Generated from custom.airplane.arrival</text>
	<text transform="matrix(1 0 0 1 2912.4111 1987)" class="st4 st3">Typeset at 100 points</text>
	<text transform="matrix(1 0 0 1 263 726)" class="st4 st3">Small</text>
	<text transform="matrix(1 0 0 1 263 1156)" class="st4 st3">Medium</text>
	<text transform="matrix(1 0 0 1 263 1586)" class="st4 st3">Large</text>
</g>
<g id="Guides">
	<g id="H-reference" transform="matrix(1 0 0 1 339 696)">
		<path class="st6" d="M1,0h2.6l25.7-67.1H30v-3.3h-1.9L1,0z M11.7-24.5H47l-0.8-2.2H12.4L11.7-24.5z M55.1,0h2.6L30.6-70.5h-1.2
			v3.3L55.1,0z"/>
	</g>
	<line id="Baseline-S" class="st7" x1="263" y1="696" x2="3036" y2="696"/>
	<line id="Capline-S" class="st7" x1="263" y1="625.5" x2="3036" y2="625.5"/>
	<g id="H-reference_00000169531122916388397330000006052384042796351144_" transform="matrix(1 0 0 1 339 1126)">
		<path class="st6" d="M1,0h2.6l25.7-67.1H30v-3.3h-1.9L1,0z M11.7-24.5H47l-0.8-2.2H12.4L11.7-24.5z M55.1,0h2.6L30.6-70.5h-1.2
			v3.3L55.1,0z"/>
	</g>
	<line id="Baseline-M" class="st7" x1="263" y1="1126" x2="3036" y2="1126"/>
	<line id="Capline-M" class="st7" x1="263" y1="1055.5" x2="3036" y2="1055.5"/>
	<g id="H-reference_00000016057799290180385060000010827592187321777537_" transform="matrix(1 0 0 1 339 1556)">
		<path class="st6" d="M1,0h2.6l25.7-67.1H30v-3.3h-1.9L1,0z M11.7-24.5H47l-0.8-2.2H12.4L11.7-24.5z M55.1,0h2.6L30.6-70.5h-1.2
			v3.3L55.1,0z"/>
	</g>
	<line id="Baseline-L" class="st7" x1="263" y1="1556" x2="3036" y2="1556"/>
	<line id="Capline-L" class="st7" x1="263" y1="1485.5" x2="3036" y2="1485.5"/>
	<line id="left-margin-Regular-M" class="st5" x1="1379.3" y1="1030.8" x2="1379.3" y2="1150.1"/>
	<line id="right-margin-Regular-M" class="st5" x1="1520.4" y1="1030.8" x2="1520.4" y2="1150.1"/>
</g>
<g id="Black-L" transform="matrix(1 0 0 1 2837.48 1556)">
	<path d="M155.5-47.9L46.7-18.7c-4.6,1.2-9,1.6-13.2,1.1s-7.7-1.8-10.5-3.9s-4.6-4.8-5.2-8.2c-0.5-3.2,0.1-6.2,1.9-9.1
		c1.8-2.9,4.4-5.5,7.7-7.6c3.4-2.2,7.2-3.6,11.5-4.5l40.5-8c1.2-0.3,2.3-0.7,3-1.2c0.8-0.5,1.6-1.4,2.5-2.7l32.9-47.4
		c1.4-2.1,3.4-3.4,5.7-4l4.8-1.2c1.5-0.4,2.7,0,3.6,1.1c1,1.1,1.3,2.5,0.9,4.1L120.2-55l-8.9-10.4l46.3-9l-30.1,18.8l33.6-39.3
		c1.6-2,3.9-2.7,6.8-2.1l2.7,0.6c1.3,0.3,2.3,0.9,3,1.9s0.9,2.2,0.6,3.5l-6.6,32.5c-0.6,2.5-1.9,4.7-3.9,6.5
		C161.6-50.2,158.9-48.8,155.5-47.9z M165.3,25.6H26.7c-2.8,0-5.1-1-7.1-2.9c-2-2-2.9-4.3-2.9-7.1s1-5.1,2.9-7.1
		c2-2,4.3-2.9,7.1-2.9h138.6c2.8,0,5.1,1,7.1,2.9c2,2,2.9,4.3,2.9,7.1c0,2.7-1,5.1-2.9,7.1C170.5,24.7,168.1,25.6,165.3,25.6z"/>
</g>
<g id="Heavy-L" transform="matrix(1 0 0 1 2542.03 1556)">
	<path d="M154.1-47.2L45.6-18c-4.5,1.2-8.7,1.6-12.8,1.1s-7.5-1.7-10.3-3.7s-4.5-4.7-5.1-8c-0.5-3.1,0.1-6,1.9-8.9
		c1.8-2.8,4.3-5.3,7.6-7.4c3.3-2.1,7-3.5,11.2-4.3l40.1-7.9c1.3-0.3,2.3-0.7,3.1-1.2c0.8-0.5,1.6-1.5,2.5-2.8l33-47.6
		c1.4-2,3.1-3.2,5.4-3.7l4.7-1.1c1.3-0.3,2.4,0,3.2,1c0.9,1,1.1,2.2,0.8,3.7l-12.6,54.2l-7.7-9l43.1-8.4l-25.3,15.8l31.6-37
		c1.5-1.8,3.6-2.5,6.3-1.9l2.6,0.5c1.2,0.3,2.1,0.8,2.7,1.7c0.6,0.9,0.8,1.9,0.5,3.2l-6.6,32.6c-0.5,2.4-1.8,4.5-3.7,6.1
		C159.8-49.3,157.3-48,154.1-47.2z M163.7,24.4H25.8c-2.4,0-4.5-0.9-6.2-2.6S17,18,17,15.6s0.9-4.5,2.6-6.2c1.7-1.7,3.8-2.6,6.2-2.6
		h137.9c2.4,0,4.5,0.9,6.2,2.6c1.7,1.7,2.6,3.8,2.6,6.2s-0.9,4.5-2.6,6.2C168.2,23.5,166.1,24.4,163.7,24.4z"/>
</g>
<g id="Bold-L" transform="matrix(1 0 0 1 2246.95 1556)">
	<path d="M152.2-46.1L44.2-17c-4.3,1.2-8.5,1.5-12.4,1.1s-7.3-1.6-10-3.5s-4.3-4.5-4.9-7.7c-0.5-3,0.1-5.9,1.8-8.6
		c1.7-2.7,4.2-5.1,7.4-7.1S33-46.2,37-47l39.4-7.8c1.3-0.3,2.3-0.7,3.1-1.2c0.8-0.6,1.7-1.5,2.6-2.8l33.2-47.9
		c1.2-1.8,2.9-2.9,4.9-3.4l4.5-1.1c1.1-0.3,2,0,2.8,0.8c0.7,0.9,0.9,1.9,0.6,3.2l-12.4,53l-6.2-7.3l39.4-7.7l-19.7,12.3l29.2-33.9
		c1.4-1.7,3.3-2.2,5.7-1.7l2.4,0.5c1.1,0.2,1.9,0.7,2.4,1.5s0.7,1.7,0.4,2.7l-6.7,32.6c-0.5,2.2-1.6,4.1-3.4,5.6
		C157.4-48,155.1-46.9,152.2-46.1z M161.6,22.9h-137c-2,0-3.7-0.7-5.1-2.1c-1.4-1.4-2.1-3.1-2.1-5.1s0.7-3.7,2.1-5.1
		c1.4-1.4,3.1-2.1,5.1-2.1h137c2,0,3.7,0.7,5.1,2.1c1.4,1.4,2.1,3.1,2.1,5.1s-0.7,3.7-2.1,5.1C165.3,22.2,163.6,22.9,161.6,22.9z"/>
</g>
<g id="Semibold-L" transform="matrix(1 0 0 1 1951.36 1556)">
	<path d="M151-45.3l-107.7,29c-4.2,1.1-8.3,1.5-12.1,1.2c-3.9-0.4-7.1-1.5-9.7-3.3c-2.6-1.8-4.2-4.3-4.8-7.4
		c-0.5-2.9,0.1-5.7,1.8-8.4c1.7-2.6,4.1-4.9,7.2-6.8c3.2-1.9,6.7-3.3,10.7-4.1l38.9-7.7c1.3-0.3,2.3-0.7,3.2-1.2
		c0.8-0.6,1.7-1.5,2.6-2.8l33.3-48c1.1-1.7,2.7-2.7,4.6-3.2l4.4-1.1c1-0.3,1.8,0,2.4,0.7s0.8,1.7,0.6,2.8L114-53.4l-5.2-6.1
		l36.8-7.2l-15.8,9.8l27.7-32.3c1.3-1.5,3-2.1,5.3-1.6l2.3,0.5c1,0.2,1.7,0.7,2.1,1.3c0.4,0.7,0.6,1.5,0.4,2.4L160.9-54
		c-0.5,2.1-1.5,3.9-3.2,5.3C156-47.1,153.8-46.1,151-45.3z M160.3,21.9H23.9c-1.7,0-3.2-0.6-4.4-1.8c-1.2-1.2-1.8-2.7-1.8-4.3
		c0-1.7,0.6-3.2,1.8-4.4c1.2-1.2,2.7-1.8,4.4-1.8h136.4c1.7,0,3.2,0.6,4.4,1.8s1.8,2.7,1.8,4.4s-0.6,3.1-1.8,4.3
		C163.5,21.3,162,21.9,160.3,21.9z"/>
</g>
<g id="Medium-L" transform="matrix(1 0 0 1 1655.5 1556)">
	<path d="M150.1-44.8l-107.5,29c-4.2,1.1-8.1,1.5-11.9,1.2s-7-1.4-9.6-3.2s-4.2-4.2-4.7-7.3c-0.5-2.9,0.1-5.6,1.8-8.2
		c1.7-2.6,4-4.8,7.1-6.7s6.6-3.2,10.5-4l38.5-7.6c1.3-0.3,2.3-0.7,3.2-1.2c0.9-0.6,1.7-1.5,2.6-2.7l33.4-48.2c1.1-1.6,2.5-2.6,4.3-3
		l4.3-1c0.9-0.2,1.6,0,2.2,0.6c0.6,0.7,0.7,1.5,0.5,2.6L112.5-53l-4.4-5.2l34.8-6.8l-12.8,8l26.5-30.8c1.2-1.4,2.9-1.9,5-1.5
		l2.2,0.5c0.9,0.2,1.6,0.6,2,1.2s0.5,1.3,0.3,2.2l-6.7,32.7c-0.4,2-1.5,3.7-3,5.1C154.8-46.5,152.7-45.5,150.1-44.8z M159.3,21.1
		h-136c-1.5,0-2.7-0.5-3.8-1.6c-1.1-1.1-1.6-2.3-1.6-3.8s0.5-2.8,1.6-3.8s2.3-1.6,3.8-1.6h136c1.5,0,2.7,0.5,3.8,1.6
		c1.1,1,1.6,2.3,1.6,3.8s-0.5,2.7-1.6,3.8S160.7,21.1,159.3,21.1z"/>
</g>
<g id="Regular-L" transform="matrix(1 0 0 1 1359.89 1556)">
	<path d="M148.9-44L41.7-15c-4.1,1.1-8,1.5-11.7,1.2s-6.8-1.3-9.3-3.1c-2.5-1.7-4.1-4.1-4.6-7.1c-0.5-2.8,0.1-5.5,1.7-8s4-4.6,7-6.4
		c3-1.8,6.5-3.1,10.3-3.9l38.1-7.5c1.3-0.2,2.4-0.7,3.2-1.3c0.9-0.6,1.8-1.5,2.6-2.7l33.6-48.4c1-1.4,2.3-2.4,4-2.8l4.2-1
		c0.8-0.2,1.4,0,1.9,0.5c0.5,0.6,0.6,1.3,0.4,2.2L111-52.6l-3.4-4l32.2-6.3l-9,5.5l24.9-29c1.1-1.3,2.6-1.8,4.6-1.4l2.1,0.5
		c0.8,0.2,1.4,0.5,1.7,1.1c0.3,0.5,0.4,1.2,0.3,1.9l-6.8,32.7c-0.4,1.9-1.4,3.5-2.8,4.7C153.2-45.6,151.3-44.7,148.9-44z
		 M157.9,20.1H22.5c-1.2,0-2.2-0.4-3.1-1.3s-1.3-1.9-1.3-3c0-1.2,0.4-2.2,1.3-3.1c0.9-0.8,1.9-1.3,3.1-1.3h135.4
		c1.2,0,2.2,0.4,3.1,1.3c0.9,0.8,1.3,1.9,1.3,3.1s-0.4,2.2-1.3,3C160.1,19.7,159.1,20.1,157.9,20.1z"/>
</g>
<g id="Light-L" transform="matrix(1 0 0 1 1064.7 1556)">
	<path d="M147.2-42.1L41-13.2c-4.2,1.1-8,1.6-11.6,1.3s-6.6-1.3-8.9-2.9c-2.4-1.7-3.8-3.9-4.4-6.8c-0.5-2.7,0.1-5.3,1.6-7.7
		s3.8-4.5,6.7-6.2c3-1.7,6.4-3,10.3-3.8l36.6-7.2c1.2-0.2,2.2-0.6,3-1.2c0.8-0.5,1.6-1.3,2.4-2.5l34-49c0.9-1.2,2-2.1,3.5-2.5
		l3.8-0.9c0.8-0.2,1.4-0.1,1.8,0.5c0.5,0.5,0.6,1.2,0.4,2l-12.3,49.9l-2.7-3.1l31.1-6.1l-6.8,4.1l24-27.9c1-1.2,2.4-1.6,4.3-1.2
		l1.7,0.4c0.8,0.2,1.3,0.5,1.6,0.9c0.3,0.5,0.4,1,0.2,1.8l-6.9,32.8c-0.4,1.7-1.1,3.1-2.3,4.1C150.8-43.4,149.2-42.6,147.2-42.1z
		 M156,19H21.3c-0.9,0-1.7-0.3-2.3-1s-1-1.4-1-2.3c0-0.9,0.3-1.7,1-2.3s1.4-1,2.3-1H156c0.9,0,1.7,0.3,2.3,1c0.7,0.6,1,1.4,1,2.3
		s-0.3,1.7-1,2.3S156.9,19,156,19z"/>
</g>
<g id="Thin-L" transform="matrix(1 0 0 1 769.999 1556)">
	<path d="M144.9-39.5L40.1-10.7C35.9-9.6,32-9.1,28.6-9.4s-6.2-1.2-8.4-2.8s-3.5-3.8-4-6.5c-0.4-2.6,0-5,1.4-7.3s3.5-4.2,6.4-5.9
		s6.2-2.9,10.2-3.7l34.5-6.8c1-0.2,1.9-0.6,2.6-1c0.7-0.5,1.4-1.1,2.1-2.1l34.5-49.8c0.7-1,1.7-1.7,2.9-2L114-98
		c0.8-0.2,1.3-0.1,1.8,0.4c0.4,0.5,0.6,1,0.4,1.8L103.8-47l-1.6-1.8l29.5-5.9l-3.9,2.3l22.8-26.5c0.9-1.1,2.2-1.5,3.8-1.1l1.2,0.3
		c0.7,0.1,1.1,0.4,1.4,0.7c0.2,0.4,0.3,0.9,0.2,1.6l-7,32.9c-0.3,1.4-0.9,2.5-1.7,3.3C147.6-40.5,146.4-39.9,144.9-39.5z
		 M153.5,17.6H19.8c-0.5,0-0.9-0.2-1.3-0.6s-0.6-0.9-0.6-1.4c0-0.6,0.2-1,0.6-1.4s0.8-0.6,1.3-0.6h133.7c0.5,0,0.9,0.2,1.3,0.6
		s0.6,0.8,0.6,1.4c0,0.5-0.2,1-0.6,1.4S154,17.6,153.5,17.6z"/>
</g>
<g id="Ultralight-L" transform="matrix(1 0 0 1 474.317 1556)">
	<path d="M146.7-39.7c0.7-0.7,1.1-1.6,1.4-2.8l7.1-33c0.1-0.6,0.1-1.1-0.2-1.5c-0.2-0.3-0.6-0.6-1.3-0.7l-1-0.2
		c-1.5-0.4-2.7,0-3.6,1L126.9-51l2.5-1.4l-28.8,5.7l1.1,1.1l12.5-48.3c0.2-0.7,0-1.2-0.4-1.6s-1-0.5-1.8-0.3l-3,0.8
		c-1.1,0.3-2,0.9-2.6,1.8L71.7-42.9c-0.6,0.8-1.2,1.4-1.9,1.9c-0.7,0.4-1.5,0.7-2.5,0.9l-33.5,6.6c-4,0.8-7.4,2-10.2,3.6
		s-4.9,3.5-6.2,5.7c-1.3,2.2-1.8,4.5-1.3,7c0.5,2.7,1.8,4.8,3.8,6.3c2.1,1.6,4.8,2.5,8.2,2.7s7.2-0.2,11.5-1.4l104.1-28.7
		C145-38.5,146-39,146.7-39.7z M153.1,16.5c0.2-0.2,0.4-0.6,0.4-0.9c0-0.4-0.1-0.7-0.4-0.9c-0.2-0.2-0.5-0.4-0.8-0.4H19
		c-0.3,0-0.6,0.1-0.8,0.4c-0.2,0.2-0.4,0.6-0.4,0.9c0,0.4,0.1,0.7,0.4,0.9c0.2,0.2,0.5,0.4,0.8,0.4h133.3
		C152.6,16.9,152.9,16.7,153.1,16.5z"/>
</g>
<g id="Black-M" transform="matrix(1 0 0 1 2858.21 1126)">
	<path d="M121.4-45.4L37-22.8c-3.7,1-7.2,1.3-10.5,0.8c-3.3-0.4-6.1-1.5-8.3-3.2s-3.6-3.9-4.1-6.5c-0.4-2.5,0.1-4.9,1.5-7.2
		s3.4-4.4,6.1-6.1c2.7-1.7,5.7-2.9,9.2-3.6l31.5-6.2c0.9-0.2,1.7-0.5,2.2-0.9c0.6-0.4,1.2-1.1,1.9-2l25.4-36.7
		c1.2-1.7,2.8-2.8,4.7-3.2l3.7-0.9c1.3-0.3,2.3,0,3.2,1c0.8,1,1.1,2.2,0.8,3.6l-10,43.6l-7.8-9.2L125-67L97.9-50l27.5-32.5
		c1.4-1.7,3.3-2.2,5.6-1.8l2.1,0.4c1.1,0.2,2,0.8,2.6,1.7c0.6,0.9,0.8,1.9,0.5,3L131.1-54c-0.5,2.1-1.5,3.8-3.2,5.3
		C126.3-47.2,124.1-46.1,121.4-45.4z M129.1,12.7H21.3c-2.4,0-4.4-0.8-6.1-2.5c-1.7-1.7-2.5-3.7-2.5-6.1s0.8-4.4,2.5-6.1
		s3.7-2.5,6.1-2.5h107.8c2.4,0,4.4,0.8,6.1,2.5s2.5,3.7,2.5,6.1s-0.8,4.4-2.5,6.1C133.6,11.9,131.5,12.7,129.1,12.7z"/>
</g>
<g id="Heavy-M" transform="matrix(1 0 0 1 2562.59 1126)">
	<path d="M120.1-44.9L35.9-22.3c-3.5,1-6.9,1.2-10.2,0.8c-3.2-0.4-5.9-1.4-8.1-3s-3.5-3.7-4-6.3c-0.4-2.4,0.1-4.8,1.5-7
		c1.4-2.3,3.4-4.2,6-5.9c2.6-1.7,5.6-2.8,8.9-3.4l31.2-6.2c1-0.2,1.7-0.5,2.3-0.9c0.6-0.4,1.2-1.1,1.9-2.1L91-93.1
		c1.1-1.6,2.6-2.6,4.4-3l3.7-0.9c1.1-0.3,2,0,2.8,0.9c0.7,0.9,1,1.9,0.7,3.2l-9.9,42.6L86-58.2l35.4-6.9L98.7-51l25.8-30.1
		c1.3-1.5,3-2.1,5.2-1.6l2.1,0.4c1,0.2,1.8,0.7,2.3,1.5s0.7,1.7,0.5,2.7l-5.1,25.2c-0.4,1.9-1.4,3.6-3,5
		C124.8-46.6,122.7-45.6,120.1-44.9z M127.7,11.7H20.5c-2.1,0-3.9-0.7-5.3-2.2C13.7,8,13,6.2,13,4.2c0-2.1,0.7-3.9,2.2-5.3
		c1.5-1.5,3.3-2.2,5.3-2.2h107.2c2.1,0,3.9,0.7,5.3,2.2c1.5,1.5,2.2,3.3,2.2,5.3c0,2.1-0.7,3.9-2.2,5.3
		C131.6,10.9,129.8,11.7,127.7,11.7z"/>
</g>
<g id="Bold-M" transform="matrix(1 0 0 1 2267.11 1126)">
	<path d="M118.9-44.3l-84,22.6c-3.4,0.9-6.7,1.2-9.8,0.8c-3.1-0.3-5.8-1.3-7.9-2.8c-2.1-1.5-3.4-3.5-3.9-6.1
		c-0.4-2.4,0.1-4.6,1.4-6.8c1.4-2.2,3.3-4,5.8-5.6s5.4-2.7,8.6-3.3L60-51.6c1-0.2,1.8-0.5,2.4-1c0.6-0.4,1.3-1.2,2-2.2l25.9-36.8
		c1-1.5,2.4-2.4,4-2.8l3.6-0.9c0.9-0.2,1.7,0,2.3,0.7s0.8,1.6,0.5,2.7L91-50.3l-5.5-6.4l32.1-6.3L99.9-52l23.8-27.5
		c1.1-1.4,2.7-1.8,4.7-1.4l2,0.4c0.9,0.2,1.6,0.6,2,1.3c0.4,0.7,0.6,1.4,0.4,2.3l-5.1,25.2c-0.4,1.8-1.3,3.4-2.8,4.6
		C123.3-45.9,121.3-44.9,118.9-44.3z M126.3,10.5H19.7c-1.7,0-3.2-0.6-4.5-1.9c-1.2-1.2-1.9-2.7-1.9-4.4s0.6-3.2,1.9-4.5
		c1.2-1.2,2.7-1.8,4.5-1.8h106.6c1.7,0,3.2,0.6,4.5,1.8c1.2,1.3,1.9,2.8,1.9,4.5s-0.6,3.2-1.9,4.4C129.6,9.9,128.1,10.5,126.3,10.5z
		"/>
</g>
<g id="Semibold-M" transform="matrix(1 0 0 1 1971.24 1126)">
	<path d="M117.9-43.9L34.1-21.3c-3.3,0.9-6.5,1.2-9.5,0.9c-3.1-0.3-5.6-1.2-7.7-2.7s-3.4-3.4-3.8-5.9c-0.4-2.3,0.1-4.5,1.4-6.6
		s3.3-3.9,5.7-5.4c2.5-1.5,5.3-2.6,8.4-3.2l30.7-6.1c1-0.2,1.9-0.5,2.5-1c0.7-0.5,1.4-1.2,2.1-2.2l25.7-37c1-1.4,2.2-2.3,3.8-2.6
		l3.5-0.9c0.8-0.2,1.5,0,2,0.6s0.7,1.4,0.5,2.4l-9.6,40.9l-4.6-5.4l29.7-5.8l-14.2,8.9l22.3-26c1-1.3,2.5-1.7,4.3-1.3l1.9,0.4
		c0.8,0.2,1.4,0.6,1.8,1.1c0.4,0.6,0.5,1.3,0.3,2L126.2-51c-0.4,1.8-1.3,3.2-2.7,4.4S120.2-44.5,117.9-43.9z M125.2,9.7H19.1
		c-1.5,0-2.8-0.5-3.9-1.6s-1.6-2.3-1.6-3.8s0.5-2.8,1.6-3.8c1.1-1.1,2.4-1.6,3.9-1.6h106.1c1.5,0,2.8,0.5,3.9,1.6
		c1.1,1.1,1.6,2.3,1.6,3.8s-0.5,2.8-1.6,3.8C128,9.1,126.7,9.7,125.2,9.7z"/>
</g>
<g id="Medium-M" transform="matrix(1 0 0 1 1675.17 1126)">
	<path d="M117.2-43.6L33.5-21c-3.2,0.9-6.3,1.2-9.3,0.9c-3-0.3-5.5-1.1-7.6-2.6c-2.1-1.4-3.3-3.4-3.8-5.8c-0.4-2.3,0.1-4.5,1.4-6.5
		s3.2-3.8,5.7-5.3s5.2-2.5,8.2-3.1l30.6-6c1-0.2,1.9-0.5,2.6-1c0.7-0.5,1.4-1.2,2.1-2.3l25.7-37c0.9-1.3,2.1-2.2,3.6-2.5l3.5-0.8
		c0.7-0.2,1.3,0,1.8,0.6s0.6,1.3,0.4,2.1l-9.5,40.4l-4-4.6l28-5.5l-11.6,7l21.2-24.7c1-1.2,2.3-1.6,4.1-1.2l1.9,0.4
		c0.8,0.2,1.3,0.5,1.6,1s0.4,1.1,0.3,1.8l-5.2,25.3c-0.4,1.7-1.2,3.1-2.6,4.2C121.2-45,119.4-44.2,117.2-43.6z M124.4,9.1H18.7
		c-1.3,0-2.5-0.5-3.4-1.4s-1.4-2.1-1.4-3.4s0.5-2.5,1.4-3.4s2.1-1.4,3.4-1.4h105.7c1.3,0,2.5,0.5,3.4,1.4s1.4,2.1,1.4,3.4
		s-0.5,2.4-1.4,3.4C126.9,8.6,125.7,9.1,124.4,9.1z"/>
</g>
<g id="Regular-M" transform="matrix(1 0 0 1 1379.29 1126)">
	<path d="M116.3-43.2L32.7-20.7c-3.1,0.8-6.1,1.1-9.1,0.9c-2.9-0.3-5.4-1.1-7.4-2.4c-2-1.4-3.3-3.2-3.7-5.6
		c-0.4-2.3,0.1-4.4,1.4-6.4s3.2-3.7,5.6-5.1c2.4-1.4,5.1-2.5,8-3l30.4-6c1.1-0.2,1.9-0.5,2.7-1c0.7-0.5,1.4-1.3,2.2-2.3l25.8-37.1
		c0.8-1.2,2-2,3.4-2.4l3.5-0.8c0.6-0.2,1.1,0,1.5,0.5s0.5,1.1,0.3,1.8L87.7-50l-3.1-3.6l25.6-5l-8.2,5.1l19.8-23
		c0.9-1.1,2.1-1.4,3.7-1.1l1.8,0.4c0.7,0.2,1.1,0.4,1.4,0.9c0.3,0.4,0.3,1,0.2,1.6l-5.2,25.3c-0.3,1.6-1.2,3-2.5,4
		C120.1-44.5,118.4-43.7,116.3-43.2z M123.4,8.3H18.1c-1.1,0-2-0.4-2.8-1.2s-1.2-1.7-1.2-2.8s0.4-2,1.2-2.8s1.7-1.1,2.8-1.1h105.3
		c1.1,0,2,0.4,2.8,1.1c0.8,0.8,1.2,1.7,1.2,2.8s-0.4,2-1.2,2.8C125.4,7.9,124.5,8.3,123.4,8.3z"/>
</g>
<g id="Light-M" transform="matrix(1 0 0 1 1083.94 1126)">
	<path d="M114.8-41.4L32.1-19c-3.2,0.9-6.2,1.2-9,1s-5.2-1-7.1-2.3s-3.1-3.1-3.5-5.4c-0.4-2.2,0.1-4.2,1.3-6.1s3-3.5,5.3-4.9
		s5-2.4,8-3l29-5.7c1-0.2,1.8-0.5,2.4-0.9c0.7-0.4,1.3-1.1,2-2L86.6-86c0.7-1.1,1.7-1.7,3-2.1l3.1-0.8c0.6-0.2,1.1,0,1.4,0.4
		c0.4,0.4,0.5,1,0.3,1.7l-9.4,39l-2.4-2.8l24.6-4.8l-6.3,3.8l19-22.1c0.8-1,2-1.3,3.5-1l1.5,0.3c0.6,0.1,1,0.4,1.3,0.8
		c0.2,0.4,0.3,0.9,0.2,1.4L121-46.9c-0.3,1.4-1,2.6-2,3.4C117.9-42.6,116.5-41.9,114.8-41.4z M121.7,7.3H17.1
		c-0.8,0-1.5-0.3-2.1-0.9c-0.7-0.6-1-1.3-1-2.1s0.3-1.6,0.9-2.1c0.6-0.6,1.3-0.9,2.1-0.9h104.6c0.8,0,1.5,0.3,2.1,0.9
		s0.9,1.3,0.9,2.1s-0.3,1.5-0.9,2.1C123.2,7,122.5,7.3,121.7,7.3z"/>
</g>
<g id="Thin-M" transform="matrix(1 0 0 1 789.031 1126)">
	<path d="M112.8-39.1L31.3-16.8c-3.3,0.9-6.3,1.2-8.9,1c-2.7-0.2-4.9-0.9-6.6-2.2c-1.7-1.3-2.8-3-3.2-5.1c-0.3-2,0-3.9,1.1-5.7
		s2.8-3.3,5-4.6s4.9-2.3,7.9-2.9l27.2-5.4c0.8-0.2,1.5-0.4,2.1-0.8c0.6-0.4,1.2-0.9,1.7-1.7l26.6-38.4c0.6-0.8,1.4-1.4,2.4-1.6
		l2.6-0.7c0.6-0.2,1-0.1,1.4,0.3c0.3,0.4,0.5,0.8,0.3,1.4l-9.6,38.1l-1.5-1.7l23.2-4.6l-3.7,2.2l18-20.8c0.7-0.9,1.8-1.2,3.1-0.9
		l1,0.2c0.5,0.1,0.9,0.3,1.1,0.6c0.2,0.3,0.2,0.7,0.1,1.2l-5.4,25.5c-0.2,1.1-0.7,2-1.5,2.7C115.1-39.9,114.1-39.4,112.8-39.1z
		 M119.5,6H15.7c-0.5,0-0.9-0.2-1.2-0.5C14.1,5.1,14,4.7,14,4.2s0.2-0.9,0.5-1.3c0.4-0.4,0.8-0.5,1.2-0.5h103.8
		c0.5,0,0.9,0.2,1.2,0.5c0.4,0.4,0.5,0.8,0.5,1.3s-0.2,0.9-0.5,1.3C120.4,5.8,120,6,119.5,6z"/>
</g>
<g id="Ultralight-M" transform="matrix(1 0 0 1 493.242 1126)">
	<path d="M114.3-39.2c0.6-0.5,1-1.3,1.2-2.3L121-67c0.1-0.5,0-0.9-0.1-1.2c-0.2-0.3-0.5-0.4-1-0.5l-0.8-0.2c-1.2-0.3-2.2,0-2.9,0.8
		L98.7-47.9l2.4-1.3l-22.5,4.5l1,1.1l9.7-37.6c0.1-0.5,0-1-0.3-1.3s-0.8-0.4-1.4-0.3l-2.4,0.6c-0.9,0.2-1.6,0.7-2.1,1.4L56.2-41.9
		c-0.5,0.7-1,1.2-1.5,1.5c-0.6,0.3-1.2,0.6-2,0.8l-26.3,5.2c-3.1,0.6-5.7,1.6-7.9,2.8c-2.2,1.3-3.8,2.8-4.8,4.5s-1.4,3.6-1.1,5.5
		c0.4,2.1,1.4,3.7,3,5c1.6,1.2,3.8,1.9,6.4,2.1c2.6,0.2,5.6-0.2,8.9-1.1l80.9-22.2C112.9-38.2,113.7-38.6,114.3-39.2z M119.2,5
		c0.2-0.2,0.3-0.5,0.3-0.9c0-0.3-0.1-0.6-0.3-0.9c-0.2-0.2-0.5-0.3-0.8-0.3H15.1c-0.3,0-0.6,0.1-0.8,0.3S13.9,3.7,14,4.1
		c0,0.3,0.1,0.6,0.3,0.9c0.2,0.2,0.5,0.3,0.8,0.3h103.4C118.7,5.3,119,5.2,119.2,5z"/>
</g>
<g id="Black-S" transform="matrix(1 0 0 1 2874.22 696)">
	<path d="M95.4-43.3L29.3-25.6c-2.9,0.8-5.7,1-8.3,0.6c-2.6-0.4-4.8-1.2-6.6-2.5c-1.8-1.3-2.8-3.1-3.2-5.2c-0.3-2,0.1-3.9,1.1-5.7
		c1.1-1.9,2.7-3.5,4.8-4.8c2.1-1.4,4.5-2.3,7.3-2.8l24.7-4.9c0.7-0.2,1.3-0.4,1.7-0.7c0.4-0.3,0.9-0.8,1.4-1.6l20-28.8
		c0.9-1.4,2.2-2.2,3.8-2.6l2.9-0.7c1-0.3,1.9,0,2.6,0.8s0.9,1.8,0.6,2.9l-7.9,34.4l-6.4-7.5l31-6.1L76.3-46.7l22.1-25.8
		c1.1-1.3,2.6-1.8,4.5-1.4l1.7,0.3c0.9,0.2,1.6,0.6,2.1,1.3c0.5,0.7,0.6,1.5,0.4,2.5l-4,19.7c-0.4,1.6-1.2,3-2.5,4.2
		C99.3-44.7,97.5-43.8,95.4-43.3z M101.5,2.6H16.8c-2,0-3.6-0.7-5-2.1s-2.1-3.1-2.1-5s0.7-3.6,2.1-5s3.1-2.1,5-2.1h84.7
		c2,0,3.6,0.7,5,2.1c1.4,1.4,2.1,3.1,2.1,5s-0.7,3.6-2.1,5S103.4,2.6,101.5,2.6z"/>
</g>
<g id="Heavy-S" transform="matrix(1 0 0 1 2578.27 696)">
	<path d="M94.5-43L28.4-25.3c-2.8,0.8-5.5,1-8,0.6c-2.6-0.3-4.7-1.1-6.4-2.4c-1.7-1.3-2.8-3-3.2-5c-0.3-1.9,0.1-3.8,1.2-5.6
		s2.7-3.3,4.7-4.7c2.1-1.3,4.4-2.2,7-2.7L48.3-50c0.8-0.2,1.4-0.4,1.8-0.7c0.5-0.3,1-0.9,1.5-1.6l20-28.8c0.9-1.3,2.1-2.1,3.5-2.4
		l2.9-0.7c0.9-0.2,1.7,0,2.3,0.7s0.8,1.6,0.5,2.6L73-47.2l-5.5-6.5l28.6-5.6L77.2-47.5l20.7-24.2c1-1.2,2.4-1.7,4.2-1.3l1.6,0.3
		c0.8,0.2,1.5,0.6,1.9,1.2c0.4,0.6,0.6,1.4,0.4,2.2l-4,19.7c-0.3,1.6-1.2,2.9-2.4,4C98.3-44.4,96.6-43.6,94.5-43z M100.5,1.9H16.3
		c-1.7,0-3.2-0.6-4.4-1.8s-1.8-2.7-1.8-4.4s0.6-3.2,1.8-4.4c1.2-1.2,2.7-1.8,4.4-1.8h84.2c1.7,0,3.2,0.6,4.4,1.8
		c1.2,1.2,1.8,2.7,1.8,4.4s-0.6,3.2-1.8,4.4C103.7,1.2,102.2,1.9,100.5,1.9z"/>
</g>
<g id="Bold-S" transform="matrix(1 0 0 1 2282.41 696)">
	<path d="M93.5-42.8l-66,17.7c-2.7,0.7-5.2,0.9-7.7,0.6s-4.6-1-6.3-2.2c-1.7-1.2-2.8-2.8-3.1-4.8c-0.3-1.9,0.1-3.7,1.2-5.4
		s2.6-3.2,4.6-4.5s4.3-2.1,6.8-2.6l24.6-4.9c0.8-0.2,1.4-0.4,2-0.8c0.5-0.3,1-0.9,1.6-1.7l20-28.8c0.8-1.2,1.9-2,3.3-2.3l2.9-0.7
		c0.7-0.2,1.4,0,1.9,0.6s0.7,1.3,0.4,2.2l-7.6,32.9l-4.6-5.4l25.8-5l-14.9,9.3l19-22.2c0.9-1.1,2.2-1.5,3.8-1.2l1.6,0.3
		c0.7,0.2,1.3,0.5,1.6,1c0.4,0.5,0.5,1.2,0.3,1.9l-4,19.8c-0.3,1.5-1.1,2.8-2.3,3.8C97.1-44.1,95.5-43.3,93.5-42.8z M99.4,1H15.7
		c-1.5,0-2.7-0.5-3.8-1.6c-1-1-1.6-2.3-1.6-3.7c0-1.5,0.5-2.7,1.6-3.7c1-1,2.3-1.6,3.8-1.6h83.7c1.5,0,2.7,0.5,3.8,1.6
		c1,1,1.6,2.3,1.6,3.7s-0.5,2.7-1.6,3.7C102.1,0.5,100.8,1,99.4,1z"/>
</g>
<g id="Semibold-S" transform="matrix(1 0 0 1 1986.29 696)">
	<path d="M93-42.6L27-24.9c-2.6,0.7-5.1,0.9-7.5,0.7c-2.4-0.3-4.5-1-6.2-2.1c-1.7-1.2-2.7-2.7-3.1-4.7c-0.3-1.9,0.1-3.6,1.2-5.3
		s2.6-3.1,4.6-4.4c2-1.2,4.2-2.1,6.6-2.5L47.1-48c0.8-0.2,1.5-0.4,2-0.8c0.5-0.4,1.1-1,1.7-1.8l20-28.8c0.8-1.1,1.8-1.9,3.1-2.2
		l2.9-0.7c0.6-0.2,1.2,0,1.6,0.5s0.6,1.2,0.4,2l-7.5,32.4L67.4-52l23.9-4.7l-12.2,7.6l17.9-21c0.8-1,2-1.4,3.5-1.1l1.6,0.3
		c0.7,0.2,1.2,0.5,1.5,0.9c0.3,0.5,0.4,1,0.3,1.7l-4,19.8c-0.3,1.4-1.1,2.7-2.3,3.7C96.5-43.9,94.9-43.1,93-42.6z M98.8,0.4H15.4
		c-1.3,0-2.4-0.5-3.3-1.4c-0.9-0.9-1.4-2-1.4-3.3s0.5-2.4,1.4-3.3s2-1.4,3.3-1.4h83.4c1.3,0,2.4,0.5,3.3,1.4s1.4,2,1.4,3.3
		S103-1.9,102.1-1C101.2-0.1,100.1,0.4,98.8,0.4z"/>
</g>
<g id="Medium-S" transform="matrix(1 0 0 1 1690.02 696)">
	<path d="M92.5-42.5l-66,17.7c-2.5,0.7-5,0.9-7.3,0.7c-2.4-0.2-4.4-0.9-6.1-2.1c-1.7-1.1-2.7-2.7-3.1-4.6c-0.3-1.8,0.1-3.6,1.2-5.2
		c1.1-1.6,2.6-3.1,4.5-4.3c2-1.2,4.1-2,6.5-2.5l24.5-4.8c0.8-0.2,1.6-0.4,2.1-0.8c0.6-0.4,1.1-1,1.7-1.9l20-28.8
		c0.8-1.1,1.8-1.8,3-2.1l2.9-0.7c0.6-0.2,1,0,1.4,0.5s0.5,1.1,0.3,1.8l-7.4,32l-3.4-4L89.8-56l-10.1,6.3l17-19.8
		c0.8-1,1.9-1.3,3.3-1l1.6,0.3c0.6,0.1,1.1,0.4,1.3,0.9c0.3,0.4,0.4,0.9,0.2,1.5l-4,19.8c-0.3,1.4-1,2.6-2.2,3.6
		C95.9-43.7,94.4-43,92.5-42.5z M98.2-0.1H15.1c-1.2,0-2.1-0.4-3-1.2c-0.8-0.8-1.2-1.8-1.2-2.9c0-1.2,0.4-2.1,1.2-2.9s1.8-1.2,3-1.2
		h83.1c1.2,0,2.1,0.4,3,1.2c0.8,0.8,1.2,1.8,1.2,2.9s-0.4,2.1-1.2,2.9S99.4-0.1,98.2-0.1z"/>
</g>
<g id="Regular-S" transform="matrix(1 0 0 1 1393.89 696)">
	<path d="M91.9-42.3l-66,17.7c-2.4,0.7-4.8,0.9-7.1,0.7c-2.3-0.2-4.3-0.9-6-2s-2.7-2.6-3-4.5c-0.3-1.8,0.1-3.5,1.2-5.1
		s2.6-3,4.5-4.1c1.9-1.2,4-2,6.3-2.4l24.5-4.8c0.9-0.2,1.6-0.4,2.2-0.9c0.6-0.4,1.2-1,1.8-1.9l20-28.8c0.7-1,1.7-1.7,2.8-2l2.9-0.7
		c0.5-0.1,0.8,0,1.2,0.4c0.3,0.4,0.4,0.9,0.2,1.5l-7.3,31.4l-2.8-3.3l20.6-4l-7.4,4.6L96.4-69c0.7-0.9,1.7-1.2,3.1-0.9l1.6,0.3
		c0.6,0.1,0.9,0.4,1.2,0.8s0.3,0.8,0.2,1.3l-4,19.8c-0.3,1.4-1,2.5-2.1,3.4C95.1-43.5,93.7-42.8,91.9-42.3z M97.5-0.7H14.7
		c-1,0-1.8-0.3-2.5-1s-1-1.5-1-2.5s0.3-1.8,1-2.5s1.5-1,2.5-1h82.8c1,0,1.8,0.3,2.5,1s1,1.5,1,2.5c0,0.9-0.3,1.8-1,2.5
		S98.5-0.7,97.5-0.7z"/>
</g>
<g id="Light-S" transform="matrix(1 0 0 1 1098.39 696)">
	<path d="M90.5-40.7L25.4-23.1c-2.5,0.7-4.8,0.9-7.1,0.7c-2.3-0.2-4.2-0.8-5.7-1.9s-2.5-2.5-2.8-4.3c-0.3-1.7,0.1-3.4,1.1-4.9
		c1-1.5,2.4-2.8,4.3-3.9c1.9-1.1,3.9-1.9,6.3-2.4l23.3-4.6c0.8-0.2,1.5-0.4,2-0.8c0.5-0.4,1.1-0.9,1.6-1.7l20.3-29.3
		c0.6-0.9,1.4-1.5,2.5-1.7l2.6-0.6c0.5-0.1,0.8,0,1.1,0.3c0.3,0.4,0.4,0.8,0.2,1.4L67.6-46l-2.2-2.5l19.7-3.9l-5.6,3.5l15.2-17.7
		c0.7-0.8,1.6-1.1,2.8-0.8l1.3,0.3c0.5,0.1,0.9,0.3,1.1,0.7c0.2,0.3,0.3,0.7,0.2,1.2L96-45.3c-0.3,1.2-0.8,2.2-1.8,2.9
		C93.2-41.7,92-41.1,90.5-40.7z M96-1.5H13.8c-0.7,0-1.4-0.3-1.9-0.8c-0.6-0.6-0.9-1.2-0.9-2s0.3-1.4,0.8-1.9C12.4-6.7,13-7,13.8-7
		H96c0.7,0,1.4,0.3,1.9,0.8s0.8,1.2,0.8,1.9s-0.3,1.4-0.8,1.9S96.8-1.5,96-1.5z"/>
</g>
<g id="Thin-S" transform="matrix(1 0 0 1 803.269 696)">
	<path d="M88.8-38.7L24.7-21.2c-2.5,0.7-4.9,1-7,0.8s-3.9-0.7-5.3-1.7s-2.2-2.4-2.6-4.1c-0.3-1.6,0-3.1,0.9-4.5s2.2-2.6,4-3.7
		c1.8-1,3.8-1.8,6.2-2.3L42.6-41c0.7-0.1,1.2-0.4,1.7-0.7s0.9-0.8,1.4-1.4l20.8-30c0.5-0.7,1.1-1.1,2-1.4l2.1-0.5
		c0.5-0.1,0.8,0,1.1,0.2c0.3,0.3,0.4,0.7,0.2,1.2l-7.5,30L63.1-45l18.5-3.7l-3.4,2l14.3-16.6c0.6-0.7,1.4-1,2.5-0.7l0.9,0.2
		c0.4,0.1,0.7,0.3,0.9,0.5s0.2,0.6,0.1,1l-4.2,20c-0.2,0.9-0.6,1.7-1.3,2.3S89.8-39,88.8-38.7z M94.1-2.7H12.5
		c-0.4,0-0.8-0.2-1.1-0.5s-0.5-0.7-0.5-1.2s0.2-0.9,0.5-1.2C11.7-5.8,12.1-6,12.5-6H94c0.4,0,0.8,0.2,1.1,0.5
		c0.3,0.3,0.5,0.7,0.5,1.2s-0.2,0.8-0.5,1.2C94.9-2.8,94.5-2.7,94.1-2.7z"/>
</g>
<g id="Ultralight-S" transform="matrix(1 0 0 1 507.374 696)">
	<path d="M90.1-38.7c0.5-0.5,0.8-1.1,1-1.9l4.3-20c0.1-0.4,0-0.7-0.1-0.9s-0.4-0.4-0.8-0.4l-0.7-0.2c-1-0.2-1.7,0-2.3,0.7l-13.8,16
		l2.2-1.3L62-43.2l0.9,1l7.5-29.6c0.1-0.4,0-0.8-0.2-1.1c-0.3-0.3-0.6-0.3-1.1-0.2l-1.9,0.5c-0.7,0.2-1.3,0.6-1.7,1.2l-21,30.3
		c-0.4,0.5-0.8,1-1.2,1.2c-0.4,0.3-1,0.5-1.6,0.6l-20.8,4.1c-2.4,0.5-4.5,1.2-6.2,2.2s-3,2.2-3.8,3.6C10-28,9.7-26.5,10-25
		c0.3,1.6,1.1,3,2.4,3.9c1.3,1,3,1.5,5.1,1.7s4.4-0.1,7-0.8L88-37.6C88.9-37.9,89.6-38.2,90.1-38.7z M94-3.6
		c0.2-0.2,0.3-0.5,0.3-0.8S94.2-5,94-5.2s-0.5-0.3-0.7-0.3H12.1c-0.3,0-0.5,0.1-0.7,0.3C11.1-4.9,11-4.7,11-4.4
		c0,0.3,0.1,0.6,0.3,0.8s0.5,0.3,0.7,0.3h81.1C93.5-3.3,93.7-3.4,94-3.6z"/>
</g>
</svg>
