<?xml version="1.0" encoding="utf-8"?>
<!-- Generator: Adobe Illustrator 26.0.2, SVG Export Plug-In . SVG Version: 6.00 Build 0)  -->
<svg version="1.1" id="Layer_1" xmlns="http://www.w3.org/2000/svg" xmlns:xlink="http://www.w3.org/1999/xlink" x="0px" y="0px"
	 viewBox="0 0 3300 2200" style="enable-background:new 0 0 3300 2200;" xml:space="preserve">
<style type="text/css">
	.st0{fill:#FFFFFF;}
	.st1{fill:none;stroke:#000000;stroke-width:0.5;}
	.st2{font-family:'Helvetica-Bold';}
	.st3{font-size:13px;}
	.st4{font-family:'Helvetica';}
	.st5{fill:none;stroke:#00AEEF;stroke-width:0.5;}
	.st6{fill:#27AAE1;}
	.st7{fill:none;stroke:#27AAE1;stroke-width:0.5;}
</style>
<g id="Notes">
	<rect id="artboard" class="st0" width="3300" height="2200"/>
	<line class="st1" x1="263" y1="292" x2="3036" y2="292"/>
	<text transform="matrix(1 0 0 1 263 322)" class="st2 st3">Weight/Scale Variations</text>
	<text transform="matrix(1 0 0 1 534.0633 322)" class="st4 st3">Ultralight</text>
	<text transform="matrix(1 0 0 1 843.7775 322)" class="st4 st3">Thin</text>
	<text transform="matrix(1 0 0 1 1139.035 322)" class="st4 st3">Light</text>
	<text transform="matrix(1 0 0 1 1427.0773 322)" class="st4 st3">Regular</text>
	<text transform="matrix(1 0 0 1 1723.4419 322)" class="st4 st3">Medium</text>
	<text transform="matrix(1 0 0 1 2016.1719 322)" class="st4 st3">Semibold</text>
	<text transform="matrix(1 0 0 1 2326.9705 322)" class="st4 st3">Bold</text>
	<text transform="matrix(1 0 0 1 2618.2659 322)" class="st4 st3">Heavy</text>
	<text transform="matrix(1 0 0 1 2917.5054 322)" class="st4 st3">Black</text>
	<line class="st1" x1="263" y1="1903" x2="3036" y2="1903"/>
	<g transform="matrix(1 0 0 1 263 1933)">
		<path d="M9.2,0.8c1.1,0,2.1-0.2,3-0.6c1-0.4,1.8-1,2.5-1.7c0.7-0.7,1.3-1.6,1.7-2.5c0.4-1,0.6-2,0.6-3s-0.2-2.1-0.6-3
			c-0.4-1-1-1.8-1.7-2.5c-0.7-0.7-1.6-1.3-2.5-1.7c-1-0.4-2-0.6-3-0.6c-1.1,0-2.1,0.2-3,0.6s-1.8,1-2.5,1.7C3-11.9,2.4-11,2-10.1
			c-0.4,1-0.6,2-0.6,3S1.6-5,2-4c0.4,1,1,1.8,1.7,2.5s1.6,1.3,2.5,1.7C7.2,0.6,8.2,0.8,9.2,0.8z M9.2-0.7c-0.9,0-1.7-0.2-2.5-0.5
			C6-1.5,5.3-1.9,4.7-2.5c-0.6-0.6-1-1.3-1.4-2C3-5.3,2.9-6.2,2.9-7.1c0-0.9,0.2-1.7,0.5-2.5c0.3-0.8,0.8-1.5,1.4-2
			c0.6-0.6,1.3-1,2-1.4c0.8-0.3,1.6-0.5,2.5-0.5c0.9,0,1.7,0.2,2.5,0.5c0.8,0.3,1.5,0.8,2,1.4c0.6,0.6,1,1.3,1.4,2
			c0.3,0.8,0.5,1.6,0.5,2.5c0,0.9-0.2,1.7-0.5,2.5c-0.3,0.8-0.8,1.5-1.4,2c-0.6,0.6-1.3,1-2,1.4C11-0.8,10.1-0.7,9.2-0.7z M5.7-7.1
			c0,0.2,0.1,0.4,0.2,0.5C6-6.4,6.2-6.3,6.4-6.3h2.1v2.1c0,0.2,0.1,0.4,0.2,0.5C8.8-3.5,9-3.5,9.2-3.5c0.2,0,0.4-0.1,0.5-0.2
			C9.9-3.8,10-4,10-4.2v-2.1h2.1c0.2,0,0.4-0.1,0.5-0.2c0.1-0.1,0.2-0.3,0.2-0.5c0-0.2-0.1-0.4-0.2-0.5c-0.1-0.1-0.3-0.2-0.5-0.2H10
			v-2.1c0-0.2-0.1-0.4-0.2-0.5c-0.1-0.1-0.3-0.2-0.5-0.2c-0.2,0-0.4,0.1-0.5,0.2c-0.1,0.1-0.2,0.3-0.2,0.5v2.1H6.4
			C6.2-7.8,6-7.7,5.9-7.6C5.7-7.5,5.7-7.3,5.7-7.1z"/>
	</g>
	<g transform="matrix(1 0 0 1 281.867 1933)">
		<path d="M11.7,2.9c1.4,0,2.6-0.3,3.8-0.8c1.2-0.5,2.3-1.2,3.2-2.2c0.9-0.9,1.6-2,2.2-3.2c0.5-1.2,0.8-2.5,0.8-3.8
			c0-1.4-0.3-2.6-0.8-3.8c-0.5-1.2-1.2-2.3-2.2-3.2c-0.9-0.9-2-1.6-3.2-2.2c-1.2-0.5-2.5-0.8-3.8-0.8s-2.6,0.3-3.8,0.8
			c-1.2,0.5-2.3,1.2-3.2,2.2c-0.9,0.9-1.6,2-2.2,3.2C2-9.7,1.7-8.4,1.7-7.1c0,1.4,0.3,2.6,0.8,3.8S3.8-0.9,4.7,0
			c0.9,0.9,2,1.6,3.2,2.2S10.3,2.9,11.7,2.9z M11.7,1.2c-1.2,0-2.2-0.2-3.2-0.6c-1-0.4-1.9-1-2.6-1.8C5.1-1.9,4.5-2.8,4.1-3.8
			S3.4-5.9,3.4-7.1c0-1.2,0.2-2.2,0.6-3.2s1-1.9,1.8-2.6c0.8-0.8,1.6-1.4,2.6-1.8c1-0.4,2.1-0.6,3.2-0.6s2.2,0.2,3.2,0.6
			c1,0.4,1.9,1,2.6,1.8c0.8,0.8,1.4,1.6,1.8,2.6c0.4,1,0.6,2.1,0.6,3.2c0,1.2-0.2,2.2-0.6,3.2c-0.4,1-1,1.9-1.8,2.6
			c-0.8,0.8-1.6,1.4-2.6,1.8S12.9,1.2,11.7,1.2z M7.2-7.1c0,0.2,0.1,0.4,0.2,0.6C7.6-6.3,7.8-6.2,8-6.2h2.9v2.9
			c0,0.2,0.1,0.4,0.2,0.6c0.1,0.2,0.3,0.2,0.6,0.2c0.2,0,0.4-0.1,0.6-0.2c0.2-0.2,0.2-0.4,0.2-0.6v-2.9h2.9c0.2,0,0.4-0.1,0.6-0.2
			s0.2-0.3,0.2-0.6c0-0.2-0.1-0.4-0.2-0.6c-0.2-0.2-0.4-0.2-0.6-0.2h-2.9v-2.9c0-0.3-0.1-0.5-0.2-0.6s-0.4-0.2-0.6-0.2
			c-0.2,0-0.4,0.1-0.6,0.2c-0.1,0.2-0.2,0.4-0.2,0.6v2.9H8c-0.3,0-0.5,0.1-0.6,0.2C7.3-7.5,7.2-7.3,7.2-7.1z"/>
	</g>
	<g transform="matrix(1 0 0 1 305.646 1933)">
		<path d="M15,5.7c1.4,0,2.7-0.2,4-0.6c1.3-0.4,2.4-1,3.5-1.8c1.1-0.8,2-1.7,2.8-2.8C26-0.6,26.6-1.8,27-3.1c0.4-1.3,0.6-2.6,0.6-4
			c0-1.4-0.2-2.7-0.6-4c-0.4-1.3-1-2.4-1.8-3.5c-0.8-1.1-1.7-2-2.8-2.8c-1.1-0.8-2.2-1.4-3.5-1.8c-1.3-0.4-2.6-0.6-4-0.6
			c-1.4,0-2.7,0.2-4,0.6c-1.3,0.4-2.4,1-3.5,1.8c-1.1,0.8-2,1.7-2.8,2.8c-0.8,1.1-1.4,2.2-1.8,3.5c-0.4,1.3-0.6,2.6-0.6,4
			c0,1.4,0.2,2.7,0.6,4c0.4,1.3,1,2.4,1.8,3.5c0.8,1.1,1.7,2,2.8,2.8C8.6,4,9.7,4.6,11,5C12.2,5.4,13.6,5.7,15,5.7z M15,3.8
			c-1.2,0-2.4-0.2-3.4-0.6c-1.1-0.4-2.1-0.9-3-1.5C7.6,1.1,6.8,0.3,6.2-0.6C5.5-1.5,5-2.5,4.6-3.6C4.3-4.7,4.1-5.8,4.1-7.1
			c0-1.2,0.2-2.4,0.5-3.5c0.4-1.1,0.9-2.1,1.5-3c0.7-0.9,1.4-1.7,2.4-2.4c0.9-0.7,1.9-1.2,3-1.5c1.1-0.4,2.2-0.5,3.4-0.5
			c1.2,0,2.4,0.2,3.5,0.5c1.1,0.4,2.1,0.9,3,1.5c0.9,0.7,1.7,1.5,2.4,2.4c0.7,0.9,1.2,1.9,1.5,3c0.4,1.1,0.6,2.2,0.6,3.5
			c0,1.2-0.2,2.4-0.5,3.4c-0.4,1.1-0.9,2.1-1.5,3c-0.7,0.9-1.5,1.7-2.4,2.4c-0.9,0.7-1.9,1.2-3,1.5C17.3,3.7,16.2,3.8,15,3.8z
			 M9.2-7.1c0,0.3,0.1,0.5,0.3,0.6c0.2,0.2,0.4,0.2,0.7,0.2h3.9v4c0,0.3,0.1,0.5,0.2,0.7c0.2,0.2,0.4,0.3,0.6,0.3
			c0.3,0,0.5-0.1,0.7-0.3c0.2-0.2,0.3-0.4,0.3-0.7v-4h4c0.3,0,0.5-0.1,0.7-0.2c0.2-0.2,0.3-0.4,0.3-0.6c0-0.3-0.1-0.5-0.3-0.7
			C20.3-7.9,20.1-8,19.8-8h-4v-3.9c0-0.3-0.1-0.5-0.3-0.7c-0.2-0.2-0.4-0.3-0.7-0.3c-0.3,0-0.5,0.1-0.6,0.3
			c-0.2,0.2-0.2,0.4-0.2,0.7V-8h-3.9C9.8-8,9.6-7.9,9.5-7.7C9.3-7.5,9.2-7.3,9.2-7.1z"/>
	</g>
	<text transform="matrix(1 0 0 1 263 1953)" class="st2 st3">Design Variations</text>
	<text transform="matrix(1 0 0 1 263 1971)" class="st4 st3">Symbols are supported in up to nine weights and three scales.</text>
	<text transform="matrix(1 0 0 1 263 1989)" class="st4 st3">For optimal layout with text and other symbols, vertically align</text>
	<text transform="matrix(1 0 0 1 263 2007)" class="st4 st3">symbols with the adjacent text.</text>
	<line class="st5" x1="776" y1="1919" x2="776" y2="1933"/>
	<g transform="matrix(1 0 0 1 776 1933)">
		<path d="M3.3,0.2c0.3,0,0.5-0.1,0.6-0.2c0.1-0.1,0.3-0.3,0.4-0.6L5.5-4h5.8l1.3,3.4c0.1,0.3,0.2,0.5,0.4,0.6
			c0.1,0.1,0.3,0.2,0.6,0.2c0.3,0,0.5-0.1,0.6-0.2c0.2-0.1,0.2-0.3,0.2-0.6c0-0.1,0-0.3-0.1-0.5L9.7-13.4c-0.1-0.3-0.3-0.5-0.5-0.7
			c-0.2-0.1-0.5-0.2-0.8-0.2c-0.6,0-1,0.3-1.2,0.9L2.6-1.2C2.5-1,2.5-0.8,2.5-0.6c0,0.2,0.1,0.4,0.2,0.6S3.1,0.2,3.3,0.2z M6-5.5
			l2.4-6.6h0l2.4,6.6H6z"/>
	</g>
	<line class="st5" x1="793.2" y1="1919" x2="793.2" y2="1933"/>
	<text transform="matrix(1 0 0 1 776 1953)" class="st2 st3">Margins</text>
	<text transform="matrix(1 0 0 1 776 1971)" class="st4 st3">Leading and trailing margins on the left and right side of each symbol</text>
	<text transform="matrix(1 0 0 1 776 1989)" class="st4 st3">can be adjusted by modifying the x-location of the margin guidelines.</text>
	<text transform="matrix(1 0 0 1 776 2007)" class="st4 st3">Modifications are automatically applied proportionally to all</text>
	<text transform="matrix(1 0 0 1 776 2025)" class="st4 st3">scales and weights.</text>
	<g transform="matrix(1 0 0 1 1289 1933)">
		<path d="M2.8,1.9l1.7,1.7C5,4,5.4,4.2,5.9,4.2c0.5,0,0.9-0.3,1.4-0.8L18-8.4l-1-1L6.4,2.3C6.2,2.5,6.1,2.6,5.9,2.6
			c-0.2,0-0.4-0.1-0.6-0.3L4.1,1.1C3.9,0.9,3.8,0.7,3.8,0.5c0-0.2,0.1-0.4,0.3-0.5l11.5-10.8l-1-1L3-0.9C2.6-0.4,2.3,0,2.3,0.5
			C2.2,1,2.4,1.4,2.8,1.9z M9.3-16.3c-0.2,0.2-0.3,0.4-0.4,0.7c0,0.3,0,0.5,0.1,0.7c0.1,0.2,0.3,0.3,0.5,0.4c0.2,0.1,0.5,0.1,0.8,0
			c0.7-0.2,1.5-0.2,2.2-0.2c0.7,0,1.5,0.3,2.2,0.7l-0.6,1.5c-0.2,0.4-0.2,0.8-0.1,1.1c0.1,0.3,0.2,0.6,0.5,0.9l2.3,2.3
			c0.2,0.2,0.5,0.4,0.7,0.4c0.2,0,0.5,0,0.8,0L19.4-8l0.7,0.7l0,0.6c0,0.2,0,0.5,0.1,0.7c0.1,0.2,0.2,0.4,0.5,0.7l0.8,0.7
			c0.2,0.2,0.5,0.4,0.8,0.4c0.3,0,0.5-0.1,0.8-0.3l2.9-2.9c0.2-0.2,0.3-0.5,0.3-0.8c0-0.3-0.1-0.5-0.4-0.8L25-9.9
			c-0.2-0.2-0.5-0.4-0.7-0.5c-0.2-0.1-0.4-0.1-0.7-0.1l-0.6,0l-0.6-0.6l0.2-1.1c0.1-0.3,0.1-0.5,0-0.8s-0.3-0.5-0.6-0.8L19.9-16
			c-0.8-0.8-1.7-1.4-2.7-1.9c-0.9-0.4-1.9-0.6-2.8-0.6c-1,0-1.9,0.2-2.8,0.5C10.8-17.6,10-17.1,9.3-16.3z M10.8-16
			c0.6-0.4,1.3-0.8,1.9-0.9c0.7-0.2,1.4-0.2,2.1-0.2c0.7,0.1,1.4,0.3,2.1,0.6c0.7,0.3,1.3,0.7,1.8,1.3l2.4,2.4
			c0.1,0.1,0.2,0.2,0.2,0.3c0,0.1,0,0.3,0,0.4L21-10.5l1.5,1.5l1-0.1c0.1,0,0.2,0,0.3,0c0.1,0,0.1,0.1,0.2,0.2l0.6,0.6l-2.4,2.4
			l-0.6-0.6c-0.1-0.1-0.2-0.2-0.2-0.2c0-0.1,0-0.2,0-0.3l0.1-1L20-9.5l-1.5,0.3c-0.2,0-0.3,0-0.4,0c-0.1,0-0.2-0.1-0.3-0.2l-2-2
			c-0.1-0.1-0.2-0.2-0.2-0.3c0-0.1,0-0.3,0.1-0.4l0.9-2.1c-0.8-0.7-1.7-1.2-2.6-1.5c-1-0.3-2-0.3-3,0c-0.1,0-0.1,0-0.2,0
			C10.7-15.9,10.7-15.9,10.8-16z"/>
	</g>
	<text transform="matrix(1 0 0 1 1289 1953)" class="st2 st3">Exporting</text>
	<text transform="matrix(1 0 0 1 1289 1971)" class="st4 st3">Symbols should be outlined when exporting to ensure the</text>
	<text transform="matrix(1 0 0 1 1289 1989)" class="st4 st3">design is preserved when submitting to Xcode.</text>
	<text id="template-version" transform="matrix(1 0 0 1 2952.4141 1933)" class="st4 st3">Template v.3.0</text>
	<text transform="matrix(1 0 0 1 2865.4575 1951)" class="st4 st3">Requires Xcode 13 or greater</text>
	<text id="descriptive-name" transform="matrix(1 0 0 1 2856.082 1969)" class="st4 st3">Generated from airplane.arrival</text>
	<text transform="matrix(1 0 0 1 2912.4111 1987)" class="st4 st3">Typeset at 100 points</text>
	<text transform="matrix(1 0 0 1 263 726)" class="st4 st3">Small</text>
	<text transform="matrix(1 0 0 1 263 1156)" class="st4 st3">Medium</text>
	<text transform="matrix(1 0 0 1 263 1586)" class="st4 st3">Large</text>
</g>
<g id="Guides">
	<g id="H-reference" transform="matrix(1 0 0 1 339 696)">
		<path class="st6" d="M1,0h2.6l25.7-67.1H30v-3.3h-1.9L1,0z M11.7-24.5H47l-0.8-2.2H12.4L11.7-24.5z M55.1,0h2.6L30.6-70.5h-1.2
			v3.3L55.1,0z"/>
	</g>
	<line id="Baseline-S" class="st7" x1="263" y1="696" x2="3036" y2="696"/>
	<line id="Capline-S" class="st7" x1="263" y1="625.5" x2="3036" y2="625.5"/>
	<g id="H-reference_00000178194270420312782610000001081433045262429626_" transform="matrix(1 0 0 1 339 1126)">
		<path class="st6" d="M1,0h2.6l25.7-67.1H30v-3.3h-1.9L1,0z M11.7-24.5H47l-0.8-2.2H12.4L11.7-24.5z M55.1,0h2.6L30.6-70.5h-1.2
			v3.3L55.1,0z"/>
	</g>
	<line id="Baseline-M" class="st7" x1="263" y1="1126" x2="3036" y2="1126"/>
	<line id="Capline-M" class="st7" x1="263" y1="1055.5" x2="3036" y2="1055.5"/>
	<g id="H-reference_00000178899979275737543220000017845615526461326518_" transform="matrix(1 0 0 1 339 1556)">
		<path class="st6" d="M1,0h2.6l25.7-67.1H30v-3.3h-1.9L1,0z M11.7-24.5H47l-0.8-2.2H12.4L11.7-24.5z M55.1,0h2.6L30.6-70.5h-1.2
			v3.3L55.1,0z"/>
	</g>
	<line id="Baseline-L" class="st7" x1="263" y1="1556" x2="3036" y2="1556"/>
	<line id="Capline-L" class="st7" x1="263" y1="1485.5" x2="3036" y2="1485.5"/>
	<line id="left-margin-Regular-M" class="st5" x1="1379" y1="1030.8" x2="1379" y2="1150.1"/>
	<line id="right-margin-Regular-M" class="st5" x1="1520.7" y1="1030.8" x2="1520.7" y2="1150.1"/>
</g>
<g id="Black-L" transform="matrix(1 0 0 1 2837.18 1556)">
	<path d="M155.7-47.8L46.8-18.6c-4.6,1.2-9,1.6-13.2,1.1c-4.2-0.5-7.7-1.8-10.6-3.9c-2.9-2.1-4.6-4.9-5.2-8.3
		c-0.5-3.2,0.2-6.2,2-9.1c1.8-2.9,4.4-5.5,7.8-7.6c3.4-2.2,7.2-3.7,11.5-4.5l40.7-8c1.3-0.3,2.3-0.7,3.1-1.2
		c0.8-0.5,1.6-1.5,2.5-2.8l32.9-47.4c1.5-2.1,3.4-3.4,5.8-4l4.8-1.2c1.5-0.4,2.7,0,3.7,1.1c1,1.2,1.2,2.5,0.9,4.2l-12.7,55.3
		l-8.9-10.5l46.4-9.1l-30.4,19l33.7-39.4c0.8-1,1.8-1.7,2.9-2c1.1-0.3,2.4-0.4,3.9-0.1l2.7,0.6c1.4,0.3,2.4,1,3.1,2
		c0.7,1,0.9,2.2,0.6,3.5L168-58.4c-0.5,2.6-1.8,4.8-4,6.6C161.9-50,159.2-48.7,155.7-47.8z M165.6,26.1H26.9c-2.8,0-5.2-1-7.2-3
		c-2-2-3-4.4-3-7.1c0-2.8,1-5.2,3-7.2c2-2,4.4-3,7.2-3h138.7c2.8,0,5.1,1,7.1,3c2,2,3,4.4,3,7.2c0,2.8-1,5.1-3,7.1
		C170.7,25.1,168.3,26.1,165.6,26.1z"/>
</g>
<g id="Heavy-L" transform="matrix(1 0 0 1 2541.86 1556)">
	<path d="M154.1-46.8L45.6-17.7c-4.5,1.2-8.7,1.6-12.8,1.1c-4.1-0.5-7.5-1.7-10.3-3.7c-2.8-2-4.5-4.7-5.1-8c-0.5-3.1,0.2-6,1.9-8.8
		c1.8-2.8,4.3-5.3,7.6-7.4c3.3-2.1,7-3.5,11.2-4.4l40.1-7.9c1.3-0.3,2.3-0.7,3.1-1.2c0.8-0.5,1.6-1.5,2.5-2.8l33.1-47.6
		c1.4-1.9,3.1-3.2,5.4-3.7l4.6-1.1c1.3-0.3,2.4,0,3.3,1c0.8,1,1.1,2.2,0.7,3.7l-12.6,54.2l-7.6-9l43.1-8.4l-25.3,15.8L160-92.8
		c0.8-0.9,1.7-1.6,2.7-1.9c1-0.3,2.2-0.3,3.6-0.1l2.6,0.6c1.2,0.3,2.1,0.9,2.7,1.8c0.6,0.9,0.8,2,0.5,3.1l-6.6,32.6
		c-0.5,2.4-1.7,4.5-3.7,6.1C159.9-48.9,157.3-47.7,154.1-46.8z M163.8,24.8H25.9c-2.4,0-4.5-0.9-6.2-2.6c-1.7-1.7-2.6-3.8-2.6-6.2
		c0-2.4,0.9-4.5,2.6-6.2c1.7-1.7,3.8-2.6,6.2-2.6h137.9c2.4,0,4.5,0.9,6.2,2.6c1.7,1.7,2.6,3.8,2.6,6.2c0,2.4-0.9,4.4-2.6,6.2
		C168.2,23.9,166.2,24.8,163.8,24.8z"/>
</g>
<g id="Bold-L" transform="matrix(1 0 0 1 2246.7 1556)">
	<path d="M152.4-45.8l-108,29.1c-4.3,1.2-8.5,1.5-12.4,1.1C28-16,24.7-17.1,22-19c-2.7-1.9-4.3-4.5-4.9-7.7c-0.5-3,0.1-5.8,1.9-8.5
		c1.7-2.7,4.2-5.1,7.4-7.1c3.2-2,6.8-3.4,10.9-4.2l39.4-7.8c1.3-0.3,2.3-0.7,3.1-1.2c0.8-0.6,1.7-1.5,2.5-2.8l33.3-47.9
		c1.2-1.8,2.9-2.9,4.9-3.4l4.5-1.1c1.1-0.3,2.1,0,2.8,0.8c0.7,0.9,0.9,1.9,0.6,3.2l-12.5,53l-6.2-7.2l39.3-7.7l-19.7,12.3l29.3-34.2
		c0.7-0.8,1.5-1.4,2.4-1.7c0.9-0.3,2-0.3,3.3,0l2.4,0.5c1.1,0.2,1.9,0.7,2.4,1.5c0.5,0.8,0.7,1.7,0.5,2.7l-6.7,32.6
		c-0.5,2.3-1.6,4.1-3.4,5.7C157.7-47.7,155.3-46.6,152.4-45.8z M161.8,23.2h-137c-2,0-3.7-0.7-5.1-2.1c-1.4-1.4-2.1-3.1-2.1-5.1
		c0-2,0.7-3.7,2.1-5.1c1.4-1.4,3.1-2.1,5.1-2.1h137c2,0,3.7,0.7,5.1,2.1c1.4,1.4,2.1,3.1,2.1,5.1c0,2-0.7,3.7-2.1,5.1
		C165.5,22.5,163.8,23.2,161.8,23.2z"/>
</g>
<g id="Semibold-L" transform="matrix(1 0 0 1 1951.06 1556)">
	<path d="M151.2-45.1L43.5-16c-4.3,1.1-8.3,1.5-12.2,1.1c-3.8-0.4-7.1-1.5-9.7-3.3c-2.6-1.8-4.2-4.3-4.8-7.5
		c-0.5-2.9,0.1-5.7,1.8-8.3c1.7-2.6,4.1-4.9,7.2-6.8c3.2-1.9,6.7-3.3,10.7-4.1l38.9-7.7c1.3-0.3,2.3-0.7,3.2-1.2
		c0.8-0.6,1.7-1.5,2.6-2.8l33.4-48.1c1.2-1.6,2.7-2.7,4.5-3.2l4.4-1.1c1-0.3,1.8,0,2.5,0.7c0.6,0.7,0.8,1.7,0.5,2.8l-12.3,52.1
		l-5.2-6l36.7-7.2l-15.8,9.8l27.7-32.3c0.6-0.8,1.4-1.3,2.2-1.6c0.8-0.3,1.9-0.3,3.1,0l2.3,0.5c1,0.2,1.7,0.7,2.1,1.4
		c0.5,0.7,0.6,1.5,0.4,2.4L161-53.6c-0.5,2.1-1.5,3.9-3.2,5.3C156.1-46.9,153.9-45.8,151.2-45.1z M160.5,22.2H24
		c-1.7,0-3.2-0.6-4.4-1.8c-1.2-1.2-1.8-2.7-1.8-4.3c0-1.7,0.6-3.2,1.8-4.4c1.2-1.2,2.7-1.8,4.4-1.8h136.4c1.7,0,3.2,0.6,4.4,1.8
		c1.2,1.2,1.8,2.7,1.8,4.4c0,1.7-0.6,3.1-1.8,4.3C163.6,21.6,162.2,22.2,160.5,22.2z"/>
</g>
<g id="Medium-L" transform="matrix(1 0 0 1 1655.16 1556)">
	<path d="M150.3-44.5l-107.5,29c-4.2,1.1-8.2,1.5-12,1.2c-3.8-0.4-7-1.4-9.6-3.2s-4.2-4.2-4.7-7.3c-0.5-2.9,0.1-5.6,1.8-8.2
		c1.7-2.6,4-4.8,7.1-6.7c3.1-1.9,6.6-3.2,10.5-4l38.6-7.6c1.3-0.3,2.3-0.7,3.2-1.2c0.9-0.6,1.7-1.5,2.6-2.8l33.5-48.2
		c1.1-1.5,2.5-2.6,4.3-3l4.3-1.1c0.9-0.2,1.7,0,2.2,0.6c0.6,0.7,0.7,1.5,0.5,2.6l-12.3,51.5l-4.4-5.1l34.8-6.8l-12.8,7.9l26.4-30.8
		c0.6-0.7,1.3-1.2,2.1-1.5c0.8-0.2,1.7-0.3,2.9,0l2.2,0.5c0.9,0.2,1.5,0.6,1.9,1.2c0.4,0.6,0.5,1.4,0.4,2.2l-6.8,32.7
		c-0.4,2-1.5,3.7-3,5.1C155-46.2,152.9-45.2,150.3-44.5z M159.4,21.4h-136c-1.5,0-2.8-0.5-3.8-1.6c-1.1-1.1-1.6-2.3-1.6-3.8
		c0-1.5,0.5-2.8,1.6-3.8s2.3-1.6,3.8-1.6h136c1.5,0,2.8,0.5,3.8,1.6s1.6,2.3,1.6,3.8c0,1.5-0.5,2.7-1.6,3.8
		C162.2,20.8,160.9,21.4,159.4,21.4z"/>
</g>
<g id="Regular-L" transform="matrix(1 0 0 1 1359.51 1556)">
	<path d="M149.1-43.8l-107.2,29c-4.1,1.1-8,1.5-11.7,1.2c-3.7-0.3-6.8-1.3-9.3-3.1c-2.5-1.7-4.1-4.1-4.6-7.1
		c-0.5-2.8,0.1-5.4,1.8-7.9c1.6-2.5,4-4.6,7-6.5c3-1.8,6.5-3.1,10.3-3.9l38.1-7.5c1.3-0.3,2.3-0.7,3.2-1.2c0.9-0.6,1.7-1.5,2.6-2.8
		l33.6-48.4c1-1.4,2.3-2.4,4-2.8l4.2-1c0.8-0.2,1.4,0,1.9,0.5c0.5,0.6,0.6,1.3,0.4,2.2l-12.2,50.6l-3.4-4l32.2-6.3l-9,5.5l24.9-29
		c0.6-0.7,1.2-1.1,1.9-1.4c0.7-0.2,1.6-0.2,2.7,0l2.1,0.4c0.8,0.2,1.3,0.5,1.7,1.1c0.3,0.6,0.4,1.2,0.3,1.9l-6.8,32.7
		c-0.4,1.9-1.4,3.5-2.8,4.7C153.4-45.4,151.5-44.4,149.1-43.8z M158.1,20.3H22.7c-1.2,0-2.2-0.4-3.1-1.3c-0.8-0.8-1.3-1.9-1.3-3
		c0-1.2,0.4-2.2,1.3-3.1c0.8-0.8,1.9-1.3,3.1-1.3h135.4c1.2,0,2.2,0.4,3.1,1.3c0.8,0.8,1.3,1.9,1.3,3.1c0,1.2-0.4,2.2-1.3,3
		C160.3,19.9,159.3,20.3,158.1,20.3z"/>
</g>
<g id="Light-L" transform="matrix(1 0 0 1 1064.34 1556)">
	<path d="M147.3-41.8L41.2-12.9c-4.2,1.1-8,1.6-11.6,1.3C26-12,23-13,20.6-14.6c-2.4-1.7-3.8-3.9-4.4-6.9c-0.4-2.7,0.1-5.2,1.6-7.6
		c1.5-2.4,3.8-4.5,6.7-6.2c3-1.8,6.4-3,10.3-3.8l36.6-7.2c1.2-0.2,2.1-0.6,3-1.1c0.8-0.5,1.6-1.3,2.4-2.5l34-49
		c0.9-1.3,2-2.1,3.5-2.5l3.8-0.9c0.8-0.2,1.4,0,1.8,0.5c0.5,0.5,0.6,1.2,0.4,2L108-50l-2.6-3l31.1-6.1l-6.8,4.1l24-27.9
		c0.5-0.6,1.1-1.1,1.7-1.3c0.6-0.2,1.5-0.2,2.5,0l1.7,0.4c0.7,0.2,1.2,0.5,1.5,1c0.3,0.5,0.4,1.1,0.3,1.8l-6.9,32.8
		c-0.4,1.7-1.2,3-2.3,4.1C151-43.2,149.4-42.4,147.3-41.8z M156.1,19.2H21.5c-0.9,0-1.7-0.3-2.3-1s-1-1.4-1-2.3c0-0.9,0.3-1.7,1-2.4
		c0.6-0.6,1.4-1,2.3-1h134.6c0.9,0,1.7,0.3,2.4,1c0.6,0.6,1,1.4,1,2.4c0,0.9-0.3,1.7-1,2.3C157.9,18.9,157.1,19.2,156.1,19.2z"/>
</g>
<g id="Thin-L" transform="matrix(1 0 0 1 769.658 1556)">
	<path d="M145.1-39.3L40.2-10.5C36-9.3,32.2-8.9,28.7-9.1c-3.4-0.3-6.3-1.2-8.4-2.8c-2.2-1.6-3.5-3.8-4-6.5
		c-0.4-2.5,0.1-4.9,1.5-7.2c1.4-2.3,3.5-4.2,6.3-5.9c2.8-1.7,6.3-2.9,10.2-3.7l34.5-6.9c1-0.2,1.9-0.5,2.6-1
		c0.7-0.4,1.4-1.1,2.1-2.1L108-95c0.7-1,1.7-1.7,2.9-2l3.3-0.8c0.7-0.2,1.3-0.1,1.8,0.4c0.4,0.4,0.6,1,0.4,1.7L104-46.9l-1.6-1.8
		l29.5-5.8l-3.9,2.3l22.8-26.6c0.5-0.6,1-0.9,1.5-1.1c0.5-0.2,1.3-0.2,2.3,0l1.2,0.3c0.6,0.1,1.1,0.4,1.3,0.8
		c0.2,0.4,0.3,0.9,0.2,1.6l-7,33c-0.3,1.4-0.9,2.4-1.7,3.2C147.8-40.3,146.6-39.7,145.1-39.3z M153.6,17.8H20c-0.5,0-1-0.2-1.4-0.6
		c-0.4-0.4-0.6-0.8-0.6-1.4c0-0.5,0.2-1,0.6-1.4c0.4-0.4,0.8-0.6,1.4-0.6h133.7c0.5,0,1,0.2,1.4,0.6c0.4,0.4,0.6,0.9,0.6,1.4
		c0,0.5-0.2,1-0.6,1.4C154.6,17.6,154.2,17.8,153.6,17.8z"/>
</g>
<g id="Ultralight-L" transform="matrix(1 0 0 1 473.988 1556)">
	<path d="M143.9-37.9L39.8-9.3c-4.3,1.2-8.1,1.7-11.5,1.4s-6.1-1.2-8.2-2.7c-2.1-1.6-3.4-3.7-3.8-6.4c-0.4-2.5,0.1-4.8,1.4-7
		c1.3-2.2,3.4-4.1,6.1-5.7c2.8-1.6,6.2-2.8,10.2-3.7l33.5-6.7c0.9-0.2,1.8-0.5,2.5-0.9c0.7-0.4,1.3-1,1.9-1.9l34.8-50.2
		c0.6-0.9,1.5-1.5,2.6-1.8l3-0.8c0.7-0.2,1.3-0.1,1.7,0.3c0.4,0.4,0.6,0.9,0.4,1.6l-12.5,48.3l-1.1-1.1l28.7-5.7l-2.4,1.4l22.3-25.9
		c0.5-0.5,0.9-0.9,1.4-1c0.5-0.2,1.2-0.2,2.1,0l1,0.2c0.6,0.1,1,0.4,1.2,0.7c0.2,0.3,0.3,0.8,0.2,1.4l-7.1,33
		c-0.3,1.2-0.7,2.1-1.4,2.8C146.1-38.8,145.2-38.3,143.9-37.9z M152.3,17H19.2c-0.3,0-0.6-0.1-0.9-0.4c-0.3-0.2-0.4-0.5-0.4-0.9
		c0-0.4,0.1-0.7,0.4-0.9c0.3-0.3,0.5-0.4,0.9-0.4h133.2c0.4,0,0.7,0.1,0.9,0.4c0.3,0.3,0.4,0.6,0.4,0.9c0,0.4-0.1,0.7-0.4,0.9
		C153,16.9,152.7,17,152.3,17z"/>
</g>
<g id="Black-M" transform="matrix(1 0 0 1 2858.13 1126)">
	<path d="M121.5-45.1L37.1-22.4c-3.7,1-7.2,1.2-10.5,0.8c-3.3-0.4-6.1-1.5-8.3-3.2c-2.2-1.7-3.6-3.9-4.1-6.6
		c-0.4-2.5,0.1-4.9,1.5-7.2c1.4-2.3,3.4-4.4,6.1-6.1c2.7-1.7,5.7-2.9,9.1-3.6l31.5-6.2c0.9-0.2,1.7-0.5,2.2-0.9
		c0.6-0.4,1.2-1.1,1.9-2.1L92-94.1c1.2-1.7,2.8-2.8,4.7-3.3l3.8-0.9c1.3-0.3,2.3,0,3.1,1c0.8,1,1.1,2.2,0.8,3.5l-10,43.6l-7.8-9.2
		l38.5-7.5l-27.1,17l27.6-32.3c1.4-1.7,3.3-2.2,5.7-1.8l2.1,0.4c1.1,0.2,2,0.8,2.6,1.7c0.6,0.9,0.8,1.9,0.5,3l-5.1,25.1
		c-0.5,2.1-1.5,3.8-3.2,5.3C126.5-46.9,124.3-45.8,121.5-45.1z M129.2,13.1H21.3c-2.4,0-4.4-0.8-6.1-2.5c-1.7-1.7-2.6-3.7-2.6-6.2
		c0-2.4,0.9-4.4,2.6-6.1c1.7-1.7,3.8-2.5,6.1-2.5h107.9c2.4,0,4.5,0.8,6.2,2.5c1.7,1.7,2.5,3.7,2.5,6.1c0,2.4-0.8,4.5-2.5,6.2
		C133.7,12.3,131.6,13.1,129.2,13.1z"/>
</g>
<g id="Heavy-M" transform="matrix(1 0 0 1 2562.46 1126)">
	<path d="M120.3-44.6L36.1-22c-3.6,0.9-7,1.2-10.2,0.8c-3.2-0.4-5.9-1.4-8.1-3c-2.2-1.6-3.5-3.7-4-6.4c-0.4-2.4,0.1-4.7,1.5-7
		c1.4-2.2,3.4-4.2,6-5.9c2.6-1.7,5.5-2.8,8.8-3.5L61.4-53c1-0.2,1.7-0.5,2.3-0.9c0.6-0.4,1.2-1.1,1.9-2.2l25.6-36.8
		c1.1-1.6,2.6-2.6,4.4-3l3.7-0.9c1.1-0.3,2,0,2.8,0.9c0.7,0.9,0.9,1.9,0.6,3.1l-9.9,42.7l-6.7-7.9l35.4-6.9L98.9-50.7l25.7-30.1
		c1.3-1.5,3-2,5.2-1.6l2,0.4c1,0.2,1.8,0.7,2.3,1.5c0.5,0.8,0.7,1.7,0.4,2.7l-5.1,25.2c-0.4,2-1.4,3.6-3,5
		C125-46.3,122.9-45.3,120.3-44.6z M127.9,12H20.6c-2.1,0-3.8-0.7-5.3-2.2C13.8,8.3,13,6.5,13,4.5c0-2.1,0.7-3.8,2.2-5.3
		c1.5-1.5,3.3-2.2,5.3-2.2h107.3c2.1,0,3.9,0.7,5.4,2.2c1.5,1.5,2.2,3.2,2.2,5.3c0,2.1-0.7,3.9-2.2,5.4C131.7,11.3,130,12,127.9,12z
		"/>
</g>
<g id="Bold-M" transform="matrix(1 0 0 1 2266.91 1126)">
	<path d="M119-44L35-21.4c-3.4,0.9-6.7,1.2-9.8,0.8s-5.7-1.3-7.9-2.8c-2.1-1.5-3.4-3.6-3.9-6.1c-0.4-2.3,0.1-4.6,1.5-6.8
		c1.4-2.2,3.3-4,5.8-5.6c2.5-1.6,5.4-2.7,8.5-3.3l31-6.1c1-0.2,1.8-0.5,2.4-0.9c0.6-0.4,1.3-1.2,2-2.2l25.7-36.9
		c1-1.4,2.4-2.4,4-2.8l3.6-0.9c0.9-0.2,1.7,0,2.3,0.7c0.6,0.7,0.8,1.6,0.5,2.7L91.1-50l-5.4-6.4l32.1-6.3l-17.7,11l23.7-27.7
		c1.1-1.4,2.7-1.8,4.7-1.4l2,0.4c0.9,0.2,1.6,0.6,2,1.3c0.4,0.7,0.6,1.4,0.4,2.3l-5.1,25.2c-0.4,1.9-1.3,3.4-2.8,4.7
		C123.4-45.6,121.4-44.7,119-44z M126.4,10.8H19.8c-1.7,0-3.2-0.6-4.4-1.9c-1.2-1.2-1.9-2.7-1.9-4.5c0-1.7,0.6-3.2,1.9-4.4
		c1.2-1.2,2.7-1.8,4.4-1.8h106.6c1.7,0,3.2,0.6,4.5,1.8c1.2,1.2,1.8,2.7,1.8,4.4c0,1.7-0.6,3.2-1.8,4.5
		C129.6,10.2,128.1,10.8,126.4,10.8z"/>
</g>
<g id="Semibold-M" transform="matrix(1 0 0 1 1971 1126)">
	<path d="M118.1-43.6L34.2-21.1c-3.3,0.9-6.5,1.2-9.5,0.9c-3-0.3-5.6-1.2-7.7-2.7c-2.1-1.5-3.4-3.4-3.8-6c-0.4-2.3,0.1-4.5,1.5-6.6
		c1.3-2.1,3.3-3.9,5.7-5.5c2.5-1.5,5.3-2.6,8.3-3.2l30.8-6.1c1-0.2,1.8-0.5,2.5-1c0.7-0.4,1.3-1.2,2.1-2.2l25.7-37
		c1-1.3,2.2-2.2,3.8-2.6l3.6-0.9c0.8-0.2,1.5,0,2,0.6c0.5,0.6,0.7,1.4,0.4,2.4l-9.6,40.9l-4.6-5.4l29.7-5.8l-14.2,8.9l22.2-26
		c1.1-1.2,2.5-1.7,4.4-1.3l1.9,0.4c0.8,0.2,1.4,0.5,1.8,1.1c0.4,0.6,0.5,1.3,0.3,2l-5.1,25.2c-0.4,1.8-1.3,3.2-2.7,4.4
		C122.2-45.1,120.4-44.2,118.1-43.6z M125.4,9.9H19.2c-1.5,0-2.8-0.5-3.8-1.6c-1.1-1.1-1.6-2.4-1.6-3.9c0-1.5,0.5-2.8,1.6-3.8
		c1.1-1.1,2.3-1.6,3.8-1.6h106.2c1.5,0,2.8,0.5,3.8,1.6c1.1,1.1,1.6,2.3,1.6,3.8c0,1.5-0.5,2.8-1.6,3.9
		C128.2,9.4,126.9,9.9,125.4,9.9z"/>
</g>
<g id="Medium-M" transform="matrix(1 0 0 1 1674.89 1126)">
	<path d="M117.4-43.3L33.6-20.8c-3.2,0.9-6.3,1.2-9.3,0.9c-3-0.3-5.5-1.1-7.6-2.6c-2.1-1.4-3.3-3.4-3.8-5.8
		c-0.4-2.3,0.1-4.4,1.5-6.5c1.3-2,3.2-3.8,5.7-5.3s5.2-2.5,8.2-3.1l30.6-6.1c1-0.2,1.9-0.5,2.6-1c0.7-0.5,1.4-1.2,2.1-2.3l25.8-37.1
		c0.9-1.3,2.1-2.1,3.6-2.5l3.5-0.9c0.7-0.2,1.3,0,1.8,0.6c0.5,0.6,0.6,1.3,0.4,2.1L89-49.9l-3.9-4.6L113-60l-11.6,7.2l21.1-24.7
		c1-1.2,2.4-1.6,4.1-1.2l1.9,0.4c0.7,0.1,1.3,0.5,1.6,1c0.3,0.5,0.4,1.1,0.3,1.8l-5.2,25.3c-0.4,1.7-1.2,3.1-2.6,4.3
		C121.4-44.8,119.6-43.9,117.4-43.3z M124.6,9.3H18.8c-1.3,0-2.4-0.5-3.4-1.4C14.5,6.9,14,5.8,14,4.5c0-1.3,0.5-2.4,1.4-3.4
		c0.9-0.9,2.1-1.4,3.4-1.4h105.8c1.3,0,2.4,0.5,3.4,1.4c0.9,0.9,1.4,2.1,1.4,3.4c0,1.3-0.5,2.4-1.4,3.4C127,8.8,125.9,9.3,124.6,9.3
		z"/>
</g>
<g id="Regular-M" transform="matrix(1 0 0 1 1378.97 1126)">
	<path d="M116.5-43L32.8-20.5c-3.1,0.8-6.2,1.1-9.1,0.9c-2.9-0.3-5.4-1.1-7.4-2.4c-2-1.4-3.3-3.2-3.7-5.7C12.2-29.9,12.7-32,14-34
		c1.3-2,3.2-3.7,5.6-5.2c2.4-1.4,5.1-2.4,8-3L58-48.2c1-0.2,1.9-0.5,2.6-1s1.4-1.2,2.1-2.3l25.8-37.2c0.8-1.2,2-1.9,3.3-2.3l3.5-0.9
		c0.6-0.2,1.1,0,1.5,0.5c0.4,0.5,0.5,1.1,0.3,1.8l-9.4,39.7l-3.1-3.6l25.6-5l-8.2,5.1l19.7-23c0.9-1,2.2-1.4,3.8-1.1l1.9,0.4
		c0.7,0.1,1.1,0.4,1.4,0.9c0.3,0.5,0.4,1,0.2,1.6L124-49.4c-0.4,1.6-1.2,3-2.5,4C120.3-44.3,118.6-43.5,116.5-43z M123.6,8.4H18.2
		c-1.1,0-2-0.4-2.8-1.2c-0.8-0.8-1.1-1.7-1.1-2.8s0.4-2,1.1-2.8c0.8-0.8,1.7-1.1,2.8-1.1h105.4c1.1,0,2,0.4,2.8,1.1
		c0.8,0.8,1.1,1.7,1.1,2.8s-0.4,2-1.1,2.8C125.6,8.1,124.7,8.4,123.6,8.4z"/>
</g>
<g id="Light-M" transform="matrix(1 0 0 1 1083.64 1126)">
	<path d="M114.9-41.2L32.2-18.8c-3.2,0.9-6.2,1.2-9,0.9c-2.8-0.2-5.2-1-7.1-2.3c-1.9-1.3-3.1-3.1-3.5-5.5c-0.3-2.1,0.1-4.1,1.3-6
		c1.2-1.9,3-3.5,5.3-4.9c2.3-1.4,5-2.4,7.9-2.9l29-5.8c0.9-0.2,1.7-0.5,2.4-0.9c0.7-0.4,1.3-1.1,1.9-2L86.8-86c0.7-1,1.7-1.7,2.9-2
		l3.1-0.8c0.6-0.2,1.1,0,1.5,0.4c0.4,0.4,0.5,1,0.3,1.6l-9.5,39l-2.4-2.8l24.6-4.8l-6.3,3.8l19-22.1c0.8-1,2-1.3,3.5-1l1.5,0.3
		c0.6,0.1,1,0.4,1.3,0.8c0.3,0.4,0.3,0.9,0.2,1.4l-5.3,25.4c-0.3,1.4-1,2.6-2,3.5C118.1-42.4,116.7-41.7,114.9-41.2z M121.9,7.5
		H17.2c-0.8,0-1.5-0.3-2.1-0.9c-0.6-0.6-0.9-1.3-0.9-2.1s0.3-1.5,0.9-2.1c0.6-0.6,1.3-0.9,2.1-0.9h104.7c0.8,0,1.5,0.3,2.1,0.9
		c0.6,0.6,0.9,1.3,0.9,2.1S124.6,6,124,6.6C123.4,7.2,122.7,7.5,121.9,7.5z"/>
</g>
<g id="Thin-M" transform="matrix(1 0 0 1 788.747 1126)">
	<path d="M112.9-38.9L31.4-16.6c-3.3,0.9-6.2,1.2-8.9,1c-2.7-0.2-4.9-0.9-6.7-2.2c-1.7-1.2-2.8-3-3.2-5.1c-0.3-2,0.1-3.9,1.2-5.7
		c1.1-1.8,2.8-3.3,5-4.6c2.2-1.3,4.9-2.3,7.9-2.9l27.2-5.4c0.8-0.2,1.5-0.4,2.1-0.8c0.6-0.4,1.1-0.9,1.7-1.7l26.6-38.4
		c0.6-0.8,1.4-1.4,2.4-1.7l2.7-0.7c0.6-0.2,1-0.1,1.4,0.3c0.4,0.4,0.5,0.8,0.3,1.4l-9.6,38.1L80-46.6l23.2-4.6L99.5-49l17.9-20.9
		c0.7-0.8,1.8-1.1,3.1-0.9l1.1,0.3c0.5,0.1,0.9,0.3,1.1,0.6c0.2,0.3,0.3,0.7,0.2,1.2l-5.4,25.5c-0.2,1.1-0.7,2-1.4,2.7
		C115.2-39.8,114.2-39.3,112.9-38.9z M119.6,6.2H15.8c-0.5,0-0.9-0.2-1.3-0.5C14.2,5.3,14,4.8,14,4.4c0-0.5,0.2-0.9,0.5-1.3
		c0.4-0.4,0.8-0.5,1.3-0.5h103.8c0.5,0,0.9,0.2,1.3,0.5c0.4,0.4,0.5,0.8,0.5,1.3c0,0.5-0.2,0.9-0.5,1.3C120.5,6,120.1,6.2,119.6,6.2
		z"/>
</g>
<g id="Ultralight-M" transform="matrix(1 0 0 1 492.969 1126)">
	<path d="M111.8-37.7L31-15.5c-3.3,0.9-6.3,1.3-8.9,1.1c-2.6-0.2-4.8-0.9-6.4-2.1c-1.7-1.2-2.7-2.9-3-5c-0.3-1.9,0-3.8,1.1-5.5
		c1-1.7,2.7-3.2,4.8-4.5c2.2-1.3,4.8-2.2,7.9-2.8l26.3-5.2c0.7-0.2,1.4-0.4,1.9-0.7c0.5-0.3,1.1-0.8,1.5-1.5l26.9-38.8
		c0.5-0.7,1.2-1.2,2.1-1.5l2.4-0.6c0.6-0.2,1-0.1,1.4,0.2c0.3,0.3,0.5,0.7,0.3,1.3l-9.7,37.6l-1-1.1l22.5-4.5l-2.3,1.4L116.1-68
		c0.7-0.8,1.6-1,2.9-0.8l0.9,0.2c0.5,0.1,0.8,0.3,1,0.6c0.2,0.3,0.2,0.7,0.1,1.2l-5.5,25.6c-0.2,1-0.6,1.8-1.1,2.3
		C113.7-38.4,112.9-38,111.8-37.7z M118.5,5.5H15.1c-0.3,0-0.6-0.1-0.8-0.4c-0.2-0.2-0.4-0.5-0.4-0.8c0-0.3,0.1-0.6,0.4-0.8
		c0.2-0.2,0.5-0.4,0.8-0.4h103.4c0.3,0,0.6,0.1,0.8,0.4c0.2,0.2,0.4,0.5,0.4,0.8c0,0.3-0.1,0.6-0.4,0.8
		C119.1,5.4,118.8,5.5,118.5,5.5z"/>
</g>
<g id="Black-S" transform="matrix(1 0 0 1 2874.22 696)">
	<path d="M95.4-43L29.3-25.2c-2.9,0.8-5.7,1-8.3,0.6c-2.6-0.4-4.8-1.2-6.6-2.5c-1.8-1.3-2.8-3.1-3.2-5.2c-0.3-2,0.1-3.9,1.1-5.7
		c1.1-1.9,2.7-3.5,4.8-4.8c2.1-1.4,4.5-2.3,7.3-2.8l24.7-4.9c0.7-0.2,1.3-0.4,1.7-0.7c0.4-0.3,0.9-0.8,1.4-1.6l20-28.8
		c0.9-1.4,2.2-2.2,3.8-2.6l2.9-0.7c1-0.3,1.9,0,2.6,0.8c0.7,0.8,0.9,1.8,0.6,2.9l-7.9,34.4l-6.4-7.5l31-6.1L76.3-46.3l22.2-25.9
		c1.1-1.3,2.6-1.8,4.5-1.4l1.7,0.3c0.9,0.2,1.6,0.6,2.1,1.3c0.5,0.7,0.6,1.5,0.4,2.5l-4,19.7c-0.4,1.6-1.2,3-2.5,4.2
		C99.3-44.4,97.6-43.6,95.4-43z M101.5,2.9H16.8c-2,0-3.6-0.7-5-2.1c-1.4-1.4-2.1-3.1-2.1-5s0.7-3.6,2.1-5c1.4-1.4,3.1-2.1,5-2.1
		h84.7c2,0,3.6,0.7,5,2.1c1.4,1.4,2.1,3.1,2.1,5s-0.7,3.6-2.1,5C105.1,2.2,103.5,2.9,101.5,2.9z"/>
</g>
<g id="Heavy-S" transform="matrix(1 0 0 1 2578.22 696)">
	<path d="M94.6-42.8L28.5-25.1c-2.8,0.8-5.5,1-8,0.6c-2.6-0.3-4.7-1.1-6.4-2.4c-1.7-1.3-2.8-3-3.2-5c-0.3-1.9,0.1-3.8,1.2-5.6
		c1.1-1.8,2.7-3.3,4.7-4.7c2.1-1.3,4.4-2.2,7-2.7l24.6-4.9c0.8-0.2,1.4-0.4,1.8-0.7c0.5-0.3,1-0.9,1.5-1.6l20-28.8
		c0.9-1.3,2.1-2.1,3.5-2.4l2.9-0.7c0.9-0.2,1.7,0,2.3,0.7c0.6,0.7,0.8,1.6,0.5,2.6L73.2-47l-5.5-6.5l28.6-5.6L77.3-47.3L98-71.4
		c1-1.2,2.4-1.7,4.2-1.3l1.6,0.3c0.8,0.2,1.5,0.6,1.9,1.2c0.4,0.6,0.6,1.4,0.4,2.2l-4,19.7c-0.3,1.6-1.2,2.9-2.4,4
		C98.4-44.2,96.7-43.3,94.6-42.8z M100.6,2.1H16.4c-1.7,0-3.2-0.6-4.4-1.8c-1.2-1.2-1.8-2.7-1.8-4.4c0-1.7,0.6-3.2,1.8-4.4
		c1.2-1.2,2.7-1.8,4.4-1.8h84.2c1.7,0,3.2,0.6,4.4,1.8c1.2,1.2,1.8,2.7,1.8,4.4c0,1.7-0.6,3.2-1.8,4.4
		C103.8,1.5,102.3,2.1,100.6,2.1z"/>
</g>
<g id="Bold-S" transform="matrix(1 0 0 1 2282.3 696)">
	<path d="M93.7-42.6l-66,17.7c-2.7,0.7-5.2,0.9-7.7,0.6c-2.5-0.3-4.6-1-6.3-2.2c-1.7-1.2-2.8-2.8-3.1-4.8c-0.3-1.9,0.1-3.7,1.2-5.4
		c1.1-1.7,2.6-3.2,4.6-4.5c2-1.3,4.3-2.1,6.8-2.6l24.6-4.9c0.8-0.2,1.4-0.4,2-0.8c0.5-0.3,1-0.9,1.6-1.7l20-28.8
		c0.8-1.2,1.9-2,3.3-2.3l2.9-0.7c0.7-0.2,1.4,0,1.9,0.6c0.5,0.6,0.7,1.3,0.4,2.2l-7.6,32.9l-4.6-5.4l25.8-5l-14.9,9.3l19-22.2
		c0.9-1.1,2.2-1.5,3.8-1.2l1.6,0.3c0.7,0.2,1.3,0.5,1.6,1c0.4,0.5,0.5,1.2,0.3,1.9l-4,19.8c-0.3,1.5-1.1,2.8-2.3,3.8
		C97.3-43.9,95.7-43.1,93.7-42.6z M99.6,1.2H15.8c-1.5,0-2.7-0.5-3.8-1.6c-1-1-1.6-2.3-1.6-3.7c0-1.5,0.5-2.7,1.6-3.7
		c1-1,2.3-1.6,3.8-1.6h83.7c1.5,0,2.7,0.5,3.8,1.6c1,1,1.6,2.3,1.6,3.7c0,1.4-0.5,2.7-1.6,3.7C102.3,0.7,101,1.2,99.6,1.2z"/>
</g>
<g id="Semibold-S" transform="matrix(1 0 0 1 1986.13 696)">
	<path d="M93.1-42.4l-66,17.7c-2.6,0.7-5.1,0.9-7.5,0.7c-2.4-0.3-4.5-1-6.2-2.1c-1.7-1.2-2.7-2.7-3.1-4.7c-0.3-1.9,0.1-3.6,1.2-5.3
		c1.1-1.7,2.6-3.1,4.6-4.4c2-1.2,4.2-2.1,6.6-2.5L47.2-48c0.8-0.2,1.5-0.4,2-0.8c0.5-0.4,1.1-1,1.7-1.8l20-28.8
		c0.8-1.1,1.8-1.9,3.1-2.2l2.9-0.7c0.6-0.2,1.2,0,1.6,0.5c0.4,0.5,0.6,1.2,0.4,2l-7.5,32.4L67.5-52l23.9-4.7l-12.2,7.6L97.1-70
		c0.8-1,2-1.4,3.5-1.1l1.6,0.3c0.7,0.2,1.2,0.5,1.5,0.9c0.3,0.5,0.4,1,0.3,1.7l-4,19.8c-0.3,1.5-1.1,2.7-2.3,3.7
		C96.6-43.7,95-42.9,93.1-42.4z M98.9,0.6H15.5c-1.3,0-2.4-0.5-3.3-1.4c-0.9-0.9-1.4-2-1.4-3.3c0-1.3,0.5-2.4,1.4-3.3
		c0.9-0.9,2-1.4,3.3-1.4h83.4c1.3,0,2.4,0.5,3.3,1.4c0.9,0.9,1.4,2,1.4,3.3c0,1.3-0.5,2.4-1.4,3.3C101.2,0.1,100.1,0.6,98.9,0.6z"/>
</g>
<g id="Medium-S" transform="matrix(1 0 0 1 1689.84 696)">
	<path d="M92.6-42.3l-66,17.7c-2.5,0.7-5,0.9-7.3,0.7c-2.4-0.2-4.4-0.9-6.1-2.1c-1.7-1.1-2.7-2.7-3.1-4.6c-0.3-1.8,0.1-3.6,1.2-5.2
		c1.1-1.6,2.6-3.1,4.5-4.3c2-1.2,4.1-2,6.5-2.5l24.5-4.8c0.8-0.2,1.6-0.4,2.1-0.8c0.6-0.4,1.1-1,1.7-1.9l20-28.8
		c0.8-1.1,1.8-1.8,3-2.1l2.9-0.7c0.6-0.2,1,0,1.4,0.5c0.4,0.5,0.5,1.1,0.3,1.8l-7.4,32l-3.4-4L89.9-56l-10.1,6.3l17-19.8
		c0.8-1,1.9-1.3,3.3-1l1.6,0.3c0.6,0.1,1.1,0.4,1.3,0.9c0.3,0.4,0.4,0.9,0.2,1.5l-4,19.8c-0.3,1.4-1,2.6-2.2,3.6
		C96-43.5,94.5-42.8,92.6-42.3z M98.3,0.1H15.2c-1.2,0-2.1-0.4-3-1.2C11.4-2,11-2.9,11-4.1c0-1.2,0.4-2.1,1.2-2.9
		c0.8-0.8,1.8-1.2,3-1.2h83.1c1.2,0,2.1,0.4,3,1.2c0.8,0.8,1.2,1.8,1.2,2.9c0,1.1-0.4,2.1-1.2,2.9C100.5-0.3,99.5,0.1,98.3,0.1z"/>
</g>
<g id="Regular-S" transform="matrix(1 0 0 1 1393.67 696)">
	<path d="M92-42.1L26-24.5c-2.4,0.7-4.8,0.9-7.1,0.7c-2.3-0.2-4.3-0.9-6-2c-1.7-1.1-2.7-2.6-3-4.5c-0.3-1.8,0.1-3.5,1.2-5.1
		c1.1-1.6,2.6-3,4.5-4.1c1.9-1.2,4-2,6.3-2.4l24.5-4.8c0.9-0.2,1.6-0.4,2.2-0.9c0.6-0.4,1.2-1,1.8-1.9l20-28.8c0.7-1,1.7-1.7,2.8-2
		l2.9-0.7c0.5-0.1,0.8,0,1.2,0.4c0.3,0.4,0.4,0.9,0.2,1.5l-7.3,31.4L67.4-51L88-55l-7.4,4.6l15.9-18.5c0.7-0.9,1.7-1.2,3.1-0.9
		l1.6,0.3c0.6,0.1,0.9,0.4,1.2,0.8c0.2,0.4,0.3,0.8,0.2,1.3l-4,19.8c-0.3,1.4-1,2.5-2.1,3.4C95.2-43.3,93.8-42.6,92-42.1z M97.6-0.5
		H14.8c-1,0-1.8-0.3-2.5-1c-0.7-0.7-1.1-1.5-1.1-2.5c0-1,0.3-1.8,1.1-2.5c0.7-0.7,1.5-1,2.5-1h82.8c1,0,1.8,0.3,2.5,1s1,1.5,1,2.5
		c0,0.9-0.3,1.8-1,2.5C99.4-0.9,98.6-0.5,97.6-0.5z"/>
</g>
<g id="Light-S" transform="matrix(1 0 0 1 1098.18 696)">
	<path d="M90.6-40.6L25.5-23c-2.5,0.7-4.8,0.9-7.1,0.7c-2.3-0.2-4.2-0.8-5.7-1.9c-1.5-1.1-2.5-2.5-2.8-4.3c-0.3-1.7,0.1-3.4,1.1-4.9
		c1-1.5,2.4-2.8,4.3-3.9c1.9-1.1,3.9-1.9,6.3-2.4l23.3-4.6c0.8-0.2,1.5-0.4,2-0.8c0.5-0.4,1.1-0.9,1.6-1.7L68.7-76
		c0.6-0.9,1.4-1.5,2.5-1.7l2.6-0.6c0.5-0.1,0.8,0,1.1,0.3c0.3,0.4,0.4,0.8,0.2,1.4l-7.4,30.8l-2.2-2.5l19.7-3.9l-5.6,3.5l15.2-17.7
		c0.7-0.8,1.6-1.1,2.8-0.8l1.3,0.3c0.5,0.1,0.9,0.3,1.1,0.7c0.2,0.3,0.3,0.7,0.2,1.2L96-45.3c-0.3,1.2-0.8,2.2-1.8,2.9
		C93.3-41.6,92.1-41,90.6-40.6z M96.1-1.4H13.9c-0.7,0-1.4-0.3-1.9-0.8c-0.5-0.5-0.8-1.2-0.8-1.9c0-0.8,0.3-1.4,0.8-1.9
		c0.5-0.5,1.2-0.8,1.9-0.8h82.3c0.7,0,1.4,0.3,1.9,0.8c0.5,0.5,0.8,1.2,0.8,1.9c0,0.7-0.3,1.4-0.8,1.9C97.5-1.7,96.9-1.4,96.1-1.4z"
		/>
</g>
<g id="Thin-S" transform="matrix(1 0 0 1 803.075 696)">
	<path d="M88.8-38.6L24.7-21.1c-2.5,0.7-4.9,1-7,0.8c-2.1-0.2-3.9-0.7-5.3-1.7c-1.4-1-2.2-2.3-2.6-4.1c-0.3-1.6,0-3.1,0.9-4.5
		c0.9-1.4,2.2-2.6,4-3.7c1.8-1,3.8-1.8,6.2-2.3l21.6-4.3c0.7-0.1,1.2-0.4,1.7-0.7c0.5-0.3,0.9-0.8,1.4-1.4l20.8-30
		c0.5-0.7,1.1-1.1,2-1.4l2.1-0.5c0.5-0.1,0.8,0,1.1,0.2c0.3,0.3,0.4,0.7,0.2,1.2l-7.5,30l-1.3-1.5l18.5-3.7l-3.4,2l14.3-16.6
		c0.6-0.7,1.4-1,2.5-0.7l0.9,0.2c0.4,0.1,0.7,0.3,0.9,0.5c0.2,0.3,0.2,0.6,0.1,1l-4.2,20c-0.2,0.9-0.6,1.7-1.3,2.3
		C90.8-39.3,89.9-38.9,88.8-38.6z M94.1-2.5H12.6c-0.4,0-0.8-0.2-1.1-0.5C11.2-3.4,11-3.7,11-4.2c0-0.5,0.2-0.9,0.5-1.2
		c0.3-0.3,0.7-0.5,1.1-0.5h81.5c0.4,0,0.8,0.2,1.1,0.5c0.3,0.3,0.5,0.7,0.5,1.2c0,0.5-0.2,0.8-0.5,1.2C95-2.7,94.6-2.5,94.1-2.5z"/>
</g>
<g id="Ultralight-S" transform="matrix(1 0 0 1 507.19 696)">
	<path d="M87.9-37.5L24.4-20.1c-2.6,0.7-4.9,1-7,0.8c-2.1-0.2-3.8-0.7-5.1-1.7c-1.3-1-2.1-2.3-2.4-3.9c-0.3-1.6,0-3,0.9-4.4
		c0.8-1.4,2.1-2.6,3.8-3.6c1.7-1,3.8-1.7,6.2-2.2l20.8-4.1c0.6-0.1,1.1-0.3,1.6-0.6c0.4-0.3,0.9-0.7,1.2-1.2l21-30.3
		c0.4-0.6,1-1,1.7-1.2l1.9-0.5c0.5-0.1,0.8-0.1,1.1,0.2c0.3,0.3,0.3,0.6,0.2,1.1l-7.5,29.6l-0.9-1l17.8-3.5l-2.2,1.3l13.8-16
		c0.6-0.7,1.3-0.9,2.3-0.7l0.7,0.2c0.4,0.1,0.7,0.2,0.8,0.4c0.1,0.2,0.2,0.5,0.1,0.9l-4.3,20c-0.2,0.8-0.5,1.5-1,1.9
		S88.8-37.8,87.9-37.5z M93.1-3.1H12c-0.3,0-0.5-0.1-0.7-0.3c-0.2-0.2-0.3-0.5-0.3-0.8c0-0.3,0.1-0.6,0.3-0.8
		c0.2-0.2,0.5-0.3,0.7-0.3h81.1c0.3,0,0.5,0.1,0.7,0.3s0.3,0.5,0.3,0.8c0,0.3-0.1,0.6-0.3,0.8C93.7-3.2,93.4-3.1,93.1-3.1z"/>
</g>
</svg>
