<?xml version="1.0" encoding="utf-8"?>
<!-- Generator: Adobe Illustrator 26.0.2, SVG Export Plug-In . SVG Version: 6.00 Build 0)  -->
<svg version="1.1" id="Layer_1" xmlns="http://www.w3.org/2000/svg" xmlns:xlink="http://www.w3.org/1999/xlink" x="0px" y="0px"
	 viewBox="0 0 3300 2200" style="enable-background:new 0 0 3300 2200;" xml:space="preserve">
<style type="text/css">
	.st0{fill:#FFFFFF;}
	.st1{fill:none;stroke:#000000;stroke-width:0.5;}
	.st2{font-family:'Helvetica-Bold';}
	.st3{font-size:13px;}
	.st4{font-family:'Helvetica';}
	.st5{fill:none;stroke:#00AEEF;stroke-width:0.5;}
	.st6{fill:#27AAE1;}
	.st7{fill:none;stroke:#27AAE1;stroke-width:0.5;}
</style>
<g id="Notes">
	<rect id="artboard" class="st0" width="3300" height="2200"/>
	<line class="st1" x1="263" y1="292" x2="3036" y2="292"/>
	<text transform="matrix(1 0 0 1 263 322)" class="st2 st3">Weight/Scale Variations</text>
	<text transform="matrix(1 0 0 1 534.0633 322)" class="st4 st3">Ultralight</text>
	<text transform="matrix(1 0 0 1 843.7775 322)" class="st4 st3">Thin</text>
	<text transform="matrix(1 0 0 1 1139.035 322)" class="st4 st3">Light</text>
	<text transform="matrix(1 0 0 1 1427.0773 322)" class="st4 st3">Regular</text>
	<text transform="matrix(1 0 0 1 1723.4419 322)" class="st4 st3">Medium</text>
	<text transform="matrix(1 0 0 1 2016.1719 322)" class="st4 st3">Semibold</text>
	<text transform="matrix(1 0 0 1 2326.9705 322)" class="st4 st3">Bold</text>
	<text transform="matrix(1 0 0 1 2618.2659 322)" class="st4 st3">Heavy</text>
	<text transform="matrix(1 0 0 1 2917.5054 322)" class="st4 st3">Black</text>
	<line class="st1" x1="263" y1="1903" x2="3036" y2="1903"/>
	<g transform="matrix(1 0 0 1 263 1933)">
		<path d="M9.2,0.8c1.1,0,2.1-0.2,3-0.6c1-0.4,1.8-1,2.5-1.7c0.7-0.7,1.3-1.6,1.7-2.5c0.4-1,0.6-2,0.6-3s-0.2-2.1-0.6-3
			c-0.4-1-1-1.8-1.7-2.5c-0.7-0.7-1.6-1.3-2.5-1.7c-1-0.4-2-0.6-3-0.6c-1.1,0-2.1,0.2-3,0.6s-1.8,1-2.5,1.7C3-11.9,2.4-11,2-10.1
			c-0.4,1-0.6,2-0.6,3S1.6-5,2-4c0.4,1,1,1.8,1.7,2.5s1.6,1.3,2.5,1.7C7.2,0.6,8.2,0.8,9.2,0.8z M9.2-0.7c-0.9,0-1.7-0.2-2.5-0.5
			C6-1.5,5.3-1.9,4.7-2.5c-0.6-0.6-1-1.3-1.4-2C3-5.3,2.9-6.2,2.9-7.1c0-0.9,0.2-1.7,0.5-2.5c0.3-0.8,0.8-1.5,1.4-2
			c0.6-0.6,1.3-1,2-1.4c0.8-0.3,1.6-0.5,2.5-0.5c0.9,0,1.7,0.2,2.5,0.5c0.8,0.3,1.5,0.8,2,1.4c0.6,0.6,1,1.3,1.4,2
			c0.3,0.8,0.5,1.6,0.5,2.5c0,0.9-0.2,1.7-0.5,2.5c-0.3,0.8-0.8,1.5-1.4,2c-0.6,0.6-1.3,1-2,1.4C11-0.8,10.1-0.7,9.2-0.7z M5.7-7.1
			c0,0.2,0.1,0.4,0.2,0.5C6-6.4,6.2-6.3,6.4-6.3h2.1v2.1c0,0.2,0.1,0.4,0.2,0.5C8.8-3.5,9-3.5,9.2-3.5c0.2,0,0.4-0.1,0.5-0.2
			C9.9-3.8,10-4,10-4.2v-2.1h2.1c0.2,0,0.4-0.1,0.5-0.2c0.1-0.1,0.2-0.3,0.2-0.5c0-0.2-0.1-0.4-0.2-0.5c-0.1-0.1-0.3-0.2-0.5-0.2H10
			v-2.1c0-0.2-0.1-0.4-0.2-0.5c-0.1-0.1-0.3-0.2-0.5-0.2c-0.2,0-0.4,0.1-0.5,0.2c-0.1,0.1-0.2,0.3-0.2,0.5v2.1H6.4
			C6.2-7.8,6-7.7,5.9-7.6C5.7-7.5,5.7-7.3,5.7-7.1z"/>
	</g>
	<g transform="matrix(1 0 0 1 281.867 1933)">
		<path d="M11.7,2.9c1.4,0,2.6-0.3,3.8-0.8c1.2-0.5,2.3-1.2,3.2-2.2c0.9-0.9,1.6-2,2.2-3.2c0.5-1.2,0.8-2.5,0.8-3.8
			c0-1.4-0.3-2.6-0.8-3.8c-0.5-1.2-1.2-2.3-2.2-3.2c-0.9-0.9-2-1.6-3.2-2.2c-1.2-0.5-2.5-0.8-3.8-0.8s-2.6,0.3-3.8,0.8
			c-1.2,0.5-2.3,1.2-3.2,2.2c-0.9,0.9-1.6,2-2.2,3.2C2-9.7,1.7-8.4,1.7-7.1c0,1.4,0.3,2.6,0.8,3.8S3.8-0.9,4.7,0
			c0.9,0.9,2,1.6,3.2,2.2S10.3,2.9,11.7,2.9z M11.7,1.2c-1.2,0-2.2-0.2-3.2-0.6c-1-0.4-1.9-1-2.6-1.8C5.1-1.9,4.5-2.8,4.1-3.8
			S3.4-5.9,3.4-7.1c0-1.2,0.2-2.2,0.6-3.2s1-1.9,1.8-2.6c0.8-0.8,1.6-1.4,2.6-1.8c1-0.4,2.1-0.6,3.2-0.6s2.2,0.2,3.2,0.6
			c1,0.4,1.9,1,2.6,1.8c0.8,0.8,1.4,1.6,1.8,2.6c0.4,1,0.6,2.1,0.6,3.2c0,1.2-0.2,2.2-0.6,3.2c-0.4,1-1,1.9-1.8,2.6
			c-0.8,0.8-1.6,1.4-2.6,1.8S12.9,1.2,11.7,1.2z M7.2-7.1c0,0.2,0.1,0.4,0.2,0.6C7.6-6.3,7.8-6.2,8-6.2h2.9v2.9
			c0,0.2,0.1,0.4,0.2,0.6c0.1,0.2,0.3,0.2,0.6,0.2c0.2,0,0.4-0.1,0.6-0.2c0.2-0.2,0.2-0.4,0.2-0.6v-2.9h2.9c0.2,0,0.4-0.1,0.6-0.2
			s0.2-0.3,0.2-0.6c0-0.2-0.1-0.4-0.2-0.6c-0.2-0.2-0.4-0.2-0.6-0.2h-2.9v-2.9c0-0.3-0.1-0.5-0.2-0.6s-0.4-0.2-0.6-0.2
			c-0.2,0-0.4,0.1-0.6,0.2c-0.1,0.2-0.2,0.4-0.2,0.6v2.9H8c-0.3,0-0.5,0.1-0.6,0.2C7.3-7.5,7.2-7.3,7.2-7.1z"/>
	</g>
	<g transform="matrix(1 0 0 1 305.646 1933)">
		<path d="M15,5.7c1.4,0,2.7-0.2,4-0.6c1.3-0.4,2.4-1,3.5-1.8c1.1-0.8,2-1.7,2.8-2.8C26-0.6,26.6-1.8,27-3.1c0.4-1.3,0.6-2.6,0.6-4
			c0-1.4-0.2-2.7-0.6-4c-0.4-1.3-1-2.4-1.8-3.5c-0.8-1.1-1.7-2-2.8-2.8c-1.1-0.8-2.2-1.4-3.5-1.8c-1.3-0.4-2.6-0.6-4-0.6
			c-1.4,0-2.7,0.2-4,0.6c-1.3,0.4-2.4,1-3.5,1.8c-1.1,0.8-2,1.7-2.8,2.8c-0.8,1.1-1.4,2.2-1.8,3.5c-0.4,1.3-0.6,2.6-0.6,4
			c0,1.4,0.2,2.7,0.6,4c0.4,1.3,1,2.4,1.8,3.5c0.8,1.1,1.7,2,2.8,2.8C8.6,4,9.7,4.6,11,5C12.2,5.4,13.6,5.7,15,5.7z M15,3.8
			c-1.2,0-2.4-0.2-3.4-0.6c-1.1-0.4-2.1-0.9-3-1.5C7.6,1.1,6.8,0.3,6.2-0.6C5.5-1.5,5-2.5,4.6-3.6C4.3-4.7,4.1-5.8,4.1-7.1
			c0-1.2,0.2-2.4,0.5-3.5c0.4-1.1,0.9-2.1,1.5-3c0.7-0.9,1.4-1.7,2.4-2.4c0.9-0.7,1.9-1.2,3-1.5c1.1-0.4,2.2-0.5,3.4-0.5
			c1.2,0,2.4,0.2,3.5,0.5c1.1,0.4,2.1,0.9,3,1.5c0.9,0.7,1.7,1.5,2.4,2.4c0.7,0.9,1.2,1.9,1.5,3c0.4,1.1,0.6,2.2,0.6,3.5
			c0,1.2-0.2,2.4-0.5,3.4c-0.4,1.1-0.9,2.1-1.5,3c-0.7,0.9-1.5,1.7-2.4,2.4c-0.9,0.7-1.9,1.2-3,1.5C17.3,3.7,16.2,3.8,15,3.8z
			 M9.2-7.1c0,0.3,0.1,0.5,0.3,0.6c0.2,0.2,0.4,0.2,0.7,0.2h3.9v4c0,0.3,0.1,0.5,0.2,0.7c0.2,0.2,0.4,0.3,0.6,0.3
			c0.3,0,0.5-0.1,0.7-0.3c0.2-0.2,0.3-0.4,0.3-0.7v-4h4c0.3,0,0.5-0.1,0.7-0.2c0.2-0.2,0.3-0.4,0.3-0.6c0-0.3-0.1-0.5-0.3-0.7
			C20.3-7.9,20.1-8,19.8-8h-4v-3.9c0-0.3-0.1-0.5-0.3-0.7c-0.2-0.2-0.4-0.3-0.7-0.3c-0.3,0-0.5,0.1-0.6,0.3
			c-0.2,0.2-0.2,0.4-0.2,0.7V-8h-3.9C9.8-8,9.6-7.9,9.5-7.7C9.3-7.5,9.2-7.3,9.2-7.1z"/>
	</g>
	<text transform="matrix(1 0 0 1 263 1953)" class="st2 st3">Design Variations</text>
	<text transform="matrix(1 0 0 1 263 1971)" class="st4 st3">Symbols are supported in up to nine weights and three scales.</text>
	<text transform="matrix(1 0 0 1 263 1989)" class="st4 st3">For optimal layout with text and other symbols, vertically align</text>
	<text transform="matrix(1 0 0 1 263 2007)" class="st4 st3">symbols with the adjacent text.</text>
	<line class="st5" x1="776" y1="1919" x2="776" y2="1933"/>
	<g transform="matrix(1 0 0 1 776 1933)">
		<path d="M3.3,0.2c0.3,0,0.5-0.1,0.6-0.2c0.1-0.1,0.3-0.3,0.4-0.6L5.5-4h5.8l1.3,3.4c0.1,0.3,0.2,0.5,0.4,0.6
			c0.1,0.1,0.3,0.2,0.6,0.2c0.3,0,0.5-0.1,0.6-0.2c0.2-0.1,0.2-0.3,0.2-0.6c0-0.1,0-0.3-0.1-0.5L9.7-13.4c-0.1-0.3-0.3-0.5-0.5-0.7
			c-0.2-0.1-0.5-0.2-0.8-0.2c-0.6,0-1,0.3-1.2,0.9L2.6-1.2C2.5-1,2.5-0.8,2.5-0.6c0,0.2,0.1,0.4,0.2,0.6S3.1,0.2,3.3,0.2z M6-5.5
			l2.4-6.6h0l2.4,6.6H6z"/>
	</g>
	<line class="st5" x1="793.2" y1="1919" x2="793.2" y2="1933"/>
	<text transform="matrix(1 0 0 1 776 1953)" class="st2 st3">Margins</text>
	<text transform="matrix(1 0 0 1 776 1971)" class="st4 st3">Leading and trailing margins on the left and right side of each symbol</text>
	<text transform="matrix(1 0 0 1 776 1989)" class="st4 st3">can be adjusted by modifying the x-location of the margin guidelines.</text>
	<text transform="matrix(1 0 0 1 776 2007)" class="st4 st3">Modifications are automatically applied proportionally to all</text>
	<text transform="matrix(1 0 0 1 776 2025)" class="st4 st3">scales and weights.</text>
	<g transform="matrix(1 0 0 1 1289 1933)">
		<path d="M2.8,1.9l1.7,1.7C5,4,5.4,4.2,5.9,4.2c0.5,0,0.9-0.3,1.4-0.8L18-8.4l-1-1L6.4,2.3C6.2,2.5,6.1,2.6,5.9,2.6
			c-0.2,0-0.4-0.1-0.6-0.3L4.1,1.1C3.9,0.9,3.8,0.7,3.8,0.5c0-0.2,0.1-0.4,0.3-0.5l11.5-10.8l-1-1L3-0.9C2.6-0.4,2.3,0,2.3,0.5
			C2.2,1,2.4,1.4,2.8,1.9z M9.3-16.3c-0.2,0.2-0.3,0.4-0.4,0.7c0,0.3,0,0.5,0.1,0.7c0.1,0.2,0.3,0.3,0.5,0.4c0.2,0.1,0.5,0.1,0.8,0
			c0.7-0.2,1.5-0.2,2.2-0.2c0.7,0,1.5,0.3,2.2,0.7l-0.6,1.5c-0.2,0.4-0.2,0.8-0.1,1.1c0.1,0.3,0.2,0.6,0.5,0.9l2.3,2.3
			c0.2,0.2,0.5,0.4,0.7,0.4c0.2,0,0.5,0,0.8,0L19.4-8l0.7,0.7l0,0.6c0,0.2,0,0.5,0.1,0.7c0.1,0.2,0.2,0.4,0.5,0.7l0.8,0.7
			c0.2,0.2,0.5,0.4,0.8,0.4c0.3,0,0.5-0.1,0.8-0.3l2.9-2.9c0.2-0.2,0.3-0.5,0.3-0.8c0-0.3-0.1-0.5-0.4-0.8L25-9.9
			c-0.2-0.2-0.5-0.4-0.7-0.5c-0.2-0.1-0.4-0.1-0.7-0.1l-0.6,0l-0.6-0.6l0.2-1.1c0.1-0.3,0.1-0.5,0-0.8s-0.3-0.5-0.6-0.8L19.9-16
			c-0.8-0.8-1.7-1.4-2.7-1.9c-0.9-0.4-1.9-0.6-2.8-0.6c-1,0-1.9,0.2-2.8,0.5C10.8-17.6,10-17.1,9.3-16.3z M10.8-16
			c0.6-0.4,1.3-0.8,1.9-0.9c0.7-0.2,1.4-0.2,2.1-0.2c0.7,0.1,1.4,0.3,2.1,0.6c0.7,0.3,1.3,0.7,1.8,1.3l2.4,2.4
			c0.1,0.1,0.2,0.2,0.2,0.3c0,0.1,0,0.3,0,0.4L21-10.5l1.5,1.5l1-0.1c0.1,0,0.2,0,0.3,0c0.1,0,0.1,0.1,0.2,0.2l0.6,0.6l-2.4,2.4
			l-0.6-0.6c-0.1-0.1-0.2-0.2-0.2-0.2c0-0.1,0-0.2,0-0.3l0.1-1L20-9.5l-1.5,0.3c-0.2,0-0.3,0-0.4,0c-0.1,0-0.2-0.1-0.3-0.2l-2-2
			c-0.1-0.1-0.2-0.2-0.2-0.3c0-0.1,0-0.3,0.1-0.4l0.9-2.1c-0.8-0.7-1.7-1.2-2.6-1.5c-1-0.3-2-0.3-3,0c-0.1,0-0.1,0-0.2,0
			C10.7-15.9,10.7-15.9,10.8-16z"/>
	</g>
	<text transform="matrix(1 0 0 1 1289 1953)" class="st2 st3">Exporting</text>
	<text transform="matrix(1 0 0 1 1289 1971)" class="st4 st3">Symbols should be outlined when exporting to ensure the</text>
	<text transform="matrix(1 0 0 1 1289 1989)" class="st4 st3">design is preserved when submitting to Xcode.</text>
	<text id="template-version" transform="matrix(1 0 0 1 2952.4141 1933)" class="st4 st3">Template v.3.0</text>
	<text transform="matrix(1 0 0 1 2865.4575 1951)" class="st4 st3">Requires Xcode 13 or greater</text>
	<text id="descriptive-name" transform="matrix(1 0 0 1 2895.0884 1969)" class="st4 st3">Generated from airplane</text>
	<text transform="matrix(1 0 0 1 2912.4111 1987)" class="st4 st3">Typeset at 100 points</text>
	<text transform="matrix(1 0 0 1 263 726)" class="st4 st3">Small</text>
	<text transform="matrix(1 0 0 1 263 1156)" class="st4 st3">Medium</text>
	<text transform="matrix(1 0 0 1 263 1586)" class="st4 st3">Large</text>
</g>
<g id="Guides">
	<g id="H-reference" transform="matrix(1 0 0 1 339 696)">
		<path class="st6" d="M1,0h2.6l25.7-67.1H30v-3.3h-1.9L1,0z M11.7-24.5H47l-0.8-2.2H12.4L11.7-24.5z M55.1,0h2.6L30.6-70.5h-1.2
			v3.3L55.1,0z"/>
	</g>
	<line id="Baseline-S" class="st7" x1="263" y1="696" x2="3036" y2="696"/>
	<line id="Capline-S" class="st7" x1="263" y1="625.5" x2="3036" y2="625.5"/>
	<g id="H-reference_00000182513520244170385480000016612971632645939636_" transform="matrix(1 0 0 1 339 1126)">
		<path class="st6" d="M1,0h2.6l25.7-67.1H30v-3.3h-1.9L1,0z M11.7-24.5H47l-0.8-2.2H12.4L11.7-24.5z M55.1,0h2.6L30.6-70.5h-1.2
			v3.3L55.1,0z"/>
	</g>
	<line id="Baseline-M" class="st7" x1="263" y1="1126" x2="3036" y2="1126"/>
	<line id="Capline-M" class="st7" x1="263" y1="1055.5" x2="3036" y2="1055.5"/>
	<g id="H-reference_00000149366925300075383730000009643584137160337039_" transform="matrix(1 0 0 1 339 1556)">
		<path class="st6" d="M1,0h2.6l25.7-67.1H30v-3.3h-1.9L1,0z M11.7-24.5H47l-0.8-2.2H12.4L11.7-24.5z M55.1,0h2.6L30.6-70.5h-1.2
			v3.3L55.1,0z"/>
	</g>
	<line id="Baseline-L" class="st7" x1="263" y1="1556" x2="3036" y2="1556"/>
	<line id="Capline-L" class="st7" x1="263" y1="1485.5" x2="3036" y2="1485.5"/>
	<line id="left-margin-Regular-M" class="st5" x1="1388.2" y1="1030.8" x2="1388.2" y2="1150.1"/>
	<line id="right-margin-Regular-M" class="st5" x1="1511.5" y1="1030.8" x2="1511.5" y2="1150.1"/>
</g>
<g id="Black-L" transform="matrix(1 0 0 1 2844.85 1556)">
	<path d="M16.1-35.3c0-2.6,1.1-5,3.2-7.3c2.1-2.3,5-4.2,8.7-5.7s7.8-2.2,12.4-2.2h27.5c1.8,0,3.2-0.2,4.1-0.7
		c0.9-0.4,1.9-1.2,3.1-2.4l44.4-46.5c1.5-1.5,3.1-2.3,5-2.3h10.5c0.8,0,1.5,0.3,1.9,1c0.4,0.7,0.4,1.4,0,2.3l-23.1,48.3l33.3,3.6
		l12-19.8c0.5-0.8,1.1-1.4,1.8-1.8c0.7-0.4,1.6-0.6,2.6-0.6h3.1c1,0,1.8,0.3,2.4,0.9c0.6,0.6,0.9,1.4,0.9,2.3v61.3
		c0,0.9-0.3,1.7-0.9,2.3s-1.4,0.9-2.4,0.9h-3.1c-1,0-1.8-0.2-2.6-0.6c-0.7-0.4-1.3-1-1.8-1.7l-12-19.8l-33.3,3.6l23.1,48.3
		c0.4,0.9,0.4,1.6,0,2.3c-0.4,0.7-1,1-1.9,1h-10.5c-1.9,0-3.6-0.7-5-2.2L75-17c-1.1-1.2-2.2-2-3.1-2.4s-2.3-0.7-4.1-0.7H40.3
		c-4.6,0-8.7-0.7-12.4-2.2c-3.7-1.5-6.6-3.4-8.7-5.7C17.2-30.3,16.1-32.7,16.1-35.3z"/>
</g>
<g id="Heavy-L" transform="matrix(1 0 0 1 2550.64 1556)">
	<path d="M16.1-35.3c0-2.5,1.1-4.9,3.2-7.1c2.1-2.2,4.9-4,8.5-5.4c3.6-1.4,7.6-2.1,12-2.1h26.9c1.8,0,3.1-0.2,4-0.6
		c0.9-0.4,1.9-1.2,3-2.4l43.6-46.1c1.4-1.5,3.1-2.3,4.9-2.3h9.7c0.8,0,1.5,0.3,1.9,1c0.4,0.7,0.4,1.4,0,2.3l-22.7,48l33,3.6l11.8-20
		c0.5-0.8,1.1-1.4,1.8-1.7c0.7-0.4,1.6-0.6,2.5-0.6h3c0.9,0,1.7,0.3,2.3,0.9c0.6,0.6,0.9,1.3,0.9,2.2v60.4c0,0.9-0.3,1.7-0.9,2.2
		c-0.6,0.6-1.3,0.9-2.3,0.9h-3c-1,0-1.8-0.2-2.5-0.6c-0.7-0.4-1.3-0.9-1.8-1.7l-11.8-20l-33,3.6l22.7,48c0.4,0.9,0.4,1.6,0,2.3
		c-0.4,0.6-1,1-1.9,1h-9.7c-1.9,0-3.5-0.7-4.9-2.2L73.7-17.7c-1.1-1.2-2.1-2-3-2.4c-0.9-0.4-2.2-0.6-4-0.6H39.7
		c-4.4,0-8.4-0.7-12-2.1c-3.6-1.4-6.4-3.2-8.5-5.4C17.2-30.4,16.1-32.8,16.1-35.3z"/>
</g>
<g id="Bold-L" transform="matrix(1 0 0 1 2256.73 1556)">
	<path d="M16.1-35.3c0-2.5,1.1-4.8,3.1-6.9c2-2.1,4.8-3.8,8.3-5C30.9-48.4,34.7-49,39-49h26.3c1.8,0,3.1-0.2,4-0.6
		c0.9-0.4,1.9-1.2,3-2.3L115-97.8c1.4-1.5,3-2.2,4.8-2.2h8.8c0.8,0,1.4,0.3,1.8,1c0.4,0.6,0.4,1.4,0,2.3l-22.2,47.7l32.6,3.6
		l11.5-20.1c0.5-0.8,1-1.4,1.7-1.7c0.7-0.4,1.5-0.5,2.5-0.5h2.9c0.9,0,1.6,0.3,2.2,0.8c0.5,0.5,0.8,1.2,0.8,2.1v59.4
		c0,0.9-0.3,1.6-0.8,2.1c-0.5,0.5-1.3,0.8-2.2,0.8h-2.9c-1,0-1.8-0.2-2.5-0.5c-0.7-0.4-1.3-0.9-1.7-1.7L140.9-25l-32.6,3.6
		l22.2,47.7c0.4,0.8,0.4,1.6,0,2.2c-0.4,0.6-1,1-1.8,1h-8.8c-1.8,0-3.4-0.7-4.8-2.2L72.2-18.5c-1.1-1.2-2.1-1.9-3-2.3
		c-0.9-0.4-2.2-0.6-4-0.6H39c-4.2,0-8.1-0.6-11.6-1.9c-3.5-1.3-6.2-3-8.3-5C17.1-30.5,16.1-32.8,16.1-35.3z"/>
</g>
<g id="Semibold-L" transform="matrix(1 0 0 1 1961.94 1556)">
	<path d="M16.1-35.3c0-2.5,1.1-4.7,3.1-6.7c2-2,4.7-3.6,8.1-4.8s7.2-1.8,11.3-1.8h25.9c1.8,0,3.1-0.2,4-0.6c0.9-0.4,1.9-1.2,2.9-2.3
		L113.5-97c1.4-1.5,3-2.2,4.8-2.2h8.2c0.8,0,1.4,0.3,1.8,1c0.4,0.6,0.4,1.4,0,2.2l-21.8,47.4l32.3,3.5l11.4-20.2
		c0.5-0.8,1-1.3,1.7-1.7c0.7-0.4,1.5-0.5,2.5-0.5h2.9c0.9,0,1.6,0.3,2.1,0.8c0.5,0.5,0.8,1.2,0.8,2v58.8c0,0.9-0.3,1.5-0.8,2
		c-0.5,0.5-1.2,0.8-2.1,0.8h-2.9c-1,0-1.8-0.2-2.5-0.5c-0.7-0.4-1.2-0.9-1.7-1.7l-11.4-20.2l-32.3,3.5l21.8,47.4
		c0.4,0.8,0.4,1.6,0,2.2c-0.4,0.6-1,0.9-1.8,0.9h-8.2c-1.8,0-3.4-0.7-4.8-2.2L71.3-19.1c-1.1-1.1-2.1-1.9-2.9-2.3
		c-0.9-0.4-2.2-0.6-4-0.6H38.5c-4.1,0-7.9-0.6-11.3-1.8c-3.4-1.2-6.1-2.8-8.1-4.8C17.1-30.6,16.1-32.8,16.1-35.3z"/>
</g>
<g id="Medium-L" transform="matrix(1 0 0 1 1666.69 1556)">
	<path d="M16.1-35.3c0-2.4,1-4.6,3-6.6c2-1.9,4.6-3.5,8-4.6c3.3-1.1,7-1.7,11.1-1.7h25.5c1.7,0,3.1-0.2,3.9-0.6
		c0.9-0.4,1.9-1.2,2.9-2.3l41.8-45.3c1.4-1.5,2.9-2.2,4.7-2.2h7.8c0.8,0,1.4,0.3,1.8,0.9c0.4,0.6,0.4,1.4,0,2.2L105-48.2l32.1,3.5
		l11.2-20.3c0.5-0.8,1-1.3,1.7-1.7c0.7-0.3,1.5-0.5,2.5-0.5h2.8c0.8,0,1.5,0.2,2,0.7c0.5,0.5,0.7,1.1,0.7,2v58.3
		c0,0.8-0.2,1.5-0.7,2c-0.5,0.5-1.2,0.7-2,0.7h-2.8c-1,0-1.8-0.2-2.5-0.5c-0.7-0.3-1.2-0.9-1.7-1.7l-11.2-20.3L105-22.3l21.5,47.2
		c0.4,0.8,0.4,1.6,0,2.2c-0.4,0.6-1,0.9-1.8,0.9H117c-1.8,0-3.4-0.7-4.7-2.2L70.5-19.5c-1.1-1.1-2-1.9-2.9-2.3
		c-0.9-0.4-2.2-0.6-3.9-0.6H38.1c-4,0-7.7-0.6-11.1-1.7c-3.3-1.1-6-2.7-8-4.6C17.1-30.7,16.1-32.8,16.1-35.3z"/>
</g>
<g id="Regular-L" transform="matrix(1 0 0 1 1371.89 1556)">
	<path d="M16.1-35.3c0-2.4,1-4.5,3-6.4c2-1.9,4.6-3.3,7.8-4.4c3.3-1.1,6.9-1.6,10.8-1.6h25.1c1.7,0,3-0.2,3.9-0.6
		c0.9-0.4,1.8-1.2,2.9-2.3l41.2-45c1.3-1.5,2.9-2.2,4.6-2.2h7.2c0.8,0,1.4,0.3,1.8,0.9c0.4,0.6,0.3,1.4,0,2.2l-21.2,47l31.8,3.5
		L146-64.5c0.5-0.7,1-1.3,1.6-1.6c0.6-0.3,1.5-0.5,2.5-0.5h2.7c0.8,0,1.5,0.2,1.9,0.7c0.5,0.5,0.7,1.1,0.7,1.9v57.6
		c0,0.8-0.2,1.4-0.7,1.9c-0.5,0.5-1.1,0.7-1.9,0.7h-2.7c-1,0-1.8-0.2-2.5-0.5C147-4.7,146.5-5.3,146-6l-11.1-20.4l-31.8,3.5l21.2,47
		c0.4,0.8,0.4,1.5,0,2.1c-0.4,0.6-0.9,0.9-1.8,0.9h-7.2c-1.8,0-3.3-0.7-4.6-2.2L69.5-20c-1-1.1-2-1.9-2.9-2.3
		c-0.9-0.4-2.2-0.6-3.9-0.6H37.6c-3.9,0-7.5-0.5-10.8-1.6C23.6-25.5,21-27,19-28.9C17.1-30.8,16.1-32.9,16.1-35.3z"/>
</g>
<g id="Light-L" transform="matrix(1 0 0 1 1077.33 1556)">
	<path d="M16.1-35.3c0-2.3,1-4.4,2.9-6.2c1.9-1.8,4.4-3.2,7.6-4.2c3.2-1,6.6-1.6,10.4-1.6h24.7c1.7,0,2.9-0.2,3.8-0.6
		c0.8-0.4,1.8-1.1,2.8-2.2l39.7-43.4c1.3-1.4,2.8-2.1,4.5-2.1h6.9c0.8,0,1.3,0.3,1.7,0.9c0.3,0.6,0.3,1.3-0.1,2.1l-20.4,45.3
		l31.6,3.3l10.7-19.6c0.4-0.7,0.9-1.2,1.5-1.6c0.6-0.3,1.4-0.5,2.3-0.5h2.7c0.8,0,1.4,0.2,1.8,0.6s0.7,1,0.7,1.8v55.6
		c0,0.8-0.2,1.4-0.7,1.8c-0.4,0.4-1.1,0.6-1.8,0.6h-2.7c-1,0-1.7-0.2-2.3-0.5c-0.6-0.3-1.1-0.8-1.5-1.5l-10.7-19.6l-31.6,3.3
		L120.8,22c0.4,0.8,0.4,1.5,0.1,2.1c-0.3,0.6-0.9,0.9-1.7,0.9h-6.9c-1.7,0-3.2-0.7-4.5-2.1L68.1-20.5c-1-1.1-1.9-1.8-2.8-2.2
		c-0.8-0.4-2.1-0.5-3.8-0.5H36.9c-3.8,0-7.2-0.5-10.4-1.6c-3.2-1-5.7-2.5-7.6-4.3C17-30.9,16.1-33,16.1-35.3z"/>
</g>
<g id="Thin-L" transform="matrix(1 0 0 1 783.46 1556)">
	<path d="M16.1-35.3c0-2.2,0.9-4.2,2.7-5.9c1.8-1.7,4.2-3.1,7.2-4c3-1,6.3-1.5,9.9-1.5H60c1.6,0,2.7-0.2,3.6-0.5
		c0.8-0.3,1.7-1.1,2.7-2.1L104-90.5c1.3-1.3,2.7-2,4.2-2h6.6c0.7,0,1.3,0.3,1.6,0.8c0.3,0.6,0.3,1.2-0.1,2l-19.4,43l31.4,3.1
		l10.2-18.6c0.4-0.7,0.9-1.1,1.4-1.4c0.5-0.3,1.2-0.5,2.1-0.5h2.7c0.7,0,1.3,0.2,1.7,0.6c0.4,0.4,0.6,1,0.6,1.7v53
		c0,0.8-0.2,1.3-0.6,1.7c-0.4,0.4-1,0.6-1.7,0.6h-2.7c-0.9,0-1.6-0.1-2.1-0.4c-0.5-0.3-1-0.8-1.4-1.4L128.3-27l-31.4,3.1l19.4,43
		c0.4,0.8,0.4,1.4,0.1,2c-0.3,0.6-0.9,0.8-1.6,0.8h-6.6c-1.5,0-3-0.7-4.2-2L66.3-21.3c-1-1.1-1.9-1.8-2.7-2.1
		c-0.8-0.3-2-0.5-3.6-0.5H35.9c-3.6,0-6.9-0.5-9.9-1.5c-3-1-5.4-2.3-7.2-4.1C17-31.1,16.1-33.1,16.1-35.3z"/>
</g>
<g id="Ultralight-L" transform="matrix(1 0 0 1 488.205 1556)">
	<path d="M16.1-35.3c0-2.2,0.9-4.1,2.6-5.8c1.8-1.7,4.1-3,7-3.9c2.9-1,6.1-1.4,9.7-1.4h23.9c1.5,0,2.7-0.2,3.5-0.5
		c0.8-0.3,1.7-1,2.6-2.1L102-89c1.2-1.3,2.6-2,4.1-2h6.5c0.7,0,1.2,0.3,1.6,0.8c0.3,0.5,0.3,1.2-0.1,1.9L95.1-46.4l31.2,3l10-18.1
		c0.4-0.6,0.8-1.1,1.3-1.4c0.5-0.3,1.2-0.4,2-0.4h2.7c0.7,0,1.3,0.2,1.7,0.5c0.4,0.4,0.6,0.9,0.6,1.7v51.6c0,0.8-0.2,1.3-0.6,1.7
		c-0.4,0.3-0.9,0.5-1.7,0.5h-2.7c-0.9,0-1.5-0.1-2-0.4c-0.5-0.3-0.9-0.7-1.3-1.4l-10-18.1l-31.2,3L114,17.7c0.4,0.8,0.4,1.4,0.1,1.9
		c-0.3,0.5-0.8,0.8-1.6,0.8h-6.5c-1.5,0-2.9-0.7-4.1-2L65.3-21.6c-1-1-1.8-1.7-2.6-2.1c-0.8-0.3-1.9-0.5-3.5-0.5H35.4
		c-3.5,0-6.7-0.5-9.7-1.4c-2.9-1-5.3-2.3-7-3.9C16.9-31.2,16.1-33.1,16.1-35.3z"/>
</g>
<g id="Black-M" transform="matrix(1 0 0 1 2863.36 1126)">
	<path d="M12.5-35.3c0-2,0.8-3.9,2.5-5.8c1.7-1.9,3.9-3.4,6.8-4.6c2.9-1.2,6.1-1.8,9.8-1.8h21.7c1.4,0,2.4-0.2,3.1-0.5
		c0.7-0.4,1.5-1,2.3-1.9l34.5-35.7c1.2-1.2,2.5-1.8,3.9-1.8h8.7c0.7,0,1.1,0.3,1.5,0.8c0.3,0.5,0.3,1.1,0,1.8l-18,37.2l26,2.8
		l9.3-15c0.7-1.2,1.8-1.8,3.4-1.8h2.5c0.7,0,1.4,0.2,1.9,0.7c0.5,0.5,0.8,1.1,0.8,1.9v47.6c0,0.7-0.3,1.4-0.8,1.9
		c-0.5,0.5-1.1,0.7-1.9,0.7H128c-1.5,0-2.7-0.6-3.4-1.8l-9.3-15l-26,2.7l18,37.2c0.4,0.7,0.4,1.3,0,1.8c-0.3,0.5-0.8,0.8-1.5,0.8
		h-8.7c-1.4,0-2.7-0.6-3.9-1.8L58.7-20.8c-0.9-0.9-1.7-1.5-2.3-1.8c-0.7-0.3-1.7-0.5-3.1-0.5H31.5c-3.6,0-6.9-0.6-9.8-1.8
		c-2.9-1.2-5.2-2.7-6.8-4.6C13.3-31.3,12.5-33.3,12.5-35.3z"/>
</g>
<g id="Heavy-M" transform="matrix(1 0 0 1 2568.63 1126)">
	<path d="M12.5-35.3c0-2,0.8-3.8,2.5-5.6c1.6-1.8,3.9-3.2,6.7-4.3c2.8-1.1,6-1.7,9.5-1.7h21.2c1.4,0,2.4-0.2,3.1-0.5
		c0.7-0.3,1.5-1,2.3-1.8L91.9-85c1.1-1.2,2.4-1.8,3.9-1.8h8c0.6,0,1.1,0.3,1.4,0.8c0.3,0.5,0.3,1.1,0,1.8L87.4-47l25.7,2.8l9.2-15.3
		c0.7-1.2,1.8-1.8,3.4-1.8h2.4c0.7,0,1.3,0.2,1.8,0.7s0.7,1.1,0.7,1.8v47.1c0,0.7-0.2,1.3-0.7,1.8c-0.5,0.5-1.1,0.7-1.8,0.7h-2.4
		c-1.5,0-2.7-0.6-3.4-1.8l-9.2-15.3l-25.7,2.8l17.8,37.2c0.4,0.7,0.4,1.3,0,1.8c-0.3,0.5-0.8,0.8-1.4,0.8h-8c-1.4,0-2.7-0.6-3.9-1.8
		L57.7-21.3c-0.9-0.9-1.6-1.5-2.3-1.8c-0.7-0.3-1.7-0.5-3.1-0.5H31.1c-3.5,0-6.7-0.6-9.5-1.7c-2.8-1.1-5-2.6-6.7-4.3
		C13.3-31.4,12.5-33.3,12.5-35.3z"/>
</g>
<g id="Bold-M" transform="matrix(1 0 0 1 2274.15 1126)">
	<path d="M12.5-35.3c0-1.9,0.8-3.7,2.4-5.4c1.6-1.7,3.8-3,6.5-4.1c2.7-1,5.8-1.5,9.2-1.5h20.7c1.4,0,2.4-0.2,3.1-0.5
		c0.7-0.3,1.5-0.9,2.3-1.8l33.7-35.8c1.1-1.2,2.4-1.8,3.8-1.8h7.2c0.6,0,1.1,0.2,1.4,0.7c0.3,0.5,0.3,1.1,0,1.8L85.3-46.4l25.4,2.8
		l9.1-15.6c0.7-1.2,1.8-1.8,3.3-1.8h2.3c0.7,0,1.2,0.2,1.7,0.6c0.4,0.4,0.7,1,0.7,1.7v46.7c0,0.7-0.2,1.2-0.7,1.7
		c-0.4,0.4-1,0.6-1.7,0.6h-2.3c-1.5,0-2.7-0.6-3.3-1.8L110.7-27l-25.4,2.8l17.5,37.3c0.3,0.7,0.4,1.3,0,1.8
		c-0.3,0.5-0.8,0.8-1.4,0.8h-7.2c-1.4,0-2.7-0.6-3.8-1.8L56.7-21.9c-0.8-0.9-1.6-1.5-2.3-1.8c-0.7-0.3-1.7-0.5-3.1-0.5H30.6
		c-3.4,0-6.4-0.5-9.2-1.6c-2.7-1-4.9-2.4-6.5-4.1C13.3-31.5,12.5-33.3,12.5-35.3z"/>
</g>
<g id="Semibold-M" transform="matrix(1 0 0 1 1978.97 1126)">
	<path d="M12.5-35.3c0-1.9,0.8-3.7,2.4-5.3c1.6-1.6,3.7-2.9,6.4-3.9c2.7-1,5.7-1.4,8.9-1.4h20.3c1.4,0,2.4-0.2,3.1-0.5
		c0.7-0.3,1.5-0.9,2.3-1.8l33.4-35.8c1.1-1.2,2.4-1.8,3.8-1.8h6.6c0.6,0,1.1,0.2,1.4,0.7c0.3,0.5,0.3,1.1,0,1.8L83.9-45.9l25.2,2.8
		l9-15.8c0.7-1.2,1.8-1.8,3.3-1.8h2.2c0.7,0,1.2,0.2,1.6,0.6s0.6,1,0.6,1.6v46.4c0,0.7-0.2,1.2-0.6,1.6s-1,0.6-1.6,0.6h-2.2
		c-1.6,0-2.7-0.6-3.3-1.7l-9-15.8l-25.2,2.8l17.3,37.3c0.3,0.7,0.3,1.3,0,1.8c-0.3,0.5-0.8,0.7-1.4,0.7h-6.6c-1.4,0-2.7-0.6-3.8-1.8
		L55.9-22.4c-0.8-0.9-1.6-1.5-2.3-1.8c-0.7-0.3-1.7-0.5-3.1-0.5H30.2c-3.3,0-6.2-0.5-8.9-1.5c-2.7-1-4.8-2.3-6.4-3.9
		C13.2-31.6,12.5-33.3,12.5-35.3z"/>
</g>
<g id="Medium-M" transform="matrix(1 0 0 1 1683.42 1126)">
	<path d="M12.5-35.3c0-1.9,0.8-3.6,2.4-5.2c1.6-1.6,3.7-2.8,6.4-3.7c2.7-0.9,5.6-1.4,8.8-1.4h20c1.4,0,2.4-0.2,3.1-0.5
		c0.7-0.3,1.5-0.9,2.3-1.8l33.1-35.8c1.1-1.2,2.4-1.8,3.8-1.8h6.2c0.6,0,1.1,0.2,1.4,0.7c0.3,0.5,0.3,1.1,0,1.8L82.8-45.6l25,2.8
		l8.9-16c0.7-1.2,1.8-1.8,3.3-1.8h2.2c0.6,0,1.2,0.2,1.6,0.6s0.6,0.9,0.6,1.6v46.1c0,0.6-0.2,1.2-0.6,1.6c-0.4,0.4-0.9,0.6-1.6,0.6
		h-2.2c-1.6,0-2.7-0.6-3.3-1.7l-8.9-16l-25,2.8l17.1,37.3c0.3,0.7,0.3,1.3,0,1.8c-0.3,0.5-0.8,0.7-1.4,0.7h-6.2
		c-1.4,0-2.7-0.6-3.8-1.8L55.4-22.7c-0.8-0.9-1.6-1.5-2.3-1.8C52.4-24.8,51.4-25,50-25h-20c-3.2,0-6.1-0.5-8.8-1.4
		c-2.7-0.9-4.8-2.2-6.4-3.7C13.2-31.6,12.5-33.3,12.5-35.3z"/>
</g>
<g id="Regular-M" transform="matrix(1 0 0 1 1388.22 1126)">
	<path d="M12.5-35.3c0-1.9,0.8-3.6,2.3-5.1s3.6-2.7,6.2-3.5c2.6-0.9,5.5-1.3,8.5-1.3h19.7c1.4,0,2.4-0.2,3.1-0.5
		c0.7-0.3,1.5-0.9,2.3-1.8l32.8-35.8c1.1-1.2,2.3-1.8,3.8-1.8h5.7c0.6,0,1.1,0.2,1.4,0.7c0.3,0.5,0.3,1.1,0,1.8L81.3-45.1l24.8,2.8
		l8.8-16.2c0.7-1.2,1.8-1.8,3.3-1.8h2.1c0.6,0,1.1,0.2,1.5,0.6c0.4,0.4,0.6,0.9,0.6,1.5v45.8c0,0.6-0.2,1.1-0.6,1.5
		c-0.4,0.4-0.9,0.6-1.5,0.6h-2.1c-1.6,0-2.7-0.6-3.3-1.7l-8.8-16.2l-24.8,2.8L98.2,12c0.3,0.7,0.3,1.3,0,1.8
		c-0.3,0.5-0.8,0.7-1.4,0.7h-5.7c-1.4,0-2.7-0.6-3.8-1.8L54.6-23.1c-0.8-0.9-1.6-1.5-2.3-1.8c-0.7-0.3-1.7-0.4-3.1-0.4H29.6
		c-3.1,0-5.9-0.4-8.5-1.3c-2.6-0.9-4.7-2-6.2-3.5C13.2-31.7,12.5-33.4,12.5-35.3z"/>
</g>
<g id="Light-M" transform="matrix(1 0 0 1 1093.43 1126)">
	<path d="M12.5-35.3c0-1.8,0.8-3.4,2.3-4.9s3.5-2.6,6-3.4c2.5-0.8,5.2-1.2,8.2-1.2h19.3c1.3,0,2.3-0.1,3-0.4s1.4-0.9,2.2-1.8
		l31.5-34.3c1-1.1,2.2-1.7,3.6-1.7h5.5c0.6,0,1,0.2,1.3,0.7c0.3,0.5,0.3,1,0,1.7L79-44.7l24.6,2.7l8.5-15.5c0.6-1.1,1.7-1.7,3.1-1.7
		h2.1c0.6,0,1.1,0.2,1.4,0.5c0.4,0.3,0.5,0.8,0.5,1.5v44c0,0.6-0.2,1.1-0.5,1.4c-0.4,0.3-0.8,0.5-1.4,0.5h-2.1
		c-1.4,0-2.5-0.5-3.1-1.6l-8.5-15.5L79-25.8L95.2,10c0.3,0.7,0.3,1.2,0,1.7c-0.3,0.5-0.7,0.7-1.3,0.7h-5.5c-1.4,0-2.5-0.6-3.6-1.7
		L53.4-23.6c-0.8-0.9-1.5-1.5-2.2-1.7s-1.7-0.4-3-0.4H28.9c-3,0-5.7-0.4-8.2-1.2s-4.5-1.9-6-3.4C13.2-31.8,12.5-33.4,12.5-35.3z"/>
</g>
<g id="Thin-M" transform="matrix(1 0 0 1 799.266 1126)">
	<path d="M12.5-35.3c0-1.7,0.7-3.3,2.1-4.6c1.4-1.4,3.3-2.4,5.7-3.2c2.4-0.8,4.9-1.2,7.8-1.2h18.9c1.2,0,2.2-0.1,2.8-0.4
		c0.6-0.3,1.3-0.8,2.1-1.7l29.6-32.4c1-1.1,2.1-1.6,3.3-1.6h5.2c0.6,0,1,0.2,1.3,0.7c0.3,0.5,0.3,1,0,1.6L75.9-44.2l24.4,2.5
		l8.1-14.6c0.6-1,1.5-1.5,2.8-1.5h2.1c0.6,0,1,0.2,1.3,0.5c0.3,0.3,0.5,0.8,0.5,1.4v41.7c0,0.6-0.2,1-0.5,1.3
		c-0.3,0.3-0.8,0.5-1.3,0.5h-2.1c-1.3,0-2.2-0.5-2.8-1.5l-8.1-14.6l-24.4,2.4L91.1,7.5c0.3,0.6,0.3,1.1,0,1.6
		c-0.3,0.4-0.7,0.7-1.3,0.7h-5.2c-1.2,0-2.4-0.5-3.3-1.6L51.8-24.2c-0.8-0.8-1.5-1.4-2.1-1.7c-0.6-0.3-1.6-0.4-2.8-0.4H28
		c-2.8,0-5.4-0.4-7.8-1.2c-2.4-0.8-4.2-1.8-5.7-3.2C13.2-32,12.5-33.5,12.5-35.3z"/>
</g>
<g id="Ultralight-M" transform="matrix(1 0 0 1 503.857 1126)">
	<path d="M12.5-35.3c0-1.7,0.7-3.2,2.1-4.5c1.4-1.3,3.2-2.4,5.5-3.1c2.3-0.8,4.8-1.1,7.5-1.1h18.6c1.2,0,2.1-0.1,2.7-0.4
		s1.3-0.8,2-1.6l28.7-31.4c1-1.1,2-1.6,3.2-1.6h5c0.6,0,1,0.2,1.2,0.7s0.2,1,0,1.6L74.3-44l24.3,2.4l7.8-14.2c0.6-1,1.5-1.4,2.6-1.4
		h2.1c0.6,0,1,0.1,1.3,0.4c0.3,0.3,0.4,0.7,0.4,1.3V-15c0,0.6-0.1,1-0.4,1.3c-0.3,0.3-0.7,0.4-1.3,0.4H109c-1.2,0-2-0.5-2.6-1.4
		l-7.8-14.2l-24.3,2.3L89.1,6.2c0.3,0.6,0.3,1.1,0,1.5c-0.3,0.4-0.7,0.6-1.2,0.6h-5c-1.2,0-2.3-0.5-3.2-1.5L50.9-24.6
		c-0.8-0.8-1.4-1.4-2-1.6c-0.6-0.3-1.5-0.4-2.7-0.4H27.5c-2.7,0-5.2-0.4-7.5-1.1c-2.3-0.7-4.1-1.8-5.5-3.1
		C13.1-32.1,12.5-33.6,12.5-35.3z"/>
</g>
<g id="Black-S" transform="matrix(1 0 0 1 2878.03 696)">
	<path d="M9.8-35.3c0-1.6,0.7-3.1,2-4.6c1.3-1.5,3.1-2.7,5.3-3.7c2.3-1,4.8-1.4,7.7-1.4h17.1c1.1,0,1.9-0.1,2.5-0.4
		c0.5-0.3,1.1-0.8,1.8-1.4l27.1-27.9c0.9-0.9,1.9-1.4,3.1-1.4h7c0.5,0,0.9,0.2,1.1,0.6c0.2,0.4,0.2,0.9,0,1.4l-14.2,29l20.5,2.1
		l7.3-11.6c0.6-0.9,1.4-1.4,2.6-1.4h2c1.4,0,2.1,0.7,2.1,2.1v37.3c0,1.4-0.7,2.1-2.1,2.1h-2c-1.2,0-2.1-0.5-2.6-1.4l-7.3-11.6
		l-20.5,2.1l14.2,29c0.3,0.5,0.3,1,0,1.4c-0.2,0.4-0.6,0.6-1.1,0.6h-7c-1.1,0-2.2-0.5-3.1-1.4L46.2-23.7c-0.7-0.7-1.3-1.2-1.8-1.4
		c-0.5-0.3-1.4-0.4-2.5-0.4H24.8c-2.9,0-5.5-0.5-7.7-1.4c-2.3-1-4-2.2-5.3-3.7S9.8-33.7,9.8-35.3z"/>
</g>
<g id="Heavy-S" transform="matrix(1 0 0 1 2582.77 696)">
	<path d="M9.8-35.3c0-1.6,0.7-3,1.9-4.5c1.3-1.4,3-2.6,5.3-3.5c2.2-0.9,4.7-1.3,7.5-1.3h16.7c1.1,0,1.9-0.1,2.5-0.4s1.2-0.7,1.8-1.4
		l26.9-28.1c0.9-0.9,1.9-1.4,3.1-1.4H82c0.5,0,0.9,0.2,1.1,0.6c0.2,0.4,0.2,0.9,0,1.4l-14,29.2l20.2,2.2l7.3-12
		c0.5-0.9,1.4-1.4,2.6-1.4h1.9c1.3,0,2,0.7,2,2v37.2c0,1.3-0.7,2-2,2h-1.9c-1.2,0-2.1-0.5-2.6-1.4l-7.3-12l-20.2,2.2l14,29.2
		c0.3,0.5,0.3,1,0,1.4c-0.2,0.4-0.6,0.6-1.1,0.6h-6.5c-1.1,0-2.2-0.5-3.1-1.4L45.5-24.2c-0.7-0.7-1.3-1.2-1.8-1.4
		c-0.5-0.3-1.4-0.4-2.5-0.4H24.5c-2.8,0-5.3-0.4-7.5-1.3c-2.2-0.9-4-2-5.3-3.5C10.4-32.2,9.8-33.7,9.8-35.3z"/>
</g>
<g id="Bold-S" transform="matrix(1 0 0 1 2287.68 696)">
	<path d="M9.8-35.3c0-1.5,0.7-3,1.9-4.3c1.3-1.3,3-2.4,5.2-3.2c2.2-0.8,4.6-1.2,7.3-1.2h16.4c1.1,0,1.9-0.1,2.5-0.4
		c0.6-0.3,1.2-0.7,1.8-1.4l26.7-28.4c0.9-0.9,1.9-1.4,3-1.4h5.8c0.5,0,0.9,0.2,1.1,0.6c0.2,0.4,0.2,0.9,0,1.4L67.7-44.1l20,2.2
		l7.2-12.3c0.5-0.9,1.4-1.4,2.7-1.4h1.8c1.3,0,1.9,0.6,1.9,1.9v37c0,1.3-0.6,1.9-1.9,1.9h-1.8c-1.2,0-2.1-0.5-2.7-1.4l-7.2-12.3
		l-20,2.2L81.5,3.1c0.3,0.5,0.3,1,0,1.4c-0.2,0.4-0.6,0.6-1.1,0.6h-5.8c-1.1,0-2.1-0.5-3-1.4L44.8-24.6c-0.7-0.7-1.3-1.2-1.8-1.4
		c-0.6-0.3-1.4-0.4-2.5-0.4H24.2c-2.7,0-5.1-0.4-7.3-1.2c-2.2-0.8-3.9-1.9-5.2-3.2C10.4-32.3,9.8-33.7,9.8-35.3z"/>
</g>
<g id="Semibold-S" transform="matrix(1 0 0 1 1992.09 696)">
	<path d="M9.8-35.3c0-1.5,0.7-3,1.9-4.2c1.3-1.3,3-2.3,5.1-3.1c2.1-0.8,4.5-1.2,7.1-1.2H40c1.1,0,1.9-0.1,2.5-0.4
		c0.6-0.3,1.2-0.7,1.8-1.4l26.6-28.5c0.9-0.9,1.9-1.4,3-1.4h5.4c0.5,0,0.9,0.2,1.1,0.6s0.2,0.9,0,1.4L66.7-43.8l19.8,2.2l7.2-12.6
		c0.5-0.9,1.4-1.4,2.7-1.4h1.8c1.2,0,1.8,0.6,1.8,1.8v36.9c0,1.2-0.6,1.8-1.8,1.8h-1.8c-1.2,0-2.1-0.5-2.7-1.4L86.5-29l-19.8,2.2
		L80.4,3c0.3,0.5,0.3,1,0,1.4C80.2,4.8,79.8,5,79.3,5h-5.4c-1.1,0-2.1-0.5-3-1.4L44.3-25c-0.7-0.7-1.3-1.2-1.8-1.4
		c-0.6-0.3-1.4-0.4-2.5-0.4H23.9c-2.6,0-5-0.4-7.1-1.2c-2.1-0.8-3.8-1.8-5.1-3.1C10.4-32.3,9.8-33.7,9.8-35.3z"/>
</g>
<g id="Medium-S" transform="matrix(1 0 0 1 1696.23 696)">
	<path d="M9.8-35.3c0-1.5,0.7-2.9,1.9-4.2c1.3-1.2,3-2.2,5.1-3c2.1-0.7,4.4-1.1,7-1.1h15.9c1.1,0,1.9-0.1,2.5-0.4
		c0.6-0.2,1.2-0.7,1.8-1.4l26.5-28.7c0.9-0.9,1.9-1.4,3-1.4h5c0.5,0,0.9,0.2,1.1,0.6c0.2,0.4,0.2,0.9,0,1.4L65.9-43.5l19.7,2.3
		L92.7-54c0.5-0.9,1.4-1.4,2.7-1.4h1.7c1.2,0,1.8,0.6,1.8,1.8v36.8c0,1.2-0.6,1.8-1.8,1.8h-1.7c-1.3,0-2.1-0.5-2.7-1.4l-7.1-12.8
		L65.9-27L79.6,2.8c0.3,0.5,0.3,1,0,1.4S79,4.8,78.5,4.8h-5c-1.1,0-2.1-0.5-3-1.4L43.9-25.2c-0.7-0.7-1.3-1.2-1.8-1.4
		c-0.6-0.2-1.4-0.4-2.5-0.4H23.8c-2.6,0-4.9-0.4-7-1.1c-2.1-0.7-3.8-1.7-5.1-3C10.4-32.3,9.8-33.7,9.8-35.3z"/>
</g>
<g id="Regular-S" transform="matrix(1 0 0 1 1400.63 696)">
	<path d="M9.8-35.3c0-1.5,0.7-2.9,1.9-4.1c1.3-1.2,2.9-2.1,5-2.8s4.4-1,6.8-1h15.6c1.1,0,1.9-0.1,2.5-0.4c0.6-0.2,1.2-0.7,1.8-1.4
		l26.4-28.8c0.8-0.9,1.8-1.4,3-1.4h4.6c0.5,0,0.9,0.2,1.1,0.6c0.2,0.4,0.2,0.9,0,1.4l-13.5,30l19.5,2.3l7.1-13
		c0.5-0.9,1.4-1.4,2.7-1.4h1.7c1.1,0,1.7,0.6,1.7,1.7v36.7c0,1.1-0.6,1.7-1.7,1.7h-1.7c-1.3,0-2.2-0.5-2.7-1.4l-7.1-13l-19.5,2.3
		l13.5,30c0.3,0.5,0.3,1,0,1.4c-0.2,0.4-0.6,0.6-1.1,0.6h-4.6c-1.1,0-2.1-0.5-3-1.4L43.5-25.5c-0.7-0.7-1.3-1.2-1.8-1.4
		c-0.6-0.2-1.4-0.4-2.5-0.4H23.5c-2.5,0-4.8-0.3-6.8-1c-2.1-0.7-3.8-1.6-5-2.8C10.4-32.4,9.8-33.7,9.8-35.3z"/>
</g>
<g id="Light-S" transform="matrix(1 0 0 1 1105.62 696)">
	<path d="M9.8-35.3c0-1.5,0.6-2.8,1.8-3.9c1.2-1.1,2.8-2,4.8-2.7c2-0.7,4.2-1,6.5-1h15.3c1,0,1.8-0.1,2.4-0.3
		c0.5-0.2,1.1-0.7,1.7-1.4l25.2-27.5c0.8-0.9,1.8-1.3,2.8-1.3h4.4c0.5,0,0.8,0.2,1.1,0.6c0.2,0.4,0.2,0.8,0,1.3L62.8-42.8l19.3,2.2
		l6.8-12.4c0.5-0.9,1.3-1.3,2.5-1.3h1.7c1.1,0,1.6,0.5,1.6,1.6v35.1c0,1.1-0.5,1.6-1.6,1.6h-1.7c-1.2,0-2-0.4-2.5-1.3l-6.8-12.4
		l-19.3,2.2L75.8,1c0.3,0.5,0.3,0.9,0,1.3c-0.2,0.4-0.6,0.6-1.1,0.6h-4.4c-1.1,0-2-0.4-2.8-1.3L42.3-26c-0.6-0.7-1.2-1.1-1.7-1.4
		c-0.5-0.2-1.3-0.3-2.4-0.3H22.9c-2.4,0-4.6-0.3-6.5-1c-2-0.7-3.6-1.6-4.8-2.7C10.4-32.5,9.8-33.8,9.8-35.3z"/>
</g>
<g id="Thin-S" transform="matrix(1 0 0 1 811.158 696)">
	<path d="M9.8-35.3c0-1.4,0.6-2.6,1.7-3.7c1.1-1.1,2.6-1.9,4.5-2.5c1.9-0.6,3.9-0.9,6.2-0.9H37c1,0,1.7-0.1,2.2-0.3
		c0.5-0.2,1.1-0.6,1.6-1.3l23.6-25.8c0.8-0.8,1.7-1.2,2.7-1.2h4.1c0.5,0,0.8,0.2,1,0.5c0.2,0.3,0.2,0.8,0,1.2L60.1-42.4l19.1,2
		L85.6-52c0.5-0.8,1.3-1.2,2.3-1.2h1.7c1,0,1.5,0.5,1.5,1.5v33.1c0,1-0.5,1.5-1.5,1.5h-1.7c-1,0-1.8-0.4-2.3-1.2l-6.4-11.6l-19.1,2
		L72.2-1.3c0.2,0.5,0.3,0.9,0,1.2c-0.2,0.3-0.5,0.5-1,0.5h-4.1c-1,0-1.9-0.4-2.7-1.2L40.9-26.5c-0.6-0.6-1.1-1.1-1.6-1.3
		C38.7-28,38-28.1,37-28.1H22.1c-2.2,0-4.3-0.3-6.2-0.9c-1.9-0.6-3.4-1.5-4.5-2.5C10.3-32.7,9.8-33.9,9.8-35.3z"/>
</g>
<g id="Ultralight-S" transform="matrix(1 0 0 1 515.601 696)">
	<path d="M9.8-35.3c0-1.3,0.5-2.5,1.6-3.5c1.1-1,2.5-1.9,4.3-2.5c1.8-0.6,3.8-0.9,6-0.9h14.7c0.9,0,1.6-0.1,2.1-0.3s1-0.6,1.6-1.2
		l22.8-24.9c0.8-0.8,1.6-1.2,2.6-1.2h4c0.5,0,0.8,0.2,1,0.5c0.2,0.3,0.2,0.7,0,1.2L58.6-42.2l19,1.9l6.2-11.2
		c0.5-0.8,1.2-1.1,2.1-1.1h1.7c0.9,0,1.4,0.5,1.4,1.4v32c0,0.9-0.5,1.4-1.4,1.4H86c-0.9,0-1.7-0.4-2.1-1.1l-6.2-11.2l-19,1.9
		L70.3-2.4c0.2,0.5,0.2,0.9,0,1.2c-0.2,0.3-0.5,0.5-1,0.5h-4c-1,0-1.8-0.4-2.6-1.2L40.1-26.8c-0.6-0.6-1.1-1-1.6-1.2
		s-1.2-0.3-2.1-0.3H21.7c-2.2,0-4.2-0.3-6-0.9c-1.8-0.6-3.3-1.4-4.3-2.5C10.3-32.8,9.8-33.9,9.8-35.3z"/>
</g>
</svg>
